{"glyphs":{"0":{"ha":846,"x_min":58,"x_max":814,"o":"m 510 882 q 434 851 469 882 q 369 767 399 819 q 317 647 340 715 q 277 506 293 579 q 253 360 261 433 q 244 226 244 288 q 273 81 244 128 q 361 35 301 35 q 437 66 401 35 q 502 149 472 97 q 555 267 532 200 q 594 408 578 335 q 619 553 611 481 q 628 688 628 625 q 510 882 628 882 m 521 944 q 656 922 600 944 q 747 858 711 900 q 798 758 782 817 q 814 626 814 699 q 803 485 814 560 q 770 338 793 410 q 711 199 747 265 q 624 82 675 132 q 504 2 572 32 q 350 -28 436 -28 q 216 -6 271 -28 q 126 58 161 17 q 74 157 90 99 q 58 289 58 215 q 69 431 58 356 q 101 578 79 506 q 160 717 124 651 q 247 834 196 783 q 366 915 299 885 q 521 944 433 944 z "},"1":{"ha":450,"x_min":69,"x_max":439,"o":"m 278 0 l 97 0 l 229 753 l 94 675 l 69 718 l 318 917 l 439 917 l 278 0 z "},"2":{"ha":750,"x_min":-8,"x_max":739,"o":"m -8 0 l 7 90 q 102 167 47 124 q 217 263 157 211 q 335 372 276 314 q 441 490 394 429 q 516 613 488 550 q 544 738 544 675 q 508 847 544 813 q 422 882 471 882 q 265 824 335 882 q 153 639 196 765 l 104 639 q 126 747 113 692 q 171 833 140 801 q 295 912 217 879 q 461 944 374 944 q 553 937 504 944 q 643 906 601 929 q 712 842 685 883 q 739 736 739 801 q 701 592 739 664 q 606 454 664 521 q 476 328 547 388 q 335 217 404 268 q 210 127 267 167 q 122 63 153 88 l 410 63 q 545 102 493 63 q 611 215 597 142 l 653 215 l 635 111 q 622 70 631 90 q 599 35 614 50 q 558 10 583 19 q 497 0 533 0 l -8 0 z "},"3":{"ha":754,"x_min":-10,"x_max":756,"o":"m 372 854 q 237 815 289 854 q 172 701 185 775 l 131 701 l 149 806 q 161 847 153 826 q 185 882 169 867 q 225 907 200 897 q 286 917 250 917 l 756 917 l 744 854 l 342 529 q 351 531 342 529 q 374 533 361 532 q 403 534 388 533 q 431 535 418 535 q 519 523 474 535 q 604 485 565 511 q 668 415 643 458 q 693 311 693 372 q 661 174 693 236 q 576 67 629 113 q 453 -3 522 22 q 311 -28 385 -28 q 194 -17 244 -28 q 107 13 144 -7 q 42 61 69 33 q -10 122 14 89 l 36 163 q 142 66 83 97 q 261 35 201 35 q 360 58 317 35 q 435 122 404 82 q 482 212 465 161 q 499 317 499 263 q 457 435 499 397 q 353 472 415 472 q 293 468 321 472 q 246 458 265 464 q 203 446 221 453 l 179 499 l 621 854 l 372 854 z "},"4":{"ha":797,"x_min":-12,"x_max":749,"o":"m 572 0 l 392 0 l 432 236 l -12 236 l -1 292 l 589 917 l 733 917 l 624 299 l 749 299 l 738 236 l 613 236 l 572 0 m 443 299 l 524 754 l 94 299 l 443 299 z "},"5":{"ha":763,"x_min":6,"x_max":729,"o":"m 392 542 q 497 531 442 542 q 599 495 553 521 q 676 426 646 469 q 707 317 707 383 q 674 167 707 231 q 584 59 640 103 q 453 -6 528 15 q 296 -28 379 -28 q 195 -17 239 -28 q 117 13 151 -7 q 55 60 82 32 q 6 122 28 88 l 53 158 q 155 64 94 93 q 275 35 215 35 q 375 59 331 35 q 450 123 419 83 q 497 214 481 163 q 513 318 513 265 q 464 438 513 399 q 325 478 415 478 q 265 473 296 478 q 207 461 233 468 q 146 446 176 454 l 100 500 l 189 917 l 729 917 l 718 856 l 339 856 l 269 535 q 313 538 290 536 q 352 540 332 539 q 392 542 372 542 z "},"6":{"ha":779,"x_min":58,"x_max":763,"o":"m 58 289 q 69 440 58 363 q 104 590 81 517 q 166 727 128 663 q 259 840 204 792 q 385 916 314 888 q 549 944 457 944 q 635 937 596 944 q 703 921 675 929 q 763 897 736 910 l 747 858 q 686 869 718 864 q 626 878 658 874 q 565 882 594 882 q 384 797 461 882 q 275 535 307 713 q 333 568 300 553 q 399 591 361 581 q 482 601 438 601 q 595 586 549 601 q 672 542 642 571 q 715 473 701 514 q 728 381 728 432 q 700 228 728 301 q 622 97 672 154 q 498 6 571 40 q 336 -28 425 -28 q 128 52 197 -28 q 58 289 58 132 m 429 539 q 368 528 397 539 q 315 505 339 518 q 278 481 292 492 q 264 468 264 469 q 246 339 251 397 q 240 235 240 281 q 268 82 240 129 q 347 35 296 35 q 438 75 400 35 q 498 172 475 115 q 531 289 521 228 q 542 393 542 350 q 515 501 542 464 q 429 539 488 539 z "},"7":{"ha":661,"x_min":65,"x_max":742,"o":"m 233 0 l 65 0 l 563 854 l 326 854 q 191 815 243 854 q 126 701 139 775 l 85 701 l 103 806 q 115 847 107 826 q 139 882 124 867 q 179 907 154 897 q 240 917 204 917 l 742 917 l 731 854 l 233 0 z "},"8":{"ha":806,"x_min":19,"x_max":778,"o":"m 778 764 q 759 673 778 714 q 708 599 740 632 q 635 542 676 567 q 547 497 593 517 q 614 453 582 476 q 671 403 646 431 q 710 343 696 376 q 725 268 725 310 q 690 134 725 190 q 600 42 656 78 q 473 -11 544 6 q 329 -28 401 -28 q 208 -17 264 -28 q 110 19 151 -6 q 44 80 68 43 q 19 169 19 117 q 44 274 19 228 q 110 355 69 319 q 200 417 150 390 q 301 465 250 444 q 240 506 268 485 q 190 551 211 526 q 156 603 168 575 q 143 668 143 632 q 173 792 143 740 q 253 878 203 844 q 367 928 303 913 q 500 944 431 944 q 609 935 558 944 q 697 905 660 926 q 756 849 735 883 q 778 764 778 814 m 340 35 q 415 50 379 35 q 476 91 450 65 q 517 153 501 117 q 532 231 532 189 q 519 294 532 265 q 483 347 506 324 q 431 392 461 371 q 368 432 401 413 q 250 324 293 393 q 207 164 207 254 q 243 66 207 97 q 340 35 279 35 m 489 882 q 428 867 456 882 q 380 827 400 851 q 348 772 360 803 q 336 708 336 740 q 379 608 336 651 q 481 533 422 565 q 563 634 535 571 q 590 767 590 697 q 581 822 590 800 q 556 858 571 844 q 524 876 542 871 q 489 882 506 882 z "},"9":{"ha":779,"x_min":40,"x_max":746,"o":"m 746 626 q 735 476 746 553 q 699 326 724 399 q 637 190 675 254 q 544 76 599 125 q 417 0 489 28 q 254 -28 344 -28 q 167 -21 206 -28 q 100 -4 128 -14 q 40 19 67 6 l 56 58 q 117 46 85 51 q 176 38 144 42 q 238 35 207 35 q 419 119 342 35 q 528 382 496 204 q 469 349 501 364 q 404 326 442 336 q 322 315 367 315 q 133 374 189 315 q 76 536 76 433 q 103 689 76 615 q 181 819 131 763 q 304 910 232 876 q 467 944 376 944 q 746 626 746 944 m 374 378 q 434 388 404 378 q 488 412 464 399 q 525 436 511 425 q 539 449 539 447 q 564 682 564 590 q 535 835 564 788 q 456 882 507 882 q 365 842 401 882 q 305 744 328 801 q 272 626 282 688 q 263 521 263 564 q 289 414 263 450 q 374 378 315 378 z "}," ":{"ha":347,"x_min":0,"x_max":0,"o":""},"!":{"ha":344,"x_min":29,"x_max":358,"o":"m 207 215 l 76 215 l 174 917 l 358 917 l 207 215 m 201 85 q 174 13 201 44 q 100 -19 146 -19 q 47 -2 65 -19 q 29 44 29 15 q 56 118 29 86 q 131 150 83 150 q 184 133 167 150 q 201 85 201 115 z "},"\"":{"ha":544,"x_min":131,"x_max":572,"o":"m 367 542 l 392 917 l 572 917 l 464 542 l 367 542 m 131 542 l 156 917 l 336 917 l 228 542 l 131 542 z "},"#":{"ha":975,"x_min":17,"x_max":981,"o":"m 96 0 l 188 239 l 17 239 l 32 329 l 221 329 l 315 574 l 158 574 l 175 664 l 351 664 l 457 938 l 594 938 l 489 664 l 665 664 l 771 938 l 908 938 l 803 664 l 981 664 l 964 574 l 767 574 l 674 329 l 838 329 l 822 239 l 639 239 l 547 0 l 410 0 l 501 239 l 325 239 l 233 0 l 96 0 m 360 329 l 535 329 l 629 574 l 453 574 l 360 329 z "},"$":{"ha":767,"x_min":15,"x_max":756,"o":"m 522 939 q 610 923 568 935 q 685 892 653 911 q 736 848 717 874 q 756 792 756 822 q 755 785 756 789 q 751 763 754 781 q 742 710 749 746 q 725 613 736 675 l 686 613 l 686 624 q 641 808 686 749 q 511 876 596 867 l 451 542 l 556 474 q 663 380 628 425 q 699 275 699 335 q 669 155 699 207 q 592 66 640 103 q 481 7 543 29 q 353 -22 418 -15 l 336 -111 l 239 -111 l 256 -21 q 164 -6 207 -17 q 88 24 121 6 q 35 68 54 43 q 15 125 15 93 q 16 131 15 126 q 19 154 17 136 q 28 208 22 172 q 44 306 33 243 l 83 306 l 83 294 q 128 110 83 169 q 267 40 174 51 l 329 399 l 244 456 q 143 549 174 501 q 113 656 113 597 q 138 768 113 718 q 206 854 164 818 q 306 912 249 890 q 425 940 363 933 l 439 1021 l 536 1021 l 522 939 m 364 43 q 419 62 393 49 q 467 94 446 75 q 500 140 488 114 q 513 200 513 167 q 487 276 513 244 q 417 340 461 308 l 364 43 m 413 872 q 323 817 361 857 q 285 719 285 778 q 306 654 285 681 q 365 600 328 628 l 413 872 z "},"%":{"ha":1053,"x_min":50,"x_max":1031,"o":"m 50 0 l 883 917 l 1031 917 l 197 0 l 50 0 m 789 376 q 929 337 879 376 q 979 224 979 297 q 959 130 979 172 q 904 57 939 88 q 822 10 869 26 q 722 -7 775 -7 q 580 33 631 -7 q 529 146 529 72 q 550 240 529 197 q 606 313 571 282 q 689 360 642 343 q 789 376 736 376 m 776 321 q 717 305 743 321 q 674 264 692 289 q 649 207 657 239 q 640 143 640 175 q 731 49 640 49 q 789 63 764 49 q 832 103 814 78 q 859 160 850 128 q 868 225 868 192 q 844 296 868 271 q 776 321 821 321 m 361 924 q 500 885 450 924 q 550 774 550 846 q 530 679 550 722 q 475 606 510 636 q 394 558 440 575 q 293 540 347 540 q 151 580 201 540 q 100 693 100 619 q 121 787 100 744 q 177 860 142 829 q 260 907 213 890 q 361 924 308 924 m 349 868 q 290 852 315 868 q 247 811 264 836 q 220 754 229 786 q 211 690 211 722 q 301 596 211 596 q 362 612 336 596 q 405 653 388 628 q 431 710 422 678 q 439 775 439 742 q 349 868 439 868 z "},"&":{"ha":879,"x_min":7,"x_max":846,"o":"m 7 150 q 31 251 7 206 q 93 333 54 297 q 180 399 132 369 q 276 453 228 428 q 251 481 269 460 q 215 535 233 503 q 182 606 196 567 q 168 689 168 646 q 195 798 168 750 q 267 878 222 846 q 368 928 311 911 q 486 944 425 944 q 656 900 599 944 q 713 783 713 856 q 688 684 713 729 q 623 601 663 639 q 536 531 583 563 q 444 472 489 499 l 653 194 q 710 253 683 222 q 757 307 738 283 q 800 363 781 335 l 846 328 q 804 268 828 299 q 756 209 785 242 q 692 143 728 176 l 801 0 l 613 0 l 568 53 q 549 40 568 53 q 494 13 529 28 q 413 -15 460 -3 q 315 -28 367 -28 q 170 -14 229 -28 q 75 24 111 0 q 23 80 39 47 q 7 150 7 113 m 338 28 q 415 39 379 28 q 478 64 451 50 q 535 100 508 79 q 427 243 478 178 q 321 386 376 308 q 229 289 269 346 q 189 160 189 232 q 226 63 189 99 q 338 28 263 28 m 476 889 q 415 869 440 889 q 375 817 390 849 q 353 749 360 786 q 347 681 347 713 q 367 587 347 625 q 404 529 386 549 q 505 642 464 576 q 546 790 546 707 q 524 867 546 844 q 476 889 503 889 z "},"'":{"ha":308,"x_min":131,"x_max":336,"o":"m 131 542 l 156 917 l 336 917 l 228 542 l 131 542 z "},"(":{"ha":446,"x_min":14,"x_max":531,"o":"m 14 206 q 52 438 14 328 q 158 644 90 549 q 317 822 225 740 q 517 972 408 904 l 531 944 q 376 777 442 874 q 268 571 311 681 q 204 343 225 461 q 183 110 183 225 q 214 -105 183 -7 q 315 -278 244 -203 l 292 -306 q 84 -75 154 -201 q 14 206 14 51 z "},")":{"ha":446,"x_min":-103,"x_max":414,"o":"m 414 460 q 376 228 414 338 q 270 22 338 118 q 111 -156 203 -74 q -87 -306 19 -239 l -103 -278 q 51 -111 -14 -207 q 160 94 117 -15 q 224 322 203 204 q 244 556 244 440 q 213 772 244 674 q 111 944 182 869 l 136 972 q 344 742 274 868 q 414 460 414 615 z "},"*":{"ha":606,"x_min":93,"x_max":615,"o":"m 318 917 l 474 917 l 411 749 l 568 872 l 615 753 l 403 683 l 590 614 l 501 494 l 386 619 l 392 450 l 236 450 l 299 618 l 140 494 l 93 614 l 306 683 l 118 753 l 207 872 l 322 749 l 318 917 z "},"+":{"ha":760,"x_min":49,"x_max":738,"o":"m 322 410 l 49 410 l 65 507 l 339 507 l 386 778 l 511 778 l 464 507 l 738 507 l 721 410 l 447 410 l 399 139 l 274 139 l 322 410 z "},",":{"ha":319,"x_min":-36,"x_max":192,"o":"m 86 -19 q 33 -2 51 -19 q 15 44 15 15 q 42 118 15 86 q 117 150 69 150 q 174 126 156 150 q 192 67 192 101 q 174 -22 192 19 q 128 -100 157 -64 q 60 -167 99 -136 q -18 -222 22 -197 l -36 -189 q 5 -161 -18 -178 q 49 -122 28 -144 q 86 -73 69 -100 q 108 -15 103 -46 l 86 -19 z "},"-":{"ha":551,"x_min":67,"x_max":478,"o":"m 90 433 l 478 433 l 454 301 l 67 301 l 90 433 z "},".":{"ha":314,"x_min":15,"x_max":188,"o":"m 188 85 q 160 13 188 44 q 86 -19 132 -19 q 33 -2 51 -19 q 15 44 15 15 q 42 118 15 86 q 117 150 69 150 q 170 133 153 150 q 188 85 188 115 z "},"/":{"ha":667,"x_min":-35,"x_max":728,"o":"m -35 0 l 572 917 l 728 917 l 121 0 l -35 0 z "},":":{"ha":332,"x_min":24,"x_max":282,"o":"m 196 85 q 168 13 196 44 q 94 -19 140 -19 q 42 -2 60 -19 q 24 44 24 15 q 51 118 24 86 q 125 150 78 150 q 178 133 161 150 q 196 85 196 115 m 282 575 q 254 503 282 535 q 181 471 226 471 q 127 488 144 471 q 110 536 110 506 q 138 608 110 576 q 211 640 165 640 q 265 623 247 640 q 282 575 282 606 z "},";":{"ha":349,"x_min":-21,"x_max":289,"o":"m 289 575 q 261 503 289 535 q 188 471 233 471 q 134 488 151 471 q 117 536 117 506 q 144 608 117 576 q 218 640 172 640 q 272 623 254 640 q 289 575 289 606 m 101 -19 q 49 -2 67 -19 q 31 44 31 15 q 58 118 31 86 q 132 150 85 150 q 189 126 171 150 q 207 67 207 101 q 190 -22 207 19 q 143 -100 172 -64 q 76 -167 114 -136 q -3 -222 38 -197 l -21 -189 q 20 -161 -3 -178 q 64 -122 43 -144 q 101 -73 85 -100 q 124 -15 118 -46 l 101 -19 z "},"<":{"ha":849,"x_min":46,"x_max":842,"o":"m 64 514 l 842 828 l 819 701 l 233 465 l 736 229 l 714 103 l 46 417 l 64 514 z "},"=":{"ha":931,"x_min":65,"x_max":889,"o":"m 126 632 l 889 632 l 871 535 l 108 535 l 126 632 m 82 382 l 844 382 l 828 285 l 65 285 l 82 382 z "},">":{"ha":847,"x_min":35,"x_max":829,"o":"m 811 417 l 35 103 l 57 229 l 643 465 l 140 701 l 163 828 l 829 514 l 811 417 z "},"?":{"ha":694,"x_min":82,"x_max":708,"o":"m 400 882 q 247 822 318 882 q 124 621 175 761 l 82 621 q 83 626 83 624 q 85 632 83 629 q 110 744 96 690 q 156 832 124 799 q 213 874 179 854 q 285 910 246 894 q 367 935 324 926 q 453 944 410 944 q 556 931 508 944 q 637 890 603 917 q 690 822 671 863 q 708 731 708 782 q 687 617 708 665 q 632 531 665 569 q 557 458 599 492 q 475 390 515 425 q 400 313 435 354 q 346 217 365 272 l 251 217 q 288 311 264 268 q 342 394 313 354 q 402 472 371 433 q 458 552 433 510 q 499 643 483 594 q 515 751 515 692 q 483 853 515 825 q 400 882 451 882 m 358 85 q 331 13 358 44 q 257 -19 303 -19 q 204 -2 222 -19 q 186 44 186 15 q 213 118 186 86 q 288 150 240 150 q 341 133 324 150 q 358 85 358 115 z "},"@":{"ha":1218,"x_min":28,"x_max":1186,"o":"m 603 688 q 672 676 644 688 q 717 649 700 664 q 749 611 736 632 l 756 611 l 815 674 l 933 674 l 839 142 q 838 121 838 135 q 848 85 838 99 q 882 71 858 71 q 955 94 924 71 q 1009 154 986 117 q 1047 239 1032 192 q 1072 334 1063 286 q 1085 427 1081 382 q 1089 504 1089 472 q 1062 667 1089 597 q 984 785 1035 738 q 861 858 933 833 q 699 882 789 882 q 451 824 558 882 q 272 672 344 767 q 162 453 199 576 q 125 199 125 331 q 152 29 125 101 q 229 -91 179 -43 q 351 -163 279 -139 q 511 -187 422 -187 q 757 -153 643 -187 q 974 -56 871 -119 l 1000 -111 q 779 -211 901 -172 q 500 -250 657 -250 q 305 -222 392 -250 q 156 -136 218 -193 q 61 4 94 -79 q 28 199 28 88 q 74 475 28 340 q 206 714 119 610 q 420 881 293 818 q 710 944 547 944 q 906 915 818 944 q 1057 831 994 886 q 1153 693 1119 775 q 1186 506 1186 611 q 1166 337 1186 425 q 1102 176 1146 249 q 988 55 1058 103 q 815 7 917 7 q 774 8 797 7 q 727 17 750 10 q 685 40 704 25 q 656 83 665 56 q 610 44 635 61 q 556 18 588 29 q 482 7 524 7 q 374 26 419 7 q 300 78 329 44 q 256 156 271 111 q 242 254 242 201 q 265 403 242 326 q 335 544 289 481 q 448 647 381 607 q 603 688 515 688 m 619 625 q 555 603 583 625 q 504 545 526 581 q 467 465 482 510 q 443 376 453 421 q 429 289 433 331 q 425 218 425 247 q 447 110 425 151 q 521 69 468 69 q 578 83 553 69 q 622 114 603 97 q 663 160 644 133 l 728 535 q 704 579 719 560 q 672 610 692 596 q 619 625 651 625 z "},"A":{"ha":899,"x_min":-51,"x_max":882,"o":"m 763 175 q 807 78 778 114 q 882 36 836 42 l 876 1 q 844 -3 865 -1 q 808 -6 824 -6 q 738 1 775 -6 q 668 26 701 7 q 608 80 635 44 q 567 175 581 115 l 549 253 l 179 253 l 21 0 l -51 0 l 519 917 l 582 917 l 763 175 m 219 315 l 533 315 l 444 678 l 219 315 z "},"B":{"ha":897,"x_min":67,"x_max":863,"o":"m 482 861 q 449 860 465 861 q 422 856 433 858 q 397 851 408 853 l 335 501 l 439 501 q 528 516 486 501 q 601 559 569 531 q 651 628 632 588 q 669 719 669 668 q 653 787 669 760 q 612 831 638 814 q 552 854 586 847 q 482 861 518 861 m 67 0 q 123 322 100 190 q 161 540 146 453 q 185 677 176 628 q 197 752 193 726 q 202 786 201 778 q 203 799 203 794 q 185 855 203 835 q 124 875 168 875 l 110 875 l 117 917 l 492 917 q 617 910 551 917 q 738 884 683 904 q 827 825 792 864 q 863 719 863 786 q 844 632 863 671 q 793 562 825 593 q 719 508 761 531 q 631 474 678 486 q 725 453 686 468 q 787 415 764 438 q 820 363 810 392 q 831 301 831 335 q 790 156 831 214 q 685 64 750 99 q 538 15 619 29 q 372 0 456 0 l 246 0 l 67 0 m 361 56 q 462 70 413 56 q 550 114 511 85 q 612 188 589 143 q 635 292 635 232 q 428 439 635 439 l 324 439 l 258 69 q 285 63 269 65 q 354 56 313 56 l 361 56 z "},"C":{"ha":944,"x_min":53,"x_max":933,"o":"m 875 621 q 813 815 872 747 q 639 882 754 882 q 460 829 535 882 q 338 694 385 776 q 268 513 290 611 q 246 322 246 414 q 259 209 246 261 q 301 118 272 157 q 377 57 331 79 q 490 35 424 35 q 677 85 586 35 q 835 233 768 136 l 876 196 q 787 96 833 138 q 687 26 740 54 q 572 -15 633 -1 q 438 -28 510 -28 q 271 0 343 -28 q 150 76 199 28 q 77 193 101 125 q 53 342 53 261 q 94 556 53 449 q 209 750 135 664 q 385 890 283 836 q 608 944 488 944 q 708 938 651 944 q 814 910 764 931 q 899 853 864 890 q 933 757 933 817 q 928 691 933 725 q 917 621 924 657 l 875 621 z "},"D":{"ha":1024,"x_min":67,"x_max":996,"o":"m 503 861 q 463 860 482 861 q 429 856 444 858 q 397 851 413 853 l 258 65 q 289 60 272 63 q 322 56 303 57 q 361 56 340 56 l 375 56 q 547 101 471 56 q 678 217 624 146 q 760 379 732 289 q 789 560 789 469 q 716 780 789 699 q 514 861 643 861 l 503 861 m 494 917 q 871 822 746 917 q 996 558 996 726 q 947 330 996 433 q 814 153 899 226 q 615 40 729 81 q 369 0 500 0 l 247 0 l 67 0 l 196 736 q 203 799 203 775 q 185 855 203 835 q 124 875 168 875 l 110 875 l 117 917 l 494 917 z "},"E":{"ha":836,"x_min":67,"x_max":831,"o":"m 729 917 q 810 893 789 917 q 831 836 831 869 q 830 826 831 832 q 827 806 829 821 q 820 763 825 792 q 807 688 815 735 l 765 688 q 769 733 769 713 q 731 826 769 797 q 621 854 693 854 l 397 854 l 336 507 l 697 507 l 686 444 l 325 444 l 257 63 l 494 63 q 631 97 571 63 q 743 221 690 131 l 778 207 l 718 97 q 666 26 694 53 q 581 0 638 0 l 247 0 l 67 0 q 123 322 100 190 q 161 540 146 453 q 185 677 176 628 q 197 752 193 726 q 202 786 201 778 q 203 799 203 794 q 185 855 203 835 q 124 875 168 875 l 110 875 l 117 917 l 729 917 z "},"F":{"ha":753,"x_min":67,"x_max":800,"o":"m 699 917 q 779 893 758 917 q 800 836 800 869 q 799 826 800 832 q 797 806 799 821 q 790 763 794 792 q 776 688 785 735 l 735 688 q 739 733 739 713 q 701 826 739 799 q 590 854 663 854 l 397 854 l 335 500 l 640 500 l 629 438 l 324 438 l 247 0 l 67 0 l 196 736 q 203 799 203 775 q 185 855 203 835 q 124 875 168 875 l 110 875 l 117 917 l 699 917 z "},"G":{"ha":1019,"x_min":56,"x_max":1024,"o":"m 861 65 q 678 -6 772 17 q 476 -28 583 -28 q 303 3 381 -28 q 170 88 225 33 q 85 217 115 142 q 56 379 56 292 q 97 588 56 486 q 212 768 139 689 q 385 896 285 847 q 606 944 486 944 q 708 938 650 944 q 817 910 765 931 q 903 851 868 889 q 939 754 939 814 q 935 695 939 725 q 925 639 931 665 l 883 639 q 818 824 879 767 q 636 882 757 882 q 509 857 565 882 q 409 789 453 832 q 334 689 365 746 q 283 569 303 632 q 253 440 263 506 q 243 314 243 375 q 262 178 243 233 q 313 90 281 124 q 389 42 344 57 q 486 28 433 28 q 595 38 549 28 q 681 64 642 47 l 724 311 q 743 370 729 340 q 790 424 757 400 q 879 465 824 449 q 1024 481 935 481 l 1017 446 q 942 411 969 446 q 904 314 915 376 l 861 65 z "},"H":{"ha":1004,"x_min":67,"x_max":964,"o":"m 783 917 l 964 917 l 833 181 q 829 149 831 164 q 828 121 828 135 q 844 63 828 85 q 907 42 861 42 l 921 42 l 914 0 l 747 0 q 668 21 692 0 q 644 96 644 42 q 653 181 644 131 l 700 444 l 325 444 l 247 0 l 67 0 l 196 736 q 203 799 203 775 q 185 855 203 835 q 124 875 168 875 l 110 875 l 117 917 l 283 917 q 362 897 338 917 q 386 824 386 876 q 376 736 386 785 l 336 507 l 711 507 l 783 917 z "},"I":{"ha":426,"x_min":67,"x_max":386,"o":"m 206 917 l 386 917 l 256 181 q 251 149 253 164 q 250 121 250 135 q 267 63 250 85 q 329 42 283 42 l 343 42 l 336 0 l 169 0 q 90 21 114 0 q 67 96 67 42 q 75 181 67 131 l 206 917 z "},"J":{"ha":389,"x_min":-125,"x_max":379,"o":"m 238 115 q 199 -33 222 25 q 134 -127 175 -92 q 31 -176 93 -162 q -125 -190 -32 -190 l -117 -149 q -60 -131 -86 -144 q -12 -87 -33 -117 q 27 -8 10 -57 q 57 115 44 42 l 199 917 l 379 917 l 238 115 z "},"K":{"ha":964,"x_min":68,"x_max":993,"o":"m 68 0 q 124 322 101 190 q 162 540 147 453 q 185 677 176 628 q 197 752 193 726 q 202 786 201 778 q 203 799 203 794 q 185 855 203 835 q 124 875 168 875 l 110 875 l 117 917 l 283 917 q 363 896 339 917 q 388 822 388 875 q 386 800 388 814 q 379 751 385 786 q 362 650 374 715 q 331 472 350 585 l 624 771 q 682 826 651 800 q 746 873 713 853 q 817 905 779 893 q 896 917 854 917 l 993 917 l 985 868 q 838 848 906 868 q 713 769 771 828 l 461 514 l 722 181 q 770 126 744 151 q 822 81 796 101 q 873 49 849 61 q 918 33 897 36 l 913 0 q 868 -10 896 -6 q 808 -14 840 -14 q 731 -8 769 -14 q 655 17 693 -1 q 578 68 617 36 q 499 153 539 100 l 317 386 l 249 0 l 68 0 z "},"L":{"ha":788,"x_min":67,"x_max":736,"o":"m 736 63 l 726 0 l 67 0 l 196 736 q 203 799 203 775 q 185 855 203 835 q 124 875 168 875 l 110 875 l 117 917 l 283 917 q 362 897 338 917 q 386 824 386 876 q 376 736 386 785 l 257 63 l 736 63 z "},"M":{"ha":1207,"x_min":36,"x_max":1169,"o":"m 1049 236 q 1038 160 1042 194 q 1033 97 1033 125 q 1104 -28 1033 -14 l 1099 -62 q 915 -14 972 -62 q 858 139 858 35 q 861 185 858 161 q 868 236 864 208 l 956 728 l 524 0 l 478 0 l 238 756 l 106 0 l 36 0 l 197 917 l 367 917 l 582 235 l 988 917 l 1169 917 l 1049 236 z "},"N":{"ha":965,"x_min":71,"x_max":954,"o":"m 772 278 l 885 917 l 954 917 l 792 -4 l 728 -4 l 261 688 l 140 0 l 71 0 q 128 322 104 190 q 166 540 151 454 q 189 675 181 626 q 201 747 197 724 q 206 777 206 771 q 207 786 207 783 q 183 850 207 825 q 100 875 160 875 l 93 875 l 100 917 l 197 917 q 322 896 276 917 q 392 833 367 875 l 772 278 z "},"O":{"ha":1021,"x_min":56,"x_max":990,"o":"m 449 35 q 565 63 514 35 q 656 136 617 90 q 724 241 696 182 q 769 364 751 300 q 794 491 786 428 q 803 608 803 554 q 750 811 803 740 q 597 882 697 882 q 482 854 533 882 q 391 780 431 826 q 324 674 351 733 q 278 550 296 614 q 253 423 261 486 q 244 307 244 360 q 297 106 244 176 q 449 35 349 35 m 56 356 q 96 569 56 464 q 209 758 136 675 q 384 893 282 842 q 608 944 486 944 q 769 916 699 944 q 890 837 840 888 q 965 715 939 786 q 990 561 990 644 q 950 347 990 453 q 837 158 910 242 q 662 24 764 75 q 438 -28 560 -28 q 276 1 347 -28 q 156 80 206 29 q 81 201 107 131 q 56 356 56 272 z "},"P":{"ha":806,"x_min":67,"x_max":831,"o":"m 489 861 q 456 860 472 861 q 426 856 439 858 q 397 851 411 853 l 322 426 l 406 426 q 506 450 463 426 q 578 513 549 474 q 622 604 607 553 q 638 710 638 656 q 625 782 638 753 q 592 829 613 811 q 544 854 571 847 q 489 861 517 861 m 499 917 q 599 910 542 917 q 708 880 657 903 q 795 813 760 857 q 831 694 831 769 q 798 556 831 617 q 711 455 765 496 q 588 392 657 414 q 444 371 518 371 l 313 371 l 247 0 l 67 0 q 123 322 100 190 q 161 540 146 453 q 185 677 176 628 q 197 752 193 726 q 202 786 201 778 q 203 799 203 794 q 185 855 203 835 q 124 875 168 875 l 110 875 l 117 917 l 499 917 z "},"Q":{"ha":1024,"x_min":57,"x_max":992,"o":"m 57 356 q 97 569 57 464 q 210 758 138 675 q 385 893 283 842 q 610 944 488 944 q 771 916 700 944 q 891 837 842 888 q 966 715 940 786 q 992 561 992 644 q 963 377 992 467 q 879 212 933 288 q 748 78 825 136 q 574 -10 671 19 q 610 -103 582 -60 q 678 -180 639 -147 q 763 -231 717 -212 q 851 -249 808 -249 l 844 -285 q 688 -270 765 -285 q 542 -222 611 -256 q 410 -136 472 -189 q 299 -6 349 -83 q 196 47 240 13 q 120 128 151 81 q 73 233 89 175 q 57 356 57 290 m 450 35 q 567 63 515 35 q 658 136 618 90 q 725 241 697 182 q 770 364 753 300 q 796 491 788 428 q 804 608 804 554 q 751 811 804 740 q 599 882 699 882 q 483 854 535 882 q 392 780 432 826 q 325 674 353 733 q 280 550 297 614 q 254 423 263 486 q 246 307 246 360 q 298 106 246 176 q 450 35 350 35 z "},"R":{"ha":856,"x_min":67,"x_max":833,"o":"m 490 861 q 457 860 474 861 q 428 856 440 858 q 399 851 413 853 l 332 475 l 415 475 q 506 494 464 475 q 577 545 547 513 q 624 622 607 578 q 640 717 640 667 q 627 785 640 757 q 592 829 614 813 q 544 853 571 846 q 490 861 517 861 m 378 419 l 322 419 l 249 0 l 67 0 q 123 322 100 190 q 161 540 146 453 q 185 677 176 628 q 197 752 193 726 q 202 786 201 778 q 203 799 203 794 q 185 855 203 835 q 124 875 168 875 l 110 875 l 117 917 l 500 917 q 603 910 546 917 q 713 882 661 904 q 799 819 764 860 q 833 710 833 778 q 812 606 833 651 q 753 526 790 560 q 667 468 717 492 q 564 431 618 444 l 667 188 q 705 115 685 143 q 744 69 725 86 q 780 45 763 53 q 813 35 797 38 l 807 0 q 766 -10 796 -6 q 710 -14 736 -14 q 642 -4 674 -14 q 581 29 610 6 q 526 92 551 53 q 475 188 500 131 l 378 419 z "},"S":{"ha":781,"x_min":22,"x_max":763,"o":"m 308 -24 q 203 -13 254 -24 q 111 16 151 -3 q 47 63 71 35 q 22 126 22 90 q 23 133 22 128 q 26 155 24 138 q 35 208 29 172 q 51 306 40 243 l 90 306 l 90 296 q 146 98 90 157 q 317 39 201 39 q 388 49 351 39 q 453 78 424 58 q 501 128 482 97 q 519 200 519 158 q 488 283 519 249 q 404 353 457 317 l 251 456 q 150 549 181 501 q 119 656 119 597 q 149 777 119 724 q 229 867 179 831 q 344 923 279 904 q 476 942 408 942 q 582 931 531 942 q 674 902 633 921 q 738 855 714 883 q 763 792 763 826 q 762 785 763 789 q 758 763 761 781 q 749 710 756 746 q 732 613 743 675 l 693 613 l 693 628 q 638 822 693 764 q 481 879 583 879 q 413 869 447 879 q 352 838 379 858 q 308 788 325 818 q 292 719 292 758 q 324 642 292 672 q 408 575 356 611 l 563 474 q 670 380 635 425 q 706 275 706 335 q 670 144 706 200 q 578 51 635 88 q 451 -5 522 14 q 308 -24 381 -24 z "},"T":{"ha":801,"x_min":74,"x_max":885,"o":"m 885 917 l 874 854 l 583 854 l 433 0 l 253 0 l 403 854 l 304 854 q 181 817 231 854 q 115 688 132 781 l 74 688 l 94 806 q 107 847 99 826 q 131 882 115 867 q 171 907 146 897 q 232 917 196 917 l 885 917 z "},"U":{"ha":968,"x_min":119,"x_max":967,"o":"m 372 736 q 342 556 354 631 q 321 428 329 481 q 307 344 313 376 q 299 292 301 311 q 297 261 297 272 q 296 242 296 250 q 335 94 296 146 q 461 42 374 42 q 595 63 538 42 q 694 128 653 85 q 763 240 736 172 q 806 400 789 307 l 897 917 l 967 917 l 875 400 q 826 225 858 301 q 742 95 794 149 q 615 14 690 42 q 435 -14 539 -14 q 195 57 271 -14 q 119 271 119 128 q 121 306 119 285 q 130 374 122 326 q 152 507 138 422 q 192 736 167 592 q 199 799 199 775 q 181 855 199 835 q 119 875 164 875 l 126 917 l 279 917 q 358 897 333 917 q 382 824 382 876 q 372 736 382 785 z "},"V":{"ha":885,"x_min":40,"x_max":960,"o":"m 151 754 q 106 863 132 832 q 40 900 81 894 l 44 928 q 72 929 50 928 q 104 931 94 931 q 177 925 140 931 q 247 901 214 919 q 306 849 281 883 q 347 754 332 814 l 475 235 l 889 917 l 960 917 l 396 -14 l 340 -14 l 151 754 z "},"W":{"ha":1257,"x_min":32,"x_max":1317,"o":"m 894 249 l 1250 917 l 1317 917 l 824 -12 l 768 -12 l 650 532 l 364 -12 l 308 -12 l 143 754 q 99 864 126 833 q 32 900 72 894 l 36 928 q 64 929 42 928 q 96 931 86 931 q 169 926 132 931 q 240 903 207 921 q 300 849 274 885 q 339 754 326 814 l 442 275 l 631 631 l 603 754 q 554 864 586 833 q 482 900 522 894 l 486 928 q 512 929 492 928 q 542 931 532 931 q 616 926 578 931 q 688 903 654 921 q 747 849 721 885 q 785 754 772 814 l 894 249 z "},"X":{"ha":896,"x_min":-44,"x_max":933,"o":"m 515 578 l 843 917 l 933 917 l 544 515 l 703 181 q 733 128 715 154 q 772 80 751 101 q 816 44 793 58 q 863 28 839 31 l 858 0 l 706 0 q 635 14 667 0 q 579 50 604 28 q 536 99 554 72 q 506 153 518 126 l 403 369 l 46 0 l -44 0 l 372 432 l 229 736 q 199 789 217 763 q 160 837 181 815 q 115 872 139 858 q 69 889 92 886 l 75 917 l 228 917 q 298 903 267 917 q 353 867 329 889 q 396 817 378 844 q 426 764 414 790 l 515 578 z "},"Y":{"ha":888,"x_min":40,"x_max":972,"o":"m 535 479 l 882 917 l 972 917 l 567 404 l 496 0 l 315 0 l 379 367 l 199 736 q 168 789 186 763 q 129 837 150 815 q 85 872 108 858 q 40 889 63 886 l 46 917 l 197 917 q 267 903 236 917 q 323 867 299 889 q 365 817 347 844 q 396 764 383 790 l 535 479 z "},"Z":{"ha":832,"x_min":-24,"x_max":901,"o":"m 901 917 l 206 63 l 743 63 l 733 0 l -24 0 l -17 44 l 643 856 l 342 856 q 219 819 268 856 q 153 688 169 782 l 111 688 l 132 806 q 144 847 136 826 q 168 882 153 867 q 208 907 183 897 q 269 917 233 917 l 901 917 z "},"[":{"ha":461,"x_min":-24,"x_max":532,"o":"m 317 -278 l -24 -278 l 192 944 l 532 944 l 521 882 l 347 882 l 154 -215 l 328 -215 l 317 -278 z "},"\\":{"ha":660,"x_min":122,"x_max":563,"o":"m 407 0 l 122 917 l 278 917 l 563 0 l 407 0 z "},"]":{"ha":461,"x_min":-89,"x_max":465,"o":"m -78 -215 l 94 -215 l 288 882 l 114 882 l 125 944 l 465 944 l 250 -278 l -89 -278 l -78 -215 z "},"^":{"ha":714,"x_min":39,"x_max":697,"o":"m 483 944 l 697 458 l 561 458 l 424 774 l 175 458 l 39 458 l 422 944 l 483 944 z "},"_":{"ha":603,"x_min":-71,"x_max":531,"o":"m 513 -97 l -71 -97 l -53 0 l 531 0 l 513 -97 z "},"`":{"ha":315,"x_min":124,"x_max":335,"o":"m 124 944 l 297 944 l 335 663 l 232 663 l 124 944 z "},"a":{"ha":764,"x_min":33,"x_max":725,"o":"m 411 604 q 347 582 375 604 q 297 525 318 560 q 260 446 275 490 q 235 356 244 401 q 221 270 225 311 q 217 200 217 229 q 239 91 217 133 q 314 49 261 49 q 371 63 346 49 q 415 93 396 76 q 454 139 438 113 l 521 514 q 497 558 513 539 q 464 590 485 575 q 411 604 443 604 m 394 667 q 464 655 436 667 q 508 628 492 643 q 540 590 528 611 l 547 590 l 607 653 l 725 653 l 635 139 l 611 0 l 493 0 l 454 63 l 447 63 q 403 24 428 40 q 349 -3 381 8 q 275 -14 317 -14 q 167 6 213 -14 q 92 58 122 25 q 48 138 63 92 q 33 236 33 183 q 58 385 33 308 q 128 524 82 461 q 241 626 174 586 q 394 667 308 667 z "},"b":{"ha":764,"x_min":18,"x_max":708,"o":"m 222 139 q 246 93 231 113 q 279 63 258 76 q 332 49 300 49 q 399 70 369 49 q 449 127 428 92 q 485 206 469 163 q 508 295 500 250 q 521 381 517 340 q 525 451 525 422 q 502 563 525 522 q 422 604 479 604 q 373 597 396 604 q 333 583 350 590 q 297 563 314 574 l 222 139 m 18 0 q 74 322 51 190 q 113 540 97 453 q 136 677 128 628 q 149 752 144 726 q 153 786 153 778 q 154 799 154 794 q 137 855 154 835 q 75 875 119 875 l 61 875 l 68 917 l 235 917 q 313 897 289 917 q 338 824 338 876 q 337 803 338 815 q 333 770 336 792 q 324 714 329 749 q 308 625 318 679 q 351 646 328 636 q 399 660 371 653 q 461 667 426 667 q 572 648 525 667 q 649 595 618 629 q 694 515 679 561 q 708 413 708 468 q 685 263 708 339 q 616 126 661 188 q 503 25 571 64 q 349 -14 436 -14 q 278 -3 307 -14 q 233 24 250 8 q 201 63 213 40 l 194 63 l 136 0 l 18 0 z "},"c":{"ha":692,"x_min":35,"x_max":660,"o":"m 444 604 q 339 563 382 604 q 269 463 296 522 q 230 336 242 403 q 218 218 218 269 q 354 49 218 49 q 477 82 426 49 q 572 164 528 115 l 610 132 q 565 83 590 108 q 503 35 539 57 q 422 0 468 14 q 315 -14 375 -14 q 190 6 243 -14 q 103 62 138 26 q 51 145 68 97 q 35 250 35 193 q 63 410 35 335 q 144 543 92 486 q 269 633 196 600 q 435 667 343 667 q 503 665 464 667 q 576 652 542 663 q 635 619 611 642 q 660 556 660 597 q 655 499 660 532 q 642 424 650 467 l 600 424 q 601 440 601 432 q 601 457 601 449 q 560 567 601 531 q 444 604 519 604 z "},"d":{"ha":764,"x_min":35,"x_max":750,"o":"m 529 563 q 500 583 517 574 q 465 597 485 590 q 418 604 444 604 q 321 558 360 604 q 259 448 282 513 q 227 315 236 383 q 218 200 218 246 q 240 90 218 131 q 314 49 261 49 q 371 63 346 49 q 415 93 396 76 q 454 139 438 113 l 529 563 m 540 625 q 554 706 549 675 q 563 756 560 738 q 566 783 565 774 q 567 799 567 792 q 549 855 567 835 q 488 875 532 875 l 474 875 l 481 917 l 647 917 q 726 897 701 917 q 750 824 750 876 q 749 808 750 818 q 744 771 749 799 q 732 692 740 743 q 708 551 724 640 q 668 327 692 461 q 611 0 644 193 l 493 0 l 454 63 l 447 63 q 403 24 428 40 q 349 -3 381 8 q 275 -14 317 -14 q 169 5 214 -14 q 94 58 124 24 q 49 138 64 92 q 35 240 35 185 q 58 391 35 315 q 128 528 82 467 q 244 628 175 590 q 401 667 313 667 q 460 660 435 667 q 504 646 486 653 q 540 625 525 636 z "},"e":{"ha":706,"x_min":35,"x_max":681,"o":"m 378 340 q 427 356 406 340 q 463 394 449 371 q 485 447 478 418 q 493 503 493 475 q 467 580 493 556 q 410 604 442 604 q 354 591 381 604 q 305 547 328 578 q 263 465 282 515 q 232 340 244 415 l 378 340 m 681 497 q 653 396 681 438 q 580 328 625 354 q 478 290 535 301 q 367 278 422 278 l 221 278 q 213 200 213 233 q 245 86 213 124 q 333 49 278 49 q 456 82 406 49 q 551 164 507 115 l 589 132 q 544 83 569 108 q 483 35 518 57 q 403 0 449 14 q 301 -14 358 -14 q 188 6 238 -14 q 105 60 139 25 q 53 145 71 96 q 35 253 35 194 q 62 406 35 332 q 139 538 89 481 q 260 631 189 596 q 421 667 332 667 q 613 622 544 667 q 681 497 681 576 z "},"f":{"ha":479,"x_min":-133,"x_max":635,"o":"m 138 590 l 54 590 l 65 653 l 149 653 l 156 690 q 255 869 176 808 q 469 931 333 931 q 540 924 506 931 q 592 907 575 918 q 635 847 624 886 l 571 799 q 528 849 556 831 q 465 868 501 868 q 386 830 418 868 q 336 690 354 792 l 329 653 l 510 653 l 499 590 l 318 590 l 221 35 q 181 -109 206 -51 q 114 -201 156 -167 q 12 -249 72 -235 q -133 -264 -49 -264 l -128 -229 q -70 -208 -96 -224 q -24 -162 -44 -193 q 12 -84 -4 -132 q 40 35 28 -36 l 138 590 z "},"g":{"ha":764,"x_min":4,"x_max":725,"o":"m 521 514 q 497 558 513 539 q 464 590 485 575 q 411 604 443 604 q 345 584 374 604 q 296 531 317 564 q 260 456 275 497 q 237 372 246 414 q 224 289 228 329 q 221 219 221 249 q 244 115 221 153 q 325 76 268 76 q 374 83 351 76 q 414 97 397 89 q 450 118 433 106 l 521 514 m 619 49 q 575 -85 607 -25 q 495 -187 543 -144 q 383 -254 447 -231 q 242 -278 319 -278 q 144 -264 185 -278 q 76 -228 104 -250 q 32 -181 49 -207 q 4 -132 15 -156 l 53 -100 q 83 -145 67 -124 q 119 -182 99 -167 q 165 -206 139 -197 q 225 -215 192 -215 q 357 -153 300 -215 q 439 49 414 -92 l 440 56 q 397 35 422 43 q 348 20 376 26 q 286 14 319 14 q 98 81 158 14 q 38 257 38 149 q 61 403 38 329 q 130 535 85 476 q 242 630 175 593 q 394 667 308 667 q 464 655 436 667 q 508 628 492 643 q 540 590 528 611 l 547 590 l 607 653 l 725 653 l 619 49 z "},"h":{"ha":758,"x_min":17,"x_max":692,"o":"m 146 736 q 153 799 153 775 q 135 855 153 835 q 74 875 118 875 l 60 875 l 67 917 l 233 917 q 312 897 288 917 q 336 824 336 876 q 326 736 336 785 l 304 614 q 351 640 326 628 q 403 658 374 650 q 467 667 432 667 q 549 658 508 667 q 622 628 590 650 q 672 570 653 607 q 692 478 692 533 q 691 465 692 472 q 688 442 690 458 q 681 395 686 425 q 668 314 676 365 q 647 185 660 263 q 614 0 633 108 l 433 0 q 477 253 461 161 q 501 390 493 344 q 510 451 508 436 q 511 472 511 465 q 482 569 511 542 q 413 597 453 597 q 367 590 389 597 q 329 572 346 582 q 293 549 310 561 l 197 0 l 17 0 l 146 736 z "},"i":{"ha":376,"x_min":42,"x_max":356,"o":"m 356 828 q 334 758 356 788 q 264 728 313 728 q 198 752 219 728 q 176 811 176 776 q 201 880 176 849 q 268 911 225 911 q 334 887 313 911 q 356 828 356 863 m 128 472 q 135 535 135 511 q 117 591 135 571 q 56 611 100 611 l 42 611 l 49 653 l 215 653 q 294 633 269 653 q 318 560 318 613 q 315 520 318 542 q 308 472 313 499 l 226 0 l 46 0 l 128 472 z "},"j":{"ha":375,"x_min":-122,"x_max":356,"o":"m 51 35 q 85 231 71 150 q 109 365 100 311 q 124 451 118 419 q 131 499 129 482 q 134 524 133 517 q 135 535 135 531 q 117 591 135 571 q 56 611 100 611 l 42 611 l 49 653 l 215 653 q 294 633 269 653 q 318 560 318 613 q 317 546 318 554 q 314 518 317 538 q 306 465 311 499 q 290 376 300 432 q 267 236 281 319 q 232 35 253 153 q 192 -109 217 -51 q 125 -201 167 -167 q 23 -249 83 -235 q -122 -264 -37 -264 l -117 -229 q -59 -208 -85 -224 q -13 -162 -33 -193 q 23 -84 7 -132 q 51 35 39 -36 m 356 828 q 331 759 356 790 q 264 728 307 728 q 198 752 219 728 q 176 811 176 776 q 201 880 176 849 q 268 911 225 911 q 334 887 313 911 q 356 828 356 863 z "},"k":{"ha":704,"x_min":18,"x_max":708,"o":"m 246 272 l 199 0 l 18 0 q 74 322 51 190 q 113 540 97 453 q 136 677 128 628 q 149 752 144 726 q 153 786 153 778 q 154 799 154 794 q 137 855 154 835 q 75 875 119 875 l 61 875 l 68 917 l 235 917 q 313 897 289 917 q 338 824 338 876 q 336 799 338 815 q 327 734 335 782 q 303 594 319 686 q 258 340 288 501 l 463 546 q 511 591 488 571 q 560 625 535 611 q 615 646 586 639 q 681 653 644 653 l 708 653 l 703 617 q 624 600 661 617 q 551 547 588 583 l 388 383 l 529 139 q 640 33 582 46 l 635 0 q 593 -10 624 -6 q 536 -14 563 -14 q 431 10 478 -14 q 349 97 383 35 l 246 272 z "},"l":{"ha":363,"x_min":24,"x_max":343,"o":"m 24 0 q 80 322 57 190 q 118 540 103 453 q 142 677 133 628 q 154 752 150 726 q 159 786 158 778 q 160 799 160 794 q 142 855 160 835 q 81 875 125 875 l 67 875 l 74 917 l 240 917 q 319 897 294 917 q 343 824 343 876 q 342 808 343 818 q 338 771 342 799 q 325 692 333 743 q 301 551 317 640 q 261 327 285 461 q 204 0 238 193 l 24 0 z "},"m":{"ha":1149,"x_min":42,"x_max":1082,"o":"m 301 600 q 377 644 329 622 q 488 667 425 667 q 556 658 526 667 q 608 636 586 649 q 644 610 631 624 q 665 588 658 597 q 747 642 697 618 q 876 667 796 667 q 1028 623 975 667 q 1082 483 1082 579 q 1081 460 1082 475 q 1072 397 1079 444 q 1048 257 1064 350 q 1003 0 1032 164 l 822 0 q 855 187 842 110 q 877 316 868 264 q 891 399 886 368 q 898 447 896 429 q 901 471 900 464 q 901 483 901 478 q 877 572 901 546 q 815 597 853 597 q 742 582 776 597 q 688 544 708 567 q 690 532 689 539 q 693 515 692 525 q 694 492 694 506 q 694 478 694 486 q 691 453 693 471 q 683 405 689 436 q 669 321 678 374 q 647 190 660 268 q 614 0 633 111 l 433 0 q 466 187 453 110 q 488 316 479 264 q 502 399 497 368 q 509 447 507 429 q 512 471 511 464 q 513 483 513 478 q 488 572 513 546 q 426 597 464 597 q 360 578 394 597 q 310 542 326 560 l 310 535 q 310 528 310 532 q 311 517 311 524 q 310 508 311 514 q 308 485 310 503 q 301 436 306 468 q 286 348 296 404 q 262 207 276 292 q 225 0 247 122 l 44 0 q 81 210 65 124 q 106 356 96 297 q 121 447 115 414 q 129 499 126 481 q 133 525 132 518 q 133 536 133 532 q 117 592 133 572 q 56 611 100 611 l 42 611 l 49 653 l 186 653 q 257 641 228 653 q 296 600 286 629 l 301 600 z "},"n":{"ha":801,"x_min":42,"x_max":735,"o":"m 447 597 q 368 585 403 597 q 313 554 333 572 q 310 481 317 514 l 225 0 l 44 0 l 126 472 q 133 538 133 511 q 117 592 133 572 q 56 611 100 611 l 42 611 l 49 653 l 186 653 q 258 641 233 653 q 294 601 283 629 q 373 646 322 625 q 508 667 424 667 q 678 623 621 667 q 735 483 735 579 q 733 449 735 467 q 728 411 731 431 l 656 0 l 475 0 l 547 413 q 553 476 553 444 q 524 570 553 543 q 447 597 494 597 z "},"o":{"ha":768,"x_min":33,"x_max":714,"o":"m 325 49 q 421 92 382 49 q 484 195 460 135 q 519 322 508 256 q 529 435 529 389 q 503 558 529 513 q 422 604 478 604 q 326 561 365 604 q 263 458 288 518 q 228 331 239 397 q 218 218 218 264 q 244 94 218 140 q 325 49 269 49 m 33 256 q 63 408 33 333 q 147 540 93 482 q 273 632 200 597 q 433 667 346 667 q 554 647 501 667 q 642 590 607 626 q 696 505 678 554 q 714 397 714 456 q 684 245 714 319 q 601 113 654 171 q 474 21 547 56 q 314 -14 401 -14 q 193 6 246 -14 q 105 63 140 26 q 51 148 69 99 q 33 256 33 197 z "},"p":{"ha":790,"x_min":-3,"x_max":735,"o":"m 494 667 q 601 648 556 667 q 676 595 646 629 q 720 515 706 561 q 735 413 735 468 q 709 254 735 331 q 635 118 683 178 q 520 22 588 58 q 368 -14 453 -14 q 308 -8 333 -14 q 265 7 283 -1 q 229 28 244 15 l 178 -264 l -3 -264 q 53 58 31 -74 q 92 277 76 190 q 115 414 107 364 q 128 490 124 464 q 133 524 132 515 q 133 536 133 532 q 117 592 133 572 q 56 611 100 611 l 42 611 l 49 653 l 186 653 q 259 640 233 653 q 293 594 285 628 q 327 618 307 606 q 372 642 347 631 q 428 660 397 653 q 494 667 458 667 m 456 604 q 367 585 403 604 q 311 547 332 565 l 311 540 q 312 533 311 538 q 313 521 313 528 q 313 513 313 518 q 310 494 313 508 q 303 453 308 481 q 291 380 299 426 q 271 263 283 333 q 240 90 258 192 q 269 69 253 78 q 305 55 285 61 q 351 49 325 49 q 421 71 390 49 q 474 128 451 93 q 510 209 496 164 q 534 299 525 254 q 547 384 543 343 q 551 453 551 425 q 530 563 551 522 q 456 604 508 604 z "},"q":{"ha":763,"x_min":33,"x_max":724,"o":"m 519 514 q 496 558 511 539 q 463 590 483 575 q 410 604 442 604 q 343 583 372 604 q 293 526 314 561 q 257 447 272 490 q 233 358 242 403 q 221 272 225 313 q 217 201 217 231 q 240 90 217 131 q 319 49 263 49 q 369 55 346 49 q 408 69 392 61 q 444 90 428 78 l 519 514 m 563 -264 l 382 -264 l 433 28 q 390 7 414 15 q 342 -8 371 -1 q 281 -14 314 -14 q 170 5 217 -14 q 93 58 124 24 q 48 138 63 92 q 33 240 33 185 q 57 390 33 314 q 126 527 81 465 q 238 628 171 589 q 393 667 306 667 q 463 655 435 667 q 507 628 490 643 q 539 590 526 611 l 546 590 l 606 653 l 724 653 l 563 -264 z "},"r":{"ha":583,"x_min":42,"x_max":611,"o":"m 481 667 q 575 639 542 667 q 592 619 585 631 q 603 599 599 608 q 609 583 607 589 q 611 576 611 576 l 531 522 q 511 549 524 536 q 484 568 500 560 q 444 576 468 576 q 367 564 400 576 q 313 533 333 551 q 311 513 311 524 q 310 491 310 503 q 307 467 310 479 l 225 0 l 44 0 q 81 210 65 124 q 106 356 96 297 q 121 447 115 414 q 129 499 126 481 q 133 525 132 518 q 133 536 133 532 q 117 592 133 572 q 56 611 100 611 l 42 611 l 49 653 l 186 653 q 258 641 233 653 q 294 601 283 629 q 371 645 324 624 q 481 667 418 667 z "},"s":{"ha":651,"x_min":18,"x_max":599,"o":"m 232 49 q 283 53 256 49 q 335 71 311 58 q 374 103 358 83 q 389 154 389 124 q 358 212 389 189 q 282 256 326 235 l 215 286 q 108 357 147 318 q 69 451 69 396 q 97 548 69 507 q 167 615 124 589 q 263 654 210 642 q 368 667 315 667 q 438 664 397 667 q 513 650 478 661 q 574 615 549 639 q 599 549 599 590 q 595 499 599 525 q 586 444 592 474 l 538 444 l 538 449 q 502 559 538 514 q 385 604 467 604 q 338 598 361 604 q 294 578 314 592 q 261 544 274 564 q 249 494 249 524 q 270 444 249 464 q 331 407 292 424 l 408 372 q 527 300 486 338 q 568 204 568 263 q 538 104 568 146 q 463 36 508 63 q 360 -2 417 10 q 249 -14 303 -14 q 179 -11 219 -14 q 103 3 139 -8 q 43 38 68 14 q 18 104 18 63 q 22 153 18 128 q 31 208 25 179 l 79 208 l 79 204 q 115 94 79 139 q 232 49 150 49 z "},"t":{"ha":493,"x_min":67,"x_max":494,"o":"m 342 653 l 494 653 l 483 590 l 331 590 q 298 406 311 482 q 276 278 285 329 q 262 198 267 228 q 255 152 257 168 q 252 130 253 136 q 251 119 251 124 q 267 64 251 79 q 308 49 282 49 q 352 54 331 49 q 389 67 374 60 q 424 86 407 75 l 436 47 q 388 17 415 31 q 328 -4 364 6 q 246 -14 293 -14 q 119 24 164 -14 q 75 138 75 63 q 76 147 75 142 q 78 168 76 153 q 85 212 81 183 q 97 290 89 240 q 119 412 106 339 q 150 590 132 485 l 67 590 l 78 653 l 161 653 l 183 778 l 268 861 l 379 861 l 342 653 z "},"u":{"ha":788,"x_min":26,"x_max":749,"o":"m 113 472 q 119 535 119 511 q 102 591 119 571 q 40 611 85 611 l 26 611 l 33 653 l 200 653 q 278 633 254 653 q 303 560 303 613 q 293 472 303 521 q 267 315 276 374 q 252 225 257 257 q 246 180 247 193 q 244 158 244 167 q 269 73 244 97 q 338 49 293 49 q 394 63 369 49 q 439 93 419 76 q 478 139 461 113 l 568 653 l 749 653 l 635 0 l 517 0 l 478 63 l 471 63 q 419 24 447 40 q 360 -3 394 8 q 285 -14 326 -14 q 119 28 174 -14 q 65 165 65 71 q 66 187 65 174 q 72 231 67 200 q 86 319 76 263 q 113 472 96 375 z "},"v":{"ha":697,"x_min":24,"x_max":731,"o":"m 122 493 q 79 601 100 569 q 24 636 58 633 l 29 664 q 53 665 35 664 q 81 667 71 667 q 159 660 122 667 q 226 634 196 653 q 278 581 256 615 q 317 493 301 547 l 392 226 l 656 653 l 731 653 l 318 -14 l 268 -14 l 122 493 z "},"w":{"ha":1078,"x_min":19,"x_max":1101,"o":"m 782 214 l 1028 653 l 1101 653 l 729 -14 l 665 -14 l 553 376 l 324 -14 l 261 -14 l 124 493 q 79 603 103 571 q 19 638 56 635 l 25 664 q 37 665 28 664 q 56 665 46 665 q 77 666 67 665 q 92 667 88 667 q 171 658 136 667 q 233 631 206 650 q 280 578 260 611 q 314 493 300 544 l 385 228 l 518 450 l 506 493 q 462 602 485 569 q 408 638 439 635 l 414 664 q 438 665 419 664 q 467 667 457 667 q 549 659 511 667 q 616 631 586 651 q 667 578 646 611 q 703 493 689 544 l 782 214 z "},"x":{"ha":690,"x_min":-35,"x_max":703,"o":"m 250 290 l 157 514 q 107 592 136 564 q 47 625 78 619 l 51 653 l 183 653 q 286 623 251 653 q 342 542 321 593 l 389 429 l 610 653 l 703 653 l 418 364 l 513 139 q 563 61 533 89 q 622 28 592 33 l 618 0 l 486 0 q 383 30 418 0 q 328 111 349 60 l 279 224 l 58 0 l -35 0 l 250 290 z "},"y":{"ha":707,"x_min":6,"x_max":725,"o":"m 314 -90 q 253 -183 282 -147 q 193 -240 224 -219 q 130 -269 163 -261 q 61 -278 97 -278 l 6 -278 l 14 -229 q 81 -223 50 -229 q 140 -201 113 -217 q 191 -160 167 -186 q 239 -94 215 -135 l 281 -19 l 128 528 q 85 607 113 581 q 18 639 58 633 l 22 667 l 144 667 q 249 637 207 667 q 306 556 290 607 l 404 206 l 651 653 l 725 653 l 314 -90 z "},"z":{"ha":688,"x_min":-11,"x_max":715,"o":"m 715 653 l 217 63 l 582 63 l 572 0 l -11 0 l -4 43 l 457 590 l 293 590 q 163 558 204 590 q 111 458 122 526 l 69 458 l 83 542 q 96 583 88 563 q 119 618 104 603 q 160 643 135 633 q 221 653 185 653 l 715 653 z "},"{":{"ha":433,"x_min":-10,"x_max":507,"o":"m 147 333 q 283 183 283 294 q 275 96 283 139 q 258 11 267 53 q 240 -73 249 -31 q 232 -157 232 -115 q 247 -216 232 -194 q 294 -244 261 -237 l 286 -293 q 182 -272 225 -289 q 112 -228 139 -254 q 73 -167 85 -201 q 61 -94 61 -133 q 68 -23 61 -58 q 83 48 75 13 q 97 118 90 83 q 104 189 104 153 q 79 268 104 233 q -10 311 54 303 l -1 356 q 116 412 78 367 q 165 514 154 457 l 199 708 q 228 799 207 756 q 288 876 250 842 q 379 932 325 910 q 507 960 433 954 l 499 911 q 426 866 450 903 q 390 767 401 829 l 349 528 q 287 403 335 449 q 147 333 239 357 z "},"|":{"ha":367,"x_min":-21,"x_max":372,"o":"m 372 944 l 160 -264 l -21 -264 l 192 944 l 372 944 z "},"}":{"ha":433,"x_min":-92,"x_max":425,"o":"m 268 333 q 132 483 132 372 q 140 567 132 525 q 158 651 149 610 q 175 735 167 693 q 183 822 183 778 q 169 882 183 860 q 119 911 154 904 l 128 960 q 232 938 189 956 q 302 894 275 921 q 341 834 329 868 q 353 761 353 800 q 346 690 353 725 q 331 619 339 654 q 317 548 324 583 q 310 475 310 513 q 335 397 310 431 q 425 356 361 364 l 417 311 q 298 255 336 300 q 250 153 260 210 l 215 -42 q 185 -132 207 -89 q 127 -209 164 -175 q 36 -265 90 -243 q -92 -293 -18 -287 l -83 -244 q -10 -199 -35 -236 q 25 -100 14 -162 l 67 139 q 128 264 81 218 q 268 333 176 310 z "},"~":{"ha":853,"x_min":50,"x_max":792,"o":"m 256 476 q 354 459 307 476 q 445 421 401 442 q 530 383 489 400 q 611 365 571 365 q 699 386 669 365 q 736 449 729 407 l 792 449 q 723 286 772 340 q 588 232 674 232 q 488 249 535 232 q 398 288 442 267 q 313 326 354 308 q 232 343 272 343 q 144 322 174 343 q 106 260 114 301 l 50 260 q 119 422 69 368 q 256 476 169 476 z "}," ":{"ha":347,"x_min":0,"x_max":0,"o":""},"¡":{"ha":335,"x_min":-40,"x_max":288,"o":"m 144 -269 l -40 -269 l 110 432 l 240 432 l 144 -269 m 288 603 q 261 530 288 563 q 188 497 235 497 q 133 515 151 497 q 115 564 115 533 q 144 635 115 604 q 217 667 172 667 q 269 649 251 667 q 288 603 288 632 z "},"¢":{"ha":689,"x_min":25,"x_max":650,"o":"m 264 -11 q 83 72 142 0 q 25 250 25 144 q 50 397 25 326 q 122 522 75 467 q 235 615 168 578 q 383 664 301 653 l 393 722 l 476 722 l 467 665 q 526 660 493 664 q 585 646 558 657 q 631 614 613 635 q 650 556 650 593 q 645 499 650 532 q 632 424 640 467 l 590 424 q 592 440 592 432 q 592 456 592 449 q 557 560 592 524 q 456 603 522 597 l 358 49 q 472 85 424 51 q 563 164 519 118 l 600 132 q 559 88 582 111 q 506 44 536 64 q 436 8 475 24 q 347 -11 397 -7 l 338 -69 l 254 -69 l 264 -11 m 369 589 q 292 523 322 565 q 242 428 261 481 q 216 320 224 376 q 208 215 208 264 q 276 63 208 96 l 369 589 z "},"£":{"ha":744,"x_min":-17,"x_max":740,"o":"m 186 639 q 238 784 201 728 q 323 873 275 840 q 423 918 371 906 q 522 931 475 931 q 589 928 551 931 q 660 915 626 926 q 717 881 694 904 q 740 817 740 858 q 738 780 740 799 q 732 743 735 761 l 656 743 q 622 840 651 811 q 539 868 592 868 q 487 858 513 868 q 438 821 461 847 q 397 751 415 794 q 367 639 379 707 l 343 507 l 524 507 l 513 444 l 332 444 l 307 306 q 250 150 290 207 q 167 63 210 93 l 431 63 q 560 104 514 63 q 621 229 606 146 l 663 229 l 642 111 q 629 70 638 90 q 606 35 621 50 q 565 10 590 19 q 504 0 540 0 l -17 0 l -10 42 q 38 67 17 50 q 74 114 58 83 q 101 191 89 144 q 126 306 114 238 l 151 444 l 68 444 l 79 507 l 163 507 l 186 639 z "},"¤":{"ha":843,"x_min":71,"x_max":854,"o":"m 439 458 q 530 481 489 460 q 600 536 571 501 q 644 617 629 571 q 660 713 660 663 q 647 780 660 751 q 613 826 633 808 q 567 853 593 844 q 517 861 542 861 q 469 860 490 861 q 425 854 447 860 l 356 458 l 439 458 m 668 264 l 321 264 l 275 0 l 94 0 l 140 264 l 71 264 l 82 326 l 151 326 l 164 396 l 94 396 l 106 458 l 175 458 q 207 638 196 572 q 223 737 218 703 q 229 781 228 771 q 231 799 231 792 q 214 854 231 833 q 151 875 197 875 l 138 875 l 144 917 l 526 917 q 656 904 596 917 q 760 867 715 892 q 829 803 804 842 q 854 710 854 764 q 816 570 854 629 q 717 472 778 511 q 579 415 656 433 q 428 396 503 396 l 344 396 l 332 326 l 679 326 l 668 264 z "},"¥":{"ha":994,"x_min":118,"x_max":1050,"o":"m 613 479 l 960 917 l 1050 917 l 644 404 l 638 368 l 757 368 l 746 306 l 626 306 l 617 250 l 736 250 l 725 188 l 606 188 l 574 0 l 393 0 l 425 188 l 308 188 l 319 250 l 436 250 l 446 306 l 329 306 l 340 368 l 456 368 l 276 736 q 246 789 264 763 q 207 837 228 815 q 163 872 186 858 q 118 889 140 886 l 124 917 l 275 917 q 345 903 314 917 q 401 867 376 889 q 443 817 425 844 q 474 764 461 790 l 613 479 z "},"¦":{"ha":371,"x_min":-19,"x_max":374,"o":"m 374 944 l 288 454 l 107 454 l 193 944 l 374 944 m 247 226 l 161 -264 l -19 -264 l 67 226 l 247 226 z "},"§":{"ha":628,"x_min":-21,"x_max":625,"o":"m 447 868 q 347 824 383 868 q 311 715 311 781 q 344 630 311 663 q 419 567 376 597 q 472 527 446 547 q 518 483 497 507 q 552 431 539 460 q 565 369 565 403 q 549 294 565 329 q 506 231 533 260 q 443 179 479 203 q 368 139 407 156 q 442 65 413 107 q 472 -32 472 24 q 449 -133 472 -87 q 386 -210 425 -178 q 296 -260 347 -243 q 189 -278 244 -278 q 123 -273 160 -278 q 54 -255 86 -268 q 1 -217 22 -242 q -21 -151 -21 -192 q -17 -113 -21 -133 q -10 -68 -14 -93 l 35 -68 l 35 -76 q 66 -178 35 -142 q 158 -215 97 -215 q 259 -172 222 -215 q 296 -62 296 -128 q 287 -19 296 -39 q 263 17 278 0 q 230 51 249 35 q 192 83 211 67 q 143 120 169 101 q 94 162 117 139 q 56 214 71 185 q 40 282 40 243 q 57 358 40 322 q 101 422 74 393 q 163 475 128 451 q 235 514 197 499 q 163 587 192 546 q 133 683 133 628 q 156 784 133 739 q 219 862 179 829 q 309 913 258 894 q 417 931 360 931 q 483 926 447 931 q 551 907 519 921 q 603 868 582 893 q 625 803 625 843 q 622 765 625 785 q 615 721 619 746 l 571 721 l 571 725 q 540 830 571 792 q 447 868 510 868 m 322 174 q 383 231 363 189 q 404 321 404 274 q 369 408 404 369 q 283 478 335 446 q 222 422 244 463 q 200 333 200 381 q 235 244 200 283 q 322 174 271 206 z "},"¨":{"ha":392,"x_min":111,"x_max":506,"o":"m 506 1053 q 479 988 506 1017 q 413 958 453 958 q 364 976 381 958 q 347 1022 347 994 q 374 1086 347 1058 q 440 1114 401 1114 q 489 1097 472 1114 q 506 1053 506 1079 m 269 1053 q 243 988 269 1017 q 176 958 217 958 q 128 976 144 958 q 111 1022 111 994 q 138 1086 111 1058 q 204 1114 165 1114 q 253 1097 236 1114 q 269 1053 269 1079 z "},"©":{"ha":1119,"x_min":50,"x_max":1094,"o":"m 660 956 q 839 926 758 956 q 976 843 919 896 q 1064 715 1033 790 q 1094 551 1094 640 q 1047 328 1094 435 q 915 140 999 222 q 721 10 832 58 q 485 -39 610 -39 q 306 -9 386 -39 q 168 74 225 21 q 81 201 111 126 q 50 364 50 275 q 98 588 50 481 q 228 776 146 694 q 422 907 311 858 q 660 956 533 956 m 494 24 q 690 67 599 24 q 849 182 781 110 q 958 349 918 254 q 997 549 997 444 q 973 689 997 625 q 903 798 949 753 q 794 868 858 843 q 649 893 729 893 q 453 850 544 893 q 293 734 361 807 q 186 566 225 661 q 147 365 147 471 q 172 226 147 289 q 241 118 196 163 q 350 49 286 74 q 494 24 414 24 m 800 568 q 763 699 799 657 q 649 740 728 740 q 535 706 582 740 q 457 617 488 671 q 412 500 426 564 q 397 378 397 436 q 406 304 397 339 q 433 243 414 269 q 481 201 451 217 q 551 186 510 186 q 775 319 671 186 l 806 294 q 676 176 746 211 q 515 142 606 142 q 409 160 456 142 q 331 212 363 179 q 283 290 300 244 q 267 389 267 335 q 294 528 267 457 q 369 656 321 599 q 484 749 418 713 q 629 785 550 785 q 700 780 661 785 q 773 760 739 775 q 830 720 807 746 q 853 651 853 694 q 850 614 853 633 q 844 575 847 594 q 844 572 844 572 q 843 568 843 571 l 800 568 z "},"ª":{"ha":449,"x_min":101,"x_max":442,"o":"m 331 725 l 308 725 q 235 701 269 725 q 201 629 201 676 q 214 594 201 604 q 242 585 226 585 q 284 601 265 585 q 314 632 303 617 l 331 725 m 336 557 l 313 592 q 272 564 297 578 q 208 550 247 550 q 133 567 164 550 q 101 626 101 585 q 122 691 101 665 q 172 732 142 717 q 240 753 203 747 q 314 760 278 760 l 336 760 q 340 790 339 776 q 342 814 342 803 q 326 869 342 857 q 293 882 311 882 q 233 863 254 882 q 197 810 211 843 l 157 810 q 167 852 160 829 q 192 890 174 875 q 241 911 207 906 q 314 917 275 917 q 364 913 340 917 q 405 897 388 908 q 432 865 422 886 q 442 811 442 844 q 440 797 442 806 q 435 762 439 788 q 422 688 431 736 q 400 557 414 640 l 336 557 z "},"«":{"ha":594,"x_min":32,"x_max":542,"o":"m 453 514 l 542 514 l 419 313 l 471 111 l 382 111 l 275 313 l 453 514 m 293 42 l 204 42 l 32 313 l 300 583 l 389 583 l 206 314 l 293 42 z "},"¬":{"ha":924,"x_min":68,"x_max":843,"o":"m 700 306 l 68 306 l 86 403 l 843 403 l 800 160 l 675 160 l 700 306 z "},"­":{"ha":551,"x_min":67,"x_max":478,"o":"m 90 433 l 478 433 l 454 301 l 67 301 l 90 433 z "},"®":{"ha":1119,"x_min":50,"x_max":1094,"o":"m 658 951 q 838 922 757 951 q 975 840 918 893 q 1063 714 1032 788 q 1094 551 1094 640 q 1047 328 1094 435 q 915 142 999 222 q 721 13 832 61 q 485 -35 610 -35 q 306 -6 386 -35 q 168 76 225 24 q 81 202 111 129 q 50 364 50 275 q 98 587 50 481 q 228 774 146 693 q 422 903 311 856 q 658 951 532 951 m 496 28 q 691 70 600 28 q 850 184 782 113 q 958 350 918 256 q 997 549 997 444 q 973 688 997 625 q 903 796 949 751 q 792 865 857 840 q 647 889 728 889 q 452 847 543 889 q 293 733 361 804 q 186 567 225 661 q 147 367 147 472 q 172 228 147 290 q 241 121 196 165 q 351 52 286 76 q 496 28 415 28 m 542 485 q 646 529 607 485 q 685 640 685 574 q 657 710 685 689 q 585 731 629 731 q 566 730 574 731 q 551 729 558 729 q 538 728 544 728 l 494 488 q 510 486 503 486 q 524 485 517 485 q 542 485 532 485 m 515 444 l 488 444 l 440 174 l 318 174 l 404 663 q 408 688 407 676 q 410 708 410 699 q 378 749 410 749 l 353 749 l 356 771 l 596 771 q 678 765 639 771 q 749 743 718 758 q 797 701 779 728 q 815 636 815 675 q 767 517 815 563 q 643 453 718 472 l 711 300 q 755 224 733 250 q 808 193 776 197 l 806 174 q 785 168 804 172 q 731 164 767 164 q 646 192 678 164 q 582 294 614 221 l 515 444 z "},"¯":{"ha":347,"x_min":0,"x_max":0,"o":""},"°":{"ha":581,"x_min":108,"x_max":589,"o":"m 374 861 q 317 848 344 861 q 268 812 289 835 q 234 758 247 789 q 221 693 221 728 q 249 613 221 643 q 324 583 278 583 q 382 597 354 583 q 431 633 410 610 q 464 687 451 656 q 476 753 476 718 q 447 831 476 801 q 374 861 418 861 m 388 944 q 538 895 488 944 q 589 768 589 846 q 569 665 589 714 q 513 579 549 615 q 424 522 476 543 q 310 500 372 500 q 159 549 210 500 q 108 676 108 599 q 128 780 108 731 q 185 865 149 829 q 273 923 221 901 q 388 944 325 944 z "},"±":{"ha":810,"x_min":17,"x_max":765,"o":"m 17 76 l 35 174 l 308 174 l 350 410 l 76 410 l 93 507 l 367 507 l 414 778 l 539 778 l 492 507 l 765 507 l 749 410 l 475 410 l 433 174 l 707 174 l 689 76 l 17 76 z "},"²":{"ha":443,"x_min":97,"x_max":449,"o":"m 296 561 q 357 575 335 561 q 385 622 379 589 l 406 622 l 397 574 q 381 539 394 554 q 335 524 368 524 l 97 524 l 103 556 q 208 648 163 610 q 285 719 254 686 q 333 785 317 751 q 349 867 349 819 q 335 908 349 897 q 297 919 321 919 q 225 891 254 919 q 176 810 196 863 l 154 810 q 165 863 158 833 q 188 907 172 892 q 244 942 208 928 q 322 957 281 957 q 367 953 344 957 q 408 938 390 949 q 438 909 426 928 q 449 863 449 890 q 426 778 449 814 q 368 708 404 742 q 283 641 332 675 q 183 561 235 607 l 296 561 z "},"³":{"ha":424,"x_min":93,"x_max":436,"o":"m 226 760 q 260 765 244 764 q 282 765 275 765 q 331 760 307 765 q 373 742 354 754 q 403 710 392 729 q 415 664 415 690 q 395 590 415 619 q 347 542 375 560 q 287 517 318 525 q 235 510 256 510 q 145 529 176 510 q 93 581 114 549 l 115 597 q 222 547 153 547 q 254 555 238 547 q 284 578 271 563 q 306 615 297 593 q 315 664 315 636 q 294 714 315 700 q 246 728 274 728 q 217 726 231 728 q 185 719 204 725 l 169 758 l 360 907 l 251 907 q 171 847 181 907 l 153 847 l 161 893 q 177 928 164 913 q 224 944 190 944 l 436 944 l 432 919 l 226 760 z "},"´":{"ha":279,"x_min":129,"x_max":388,"o":"m 206 972 l 129 972 l 222 1167 l 388 1167 l 206 972 z "},"µ":{"ha":767,"x_min":-26,"x_max":746,"o":"m 310 -14 q 238 1 268 -14 q 182 49 207 17 l 126 -264 l -26 -264 l 135 653 l 315 653 l 258 326 q 246 200 246 253 q 271 85 246 122 q 342 49 296 49 q 421 76 389 49 q 475 139 453 103 l 565 653 l 746 653 l 632 0 l 514 0 l 475 63 l 468 63 q 425 24 450 40 q 375 -3 404 8 q 310 -14 346 -14 z "},"¶":{"ha":883,"x_min":78,"x_max":922,"o":"m 354 375 q 242 392 293 375 q 155 438 192 408 q 98 510 118 468 q 78 601 78 551 q 109 728 78 669 q 192 828 140 786 q 310 893 243 869 q 450 917 378 917 l 922 917 l 911 854 l 835 854 l 638 -264 l 471 -264 l 668 854 l 606 854 l 408 -264 l 242 -264 l 354 375 z "},"·":{"ha":315,"x_min":83,"x_max":256,"o":"m 256 479 q 228 407 256 439 q 154 375 200 375 q 101 392 118 375 q 83 440 83 410 q 111 513 83 481 q 185 544 139 544 q 238 527 221 544 q 256 479 256 510 z "},"¸":{"ha":278,"x_min":-65,"x_max":178,"o":"m -7 0 l 83 0 l 71 -69 q 150 -93 122 -69 q 178 -157 178 -117 q 165 -212 178 -189 q 131 -253 151 -236 q 84 -278 110 -269 q 32 -286 58 -286 l -65 -286 l -54 -222 l 15 -222 q 59 -208 42 -222 q 79 -171 76 -194 q 67 -143 79 -154 q 32 -132 56 -132 l -31 -132 l -7 0 z "},"¹":{"ha":296,"x_min":122,"x_max":307,"o":"m 233 524 l 133 524 l 192 853 l 139 825 l 122 856 l 232 944 l 307 944 l 233 524 z "},"º":{"ha":469,"x_min":114,"x_max":475,"o":"m 328 922 q 270 887 293 922 q 234 803 247 851 q 215 707 221 756 q 210 632 210 658 q 224 563 210 582 q 261 544 239 544 q 319 580 296 544 q 355 663 342 615 q 374 758 368 710 q 379 835 379 807 q 365 903 379 885 q 328 922 351 922 m 333 957 q 442 912 410 957 q 475 800 475 867 q 463 703 475 754 q 423 609 450 651 q 354 538 396 567 q 254 510 313 510 q 146 556 178 510 q 114 669 114 601 q 126 766 114 715 q 166 859 139 817 q 235 929 193 901 q 333 957 276 957 z "},"»":{"ha":593,"x_min":28,"x_max":536,"o":"m 293 313 l 117 111 l 28 111 l 149 313 l 99 514 l 188 514 l 293 313 m 363 314 l 276 583 l 365 583 l 536 313 l 269 42 l 181 42 l 363 314 z "},"¼":{"ha":860,"x_min":-31,"x_max":894,"o":"m -31 0 l 763 917 l 894 917 l 101 0 l -31 0 m 706 139 l 753 139 l 746 101 l 699 101 l 682 0 l 582 0 l 599 101 l 397 101 l 404 135 l 663 422 l 756 422 l 706 139 m 606 139 l 642 342 l 458 139 l 606 139 m 282 524 l 182 524 l 240 853 l 188 825 l 171 856 l 281 944 l 356 944 l 282 524 z "},"½":{"ha":879,"x_min":-31,"x_max":894,"o":"m -31 0 l 763 917 l 894 917 l 101 0 l -31 0 m 282 524 l 182 524 l 240 853 l 188 825 l 171 856 l 281 944 l 356 944 l 282 524 m 647 38 q 708 51 686 38 q 738 99 731 65 l 758 99 l 750 50 q 734 15 747 31 q 688 0 721 0 l 450 0 l 456 32 q 528 92 486 58 q 608 165 569 125 q 673 249 646 204 q 700 344 700 294 q 687 385 700 374 q 650 396 674 396 q 578 367 607 396 q 529 286 549 339 l 507 286 q 518 339 511 310 q 539 383 525 368 q 597 419 561 404 q 675 433 633 433 q 719 429 697 433 q 760 414 742 425 q 789 385 778 403 q 800 339 800 367 q 772 248 800 290 q 703 169 744 206 q 617 99 663 132 q 535 38 571 67 l 647 38 z "},"¾":{"ha":871,"x_min":-4,"x_max":921,"o":"m -4 0 l 789 917 l 921 917 l 128 0 l -4 0 m 718 139 l 765 139 l 758 101 l 711 101 l 694 0 l 594 0 l 611 101 l 410 101 l 417 135 l 675 422 l 768 422 l 718 139 m 618 139 l 654 342 l 471 139 l 618 139 m 219 760 q 253 765 238 764 q 275 765 268 765 q 324 760 300 765 q 366 742 347 754 q 397 710 385 729 q 408 664 408 690 q 393 601 408 629 q 353 552 378 572 q 295 521 328 532 q 228 510 263 510 q 138 529 169 510 q 86 581 107 549 l 108 597 q 215 547 146 547 q 253 557 236 547 q 283 583 271 567 q 301 621 294 600 q 308 664 308 642 q 288 714 308 700 q 239 728 267 728 q 210 726 224 728 q 178 719 197 725 l 163 758 l 353 907 l 244 907 q 164 847 174 907 l 146 847 l 154 893 q 170 928 157 913 q 217 944 183 944 l 429 944 l 425 919 l 219 760 z "},"¿":{"ha":683,"x_min":-42,"x_max":585,"o":"m 267 -232 q 419 -172 347 -232 q 543 29 492 -111 l 585 29 q 559 -89 574 -32 q 510 -181 544 -146 q 455 -224 488 -204 q 383 -260 422 -244 q 300 -285 343 -276 q 214 -294 257 -294 q 110 -281 157 -294 q 30 -240 64 -267 q -23 -172 -4 -212 q -42 -81 -42 -132 q -18 35 -42 -14 q 42 125 6 85 q 123 199 79 165 q 207 268 167 233 q 278 342 247 303 q 322 433 310 382 l 417 433 q 353 296 397 356 q 265 178 310 236 q 185 53 219 119 q 151 -101 151 -12 q 183 -203 151 -175 q 267 -232 215 -232 m 310 564 q 336 637 310 604 q 410 669 363 669 q 464 651 446 669 q 482 603 482 633 q 453 531 482 563 q 381 500 425 500 q 328 517 346 500 q 310 564 310 535 z "},"À":{"ha":899,"x_min":-51,"x_max":882,"o":"m 763 175 q 807 78 778 114 q 882 36 836 42 l 876 1 q 844 -3 865 -1 q 808 -6 824 -6 q 738 1 775 -6 q 668 26 701 7 q 608 80 635 44 q 567 175 581 115 l 549 253 l 179 253 l 21 0 l -51 0 l 519 917 l 582 917 l 763 175 m 219 315 l 533 315 l 444 678 l 219 315 m 406 1167 l 571 1167 l 594 972 l 518 972 l 406 1167 z "},"Á":{"ha":899,"x_min":-51,"x_max":882,"o":"m 763 175 q 807 78 778 114 q 882 36 836 42 l 876 1 q 844 -3 865 -1 q 808 -6 824 -6 q 738 1 775 -6 q 668 26 701 7 q 608 80 635 44 q 567 175 581 115 l 549 253 l 179 253 l 21 0 l -51 0 l 519 917 l 582 917 l 763 175 m 219 315 l 533 315 l 444 678 l 219 315 m 603 972 l 526 972 l 619 1167 l 785 1167 l 603 972 z "},"Â":{"ha":899,"x_min":-51,"x_max":882,"o":"m 763 175 q 807 78 778 114 q 882 36 836 42 l 876 1 q 844 -3 865 -1 q 808 -6 824 -6 q 738 1 775 -6 q 668 26 701 7 q 608 80 635 44 q 567 175 581 115 l 549 253 l 179 253 l 21 0 l -51 0 l 519 917 l 582 917 l 763 175 m 219 315 l 533 315 l 444 678 l 219 315 m 572 1063 l 435 951 l 351 951 l 493 1125 l 674 1125 l 754 951 l 671 951 l 572 1063 z "},"Ã":{"ha":899,"x_min":-51,"x_max":882,"o":"m 763 175 q 807 78 778 114 q 882 36 836 42 l 876 1 q 844 -3 865 -1 q 808 -6 824 -6 q 738 1 775 -6 q 668 26 701 7 q 608 80 635 44 q 567 175 581 115 l 549 253 l 179 253 l 21 0 l -51 0 l 519 917 l 582 917 l 763 175 m 219 315 l 533 315 l 444 678 l 219 315 m 400 972 q 447 1083 415 1056 q 519 1111 478 1111 q 559 1102 543 1111 q 588 1083 575 1093 q 612 1064 600 1072 q 638 1056 624 1056 q 677 1073 661 1056 q 696 1111 693 1090 l 751 1111 q 706 1000 736 1028 q 633 972 675 972 q 594 981 610 972 q 565 999 578 989 q 540 1019 551 1010 q 514 1028 528 1028 q 475 1010 490 1028 q 456 972 460 993 l 400 972 z "},"Ä":{"ha":899,"x_min":-51,"x_max":882,"o":"m 763 175 q 807 78 778 114 q 882 36 836 42 l 876 1 q 844 -3 865 -1 q 808 -6 824 -6 q 738 1 775 -6 q 668 26 701 7 q 608 80 635 44 q 567 175 581 115 l 549 253 l 179 253 l 21 0 l -51 0 l 519 917 l 582 917 l 763 175 m 219 315 l 533 315 l 444 678 l 219 315 m 767 1053 q 740 988 767 1017 q 674 958 714 958 q 625 976 642 958 q 608 1022 608 994 q 635 1086 608 1058 q 701 1114 663 1114 q 750 1097 733 1114 q 767 1053 767 1079 m 531 1053 q 504 988 531 1017 q 438 958 478 958 q 389 976 406 958 q 372 1022 372 994 q 399 1086 372 1058 q 465 1114 426 1114 q 514 1097 497 1114 q 531 1053 531 1079 z "},"Å":{"ha":899,"x_min":-51,"x_max":882,"o":"m 696 1006 q 668 921 696 960 q 596 860 640 882 l 763 175 q 807 78 778 114 q 882 36 836 42 l 876 1 q 844 -3 865 -1 q 808 -6 824 -6 q 738 1 775 -6 q 668 26 701 7 q 608 80 635 44 q 567 175 581 115 l 549 253 l 179 253 l 21 0 l -51 0 l 483 860 q 445 895 464 871 q 426 956 426 919 q 439 1014 426 986 q 473 1063 451 1042 q 524 1098 494 1085 q 585 1111 553 1111 q 665 1082 635 1111 q 696 1006 696 1053 m 219 315 l 533 315 l 444 678 l 219 315 m 582 917 q 613 948 601 928 q 625 994 625 968 q 611 1034 625 1019 q 574 1049 597 1049 q 519 1023 542 1049 q 497 963 497 997 q 519 917 497 935 l 582 917 z "},"Æ":{"ha":1213,"x_min":-92,"x_max":1207,"o":"m 1106 917 q 1186 893 1165 917 q 1207 836 1207 869 q 1206 826 1207 832 q 1203 806 1206 821 q 1197 763 1201 792 q 1183 688 1192 735 l 1142 688 q 1146 733 1146 713 q 1108 826 1146 797 q 997 854 1069 854 l 774 854 l 713 507 l 1074 507 l 1063 444 l 701 444 l 633 63 l 871 63 q 1007 97 947 63 q 1119 221 1067 131 l 1154 207 l 1094 97 q 1042 26 1071 53 q 957 0 1014 0 l 624 0 l 443 0 l 489 264 l 186 264 l -8 0 l -92 0 l 583 917 l 1106 917 m 500 326 l 585 804 l 232 326 l 500 326 z "},"Ç":{"ha":944,"x_min":53,"x_max":933,"o":"m 875 621 q 813 815 872 747 q 639 882 754 882 q 460 829 535 882 q 338 694 385 776 q 268 513 290 611 q 246 322 246 414 q 259 209 246 261 q 301 118 272 157 q 377 57 331 79 q 490 35 424 35 q 677 85 586 35 q 835 233 768 136 l 876 196 q 697 31 794 85 q 465 -26 600 -22 l 458 -69 q 538 -93 510 -69 q 565 -157 565 -117 q 522 -251 565 -215 q 419 -286 479 -286 l 322 -286 l 333 -222 l 403 -222 q 447 -208 429 -222 q 467 -171 464 -194 q 455 -143 467 -154 q 419 -132 443 -132 l 357 -132 l 376 -24 q 236 15 297 -15 q 135 94 175 46 q 74 205 94 142 q 53 342 53 268 q 94 556 53 449 q 209 750 135 664 q 385 890 283 836 q 608 944 488 944 q 708 938 651 944 q 814 910 764 931 q 899 853 864 890 q 933 757 933 817 q 928 691 933 725 q 917 621 924 657 l 875 621 z "},"È":{"ha":836,"x_min":67,"x_max":831,"o":"m 729 917 q 810 893 789 917 q 831 836 831 869 q 830 826 831 832 q 827 806 829 821 q 820 763 825 792 q 807 688 815 735 l 765 688 q 769 733 769 713 q 731 826 769 797 q 621 854 693 854 l 397 854 l 336 507 l 697 507 l 686 444 l 325 444 l 257 63 l 494 63 q 631 97 571 63 q 743 221 690 131 l 778 207 l 718 97 q 666 26 694 53 q 581 0 638 0 l 247 0 l 67 0 q 123 322 100 190 q 161 540 146 453 q 185 677 176 628 q 197 752 193 726 q 202 786 201 778 q 203 799 203 794 q 185 855 203 835 q 124 875 168 875 l 110 875 l 117 917 l 729 917 m 406 1167 l 571 1167 l 594 972 l 518 972 l 406 1167 z "},"É":{"ha":836,"x_min":67,"x_max":831,"o":"m 729 917 q 810 893 789 917 q 831 836 831 869 q 830 826 831 832 q 827 806 829 821 q 820 763 825 792 q 807 688 815 735 l 765 688 q 769 733 769 713 q 731 826 769 797 q 621 854 693 854 l 397 854 l 336 507 l 697 507 l 686 444 l 325 444 l 257 63 l 494 63 q 631 97 571 63 q 743 221 690 131 l 778 207 l 718 97 q 666 26 694 53 q 581 0 638 0 l 247 0 l 67 0 q 123 322 100 190 q 161 540 146 453 q 185 677 176 628 q 197 752 193 726 q 202 786 201 778 q 203 799 203 794 q 185 855 203 835 q 124 875 168 875 l 110 875 l 117 917 l 729 917 m 572 972 l 496 972 l 589 1167 l 754 1167 l 572 972 z "},"Ê":{"ha":836,"x_min":67,"x_max":831,"o":"m 729 917 q 810 893 789 917 q 831 836 831 869 q 830 826 831 832 q 827 806 829 821 q 820 763 825 792 q 807 688 815 735 l 765 688 q 769 733 769 713 q 731 826 769 797 q 621 854 693 854 l 397 854 l 336 507 l 697 507 l 686 444 l 325 444 l 257 63 l 494 63 q 631 97 571 63 q 743 221 690 131 l 778 207 l 718 97 q 666 26 694 53 q 581 0 638 0 l 247 0 l 67 0 q 123 322 100 190 q 161 540 146 453 q 185 677 176 628 q 197 752 193 726 q 202 786 201 778 q 203 799 203 794 q 185 855 203 835 q 124 875 168 875 l 110 875 l 117 917 l 729 917 m 556 1114 l 418 1003 l 335 1003 l 476 1176 l 657 1176 l 738 1003 l 654 1003 l 556 1114 z "},"Ë":{"ha":836,"x_min":67,"x_max":831,"o":"m 729 917 q 810 893 789 917 q 831 836 831 869 q 830 826 831 832 q 827 806 829 821 q 820 763 825 792 q 807 688 815 735 l 765 688 q 769 733 769 713 q 731 826 769 797 q 621 854 693 854 l 397 854 l 336 507 l 697 507 l 686 444 l 325 444 l 257 63 l 494 63 q 631 97 571 63 q 743 221 690 131 l 778 207 l 718 97 q 666 26 694 53 q 581 0 638 0 l 247 0 l 67 0 q 123 322 100 190 q 161 540 146 453 q 185 677 176 628 q 197 752 193 726 q 202 786 201 778 q 203 799 203 794 q 185 855 203 835 q 124 875 168 875 l 110 875 l 117 917 l 729 917 m 500 1106 q 473 1042 500 1069 q 407 1014 446 1014 q 358 1031 375 1014 q 342 1075 342 1049 q 368 1140 342 1111 q 435 1169 394 1169 q 483 1151 467 1169 q 500 1106 500 1133 m 750 1106 q 723 1042 750 1069 q 657 1014 696 1014 q 608 1031 625 1014 q 592 1075 592 1049 q 618 1140 592 1111 q 685 1169 644 1169 q 733 1151 717 1169 q 750 1106 750 1133 z "},"Ì":{"ha":426,"x_min":67,"x_max":386,"o":"m 206 917 l 386 917 l 256 181 q 251 149 253 164 q 250 121 250 135 q 267 63 250 85 q 329 42 283 42 l 343 42 l 336 0 l 169 0 q 90 21 114 0 q 67 96 67 42 q 75 181 67 131 l 206 917 m 169 1167 l 335 1167 l 358 972 l 282 972 l 169 1167 z "},"Í":{"ha":426,"x_min":67,"x_max":519,"o":"m 206 917 l 386 917 l 256 181 q 251 149 253 164 q 250 121 250 135 q 267 63 250 85 q 329 42 283 42 l 343 42 l 336 0 l 169 0 q 90 21 114 0 q 67 96 67 42 q 75 181 67 131 l 206 917 m 338 972 l 261 972 l 354 1167 l 519 1167 l 338 972 z "},"Î":{"ha":426,"x_min":67,"x_max":504,"o":"m 206 917 l 386 917 l 256 181 q 251 149 253 164 q 250 121 250 135 q 267 63 250 85 q 329 42 283 42 l 343 42 l 336 0 l 169 0 q 90 21 114 0 q 67 96 67 42 q 75 181 67 131 l 206 917 m 322 1063 l 185 951 l 101 951 l 243 1125 l 424 1125 l 504 951 l 421 951 l 322 1063 z "},"Ï":{"ha":426,"x_min":67,"x_max":519,"o":"m 206 917 l 386 917 l 256 181 q 251 149 253 164 q 250 121 250 135 q 267 63 250 85 q 329 42 283 42 l 343 42 l 336 0 l 169 0 q 90 21 114 0 q 67 96 67 42 q 75 181 67 131 l 206 917 m 519 1088 q 493 1022 519 1051 q 426 993 467 993 q 378 1011 394 993 q 361 1057 361 1029 q 388 1121 361 1093 q 454 1149 415 1149 q 503 1131 486 1149 q 519 1088 519 1114 m 283 1088 q 257 1022 283 1051 q 190 993 231 993 q 142 1011 158 993 q 125 1057 125 1029 q 152 1121 125 1093 q 218 1149 179 1149 q 267 1131 250 1149 q 283 1088 283 1114 z "},"Ð":{"ha":1024,"x_min":43,"x_max":996,"o":"m 494 917 q 871 822 746 917 q 996 558 996 726 q 947 330 996 433 q 814 153 899 226 q 615 40 729 81 q 369 0 500 0 l 247 0 l 67 0 l 140 424 l 43 424 l 56 493 l 153 493 q 181 651 171 593 q 195 739 190 708 q 201 781 200 769 q 203 799 203 792 q 185 855 203 835 q 124 875 168 875 l 110 875 l 117 917 l 494 917 m 503 861 q 463 860 482 861 q 429 856 444 858 q 397 851 413 853 l 333 493 l 438 493 l 425 424 l 321 424 l 258 65 q 289 60 272 63 q 322 56 303 57 q 361 56 340 56 l 375 56 q 547 101 471 56 q 678 217 624 146 q 760 379 732 289 q 789 560 789 469 q 716 780 789 699 q 514 861 643 861 l 503 861 z "},"Ñ":{"ha":965,"x_min":71,"x_max":954,"o":"m 772 278 l 885 917 l 954 917 l 792 -4 l 728 -4 l 261 688 l 140 0 l 71 0 q 128 322 104 190 q 166 540 151 454 q 189 675 181 626 q 201 747 197 724 q 206 777 206 771 q 207 786 207 783 q 183 850 207 825 q 100 875 160 875 l 93 875 l 100 917 l 197 917 q 322 896 276 917 q 392 833 367 875 l 772 278 m 432 964 q 478 1075 447 1047 q 551 1103 510 1103 q 591 1094 575 1103 q 619 1074 607 1085 q 644 1056 632 1064 q 669 1047 656 1047 q 709 1065 693 1047 q 728 1103 725 1082 l 783 1103 q 738 992 768 1019 q 665 964 707 964 q 626 972 642 964 q 597 991 610 981 q 572 1010 583 1001 q 546 1019 560 1019 q 507 1002 522 1019 q 488 964 492 985 l 432 964 z "},"Ò":{"ha":1021,"x_min":56,"x_max":990,"o":"m 449 35 q 565 63 514 35 q 656 136 617 90 q 724 241 696 182 q 769 364 751 300 q 794 491 786 428 q 803 608 803 554 q 750 811 803 740 q 597 882 697 882 q 482 854 533 882 q 391 780 431 826 q 324 674 351 733 q 278 550 296 614 q 253 423 261 486 q 244 307 244 360 q 297 106 244 176 q 449 35 349 35 m 56 356 q 96 569 56 464 q 209 758 136 675 q 384 893 282 842 q 608 944 486 944 q 769 916 699 944 q 890 837 840 888 q 965 715 939 786 q 990 561 990 644 q 950 347 990 453 q 837 158 910 242 q 662 24 764 75 q 438 -28 560 -28 q 276 1 347 -28 q 156 80 206 29 q 81 201 107 131 q 56 356 56 272 m 475 1200 l 640 1200 l 664 1006 l 588 1006 l 475 1200 z "},"Ó":{"ha":1021,"x_min":56,"x_max":990,"o":"m 449 35 q 565 63 514 35 q 656 136 617 90 q 724 241 696 182 q 769 364 751 300 q 794 491 786 428 q 803 608 803 554 q 750 811 803 740 q 597 882 697 882 q 482 854 533 882 q 391 780 431 826 q 324 674 351 733 q 278 550 296 614 q 253 423 261 486 q 244 307 244 360 q 297 106 244 176 q 449 35 349 35 m 56 356 q 96 569 56 464 q 209 758 136 675 q 384 893 282 842 q 608 944 486 944 q 769 916 699 944 q 890 837 840 888 q 965 715 939 786 q 990 561 990 644 q 950 347 990 453 q 837 158 910 242 q 662 24 764 75 q 438 -28 560 -28 q 276 1 347 -28 q 156 80 206 29 q 81 201 107 131 q 56 356 56 272 m 656 1006 l 579 1006 l 672 1200 l 838 1200 l 656 1006 z "},"Ô":{"ha":1021,"x_min":56,"x_max":990,"o":"m 449 35 q 565 63 514 35 q 656 136 617 90 q 724 241 696 182 q 769 364 751 300 q 794 491 786 428 q 803 608 803 554 q 750 811 803 740 q 597 882 697 882 q 482 854 533 882 q 391 780 431 826 q 324 674 351 733 q 278 550 296 614 q 253 423 261 486 q 244 307 244 360 q 297 106 244 176 q 449 35 349 35 m 56 356 q 96 569 56 464 q 209 758 136 675 q 384 893 282 842 q 608 944 486 944 q 769 916 699 944 q 890 837 840 888 q 965 715 939 786 q 990 561 990 644 q 950 347 990 453 q 837 158 910 242 q 662 24 764 75 q 438 -28 560 -28 q 276 1 347 -28 q 156 80 206 29 q 81 201 107 131 q 56 356 56 272 m 647 1125 l 510 1014 l 426 1014 l 568 1188 l 749 1188 l 829 1014 l 746 1014 l 647 1125 z "},"Õ":{"ha":1021,"x_min":56,"x_max":990,"o":"m 449 35 q 565 63 514 35 q 656 136 617 90 q 724 241 696 182 q 769 364 751 300 q 794 491 786 428 q 803 608 803 554 q 750 811 803 740 q 597 882 697 882 q 482 854 533 882 q 391 780 431 826 q 324 674 351 733 q 278 550 296 614 q 253 423 261 486 q 244 307 244 360 q 297 106 244 176 q 449 35 349 35 m 56 356 q 96 569 56 464 q 209 758 136 675 q 384 893 282 842 q 608 944 486 944 q 769 916 699 944 q 890 837 840 888 q 965 715 939 786 q 990 561 990 644 q 950 347 990 453 q 837 158 910 242 q 662 24 764 75 q 438 -28 560 -28 q 276 1 347 -28 q 156 80 206 29 q 81 201 107 131 q 56 356 56 272 m 460 1025 q 506 1136 475 1108 q 579 1164 538 1164 q 619 1155 603 1164 q 647 1135 635 1146 q 672 1117 660 1125 q 697 1108 683 1108 q 737 1126 721 1108 q 756 1164 753 1143 l 811 1164 q 765 1053 796 1081 q 693 1025 735 1025 q 653 1033 669 1025 q 624 1052 638 1042 q 599 1072 611 1063 q 574 1081 588 1081 q 535 1063 550 1081 q 515 1025 519 1046 l 460 1025 z "},"Ö":{"ha":1021,"x_min":56,"x_max":990,"o":"m 449 35 q 565 63 514 35 q 656 136 617 90 q 724 241 696 182 q 769 364 751 300 q 794 491 786 428 q 803 608 803 554 q 750 811 803 740 q 597 882 697 882 q 482 854 533 882 q 391 780 431 826 q 324 674 351 733 q 278 550 296 614 q 253 423 261 486 q 244 307 244 360 q 297 106 244 176 q 449 35 349 35 m 56 356 q 96 569 56 464 q 209 758 136 675 q 384 893 282 842 q 608 944 486 944 q 769 916 699 944 q 890 837 840 888 q 965 715 939 786 q 990 561 990 644 q 950 347 990 453 q 837 158 910 242 q 662 24 764 75 q 438 -28 560 -28 q 276 1 347 -28 q 156 80 206 29 q 81 201 107 131 q 56 356 56 272 m 590 1113 q 563 1049 590 1076 q 497 1021 536 1021 q 449 1038 465 1021 q 432 1082 432 1056 q 458 1147 432 1118 q 525 1176 485 1176 q 574 1158 557 1176 q 590 1113 590 1140 m 840 1113 q 813 1049 840 1076 q 747 1021 786 1021 q 699 1038 715 1021 q 682 1082 682 1056 q 708 1147 682 1118 q 775 1176 735 1176 q 824 1158 807 1176 q 840 1113 840 1140 z "},"×":{"ha":681,"x_min":39,"x_max":671,"o":"m 339 376 l 111 183 l 39 271 l 265 464 l 108 656 l 213 744 l 371 553 l 597 746 l 671 658 l 442 464 l 600 272 l 496 185 l 339 376 z "},"Ø":{"ha":1019,"x_min":56,"x_max":989,"o":"m 76 -28 l 157 78 q 81 198 107 128 q 56 353 56 268 q 96 567 56 461 q 209 757 136 674 q 383 892 282 840 q 608 944 485 944 q 800 901 717 944 l 832 944 l 960 944 l 882 843 q 962 719 935 792 q 989 560 989 647 q 949 347 989 451 q 835 158 908 242 q 661 24 763 75 q 438 -28 560 -28 q 330 -16 379 -28 q 240 18 281 -4 l 204 -28 l 76 -28 m 449 35 q 565 63 514 35 q 656 136 617 90 q 724 242 696 182 q 769 365 751 301 q 794 491 786 428 q 803 608 803 554 q 790 725 803 675 l 301 97 q 449 35 353 35 m 597 882 q 481 854 532 882 q 390 780 429 826 q 324 673 351 733 q 278 548 296 613 q 253 419 261 483 q 244 303 244 356 q 247 250 244 275 q 254 201 250 225 l 739 824 q 597 882 685 882 z "},"Ù":{"ha":968,"x_min":119,"x_max":967,"o":"m 372 736 q 342 556 354 631 q 321 428 329 481 q 307 344 313 376 q 299 292 301 311 q 297 261 297 272 q 296 242 296 250 q 335 94 296 146 q 461 42 374 42 q 595 63 538 42 q 694 128 653 85 q 763 240 736 172 q 806 400 789 307 l 897 917 l 967 917 l 875 400 q 826 225 858 301 q 742 95 794 149 q 615 14 690 42 q 435 -14 539 -14 q 195 57 271 -14 q 119 271 119 128 q 121 306 119 285 q 130 374 122 326 q 152 507 138 422 q 192 736 167 592 q 199 799 199 775 q 181 855 199 835 q 119 875 164 875 l 126 917 l 279 917 q 358 897 333 917 q 382 824 382 876 q 372 736 382 785 m 499 1139 l 664 1139 l 688 944 l 611 944 l 499 1139 z "},"Ú":{"ha":968,"x_min":119,"x_max":967,"o":"m 372 736 q 342 556 354 631 q 321 428 329 481 q 307 344 313 376 q 299 292 301 311 q 297 261 297 272 q 296 242 296 250 q 335 94 296 146 q 461 42 374 42 q 595 63 538 42 q 694 128 653 85 q 763 240 736 172 q 806 400 789 307 l 897 917 l 967 917 l 875 400 q 826 225 858 301 q 742 95 794 149 q 615 14 690 42 q 435 -14 539 -14 q 195 57 271 -14 q 119 271 119 128 q 121 306 119 285 q 130 374 122 326 q 152 507 138 422 q 192 736 167 592 q 199 799 199 775 q 181 855 199 835 q 119 875 164 875 l 126 917 l 279 917 q 358 897 333 917 q 382 824 382 876 q 372 736 382 785 m 644 946 l 568 946 l 661 1140 l 826 1140 l 644 946 z "},"Û":{"ha":968,"x_min":119,"x_max":967,"o":"m 372 736 q 342 556 354 631 q 321 428 329 481 q 307 344 313 376 q 299 292 301 311 q 297 261 297 272 q 296 242 296 250 q 335 94 296 146 q 461 42 374 42 q 595 63 538 42 q 694 128 653 85 q 763 240 736 172 q 806 400 789 307 l 897 917 l 967 917 l 875 400 q 826 225 858 301 q 742 95 794 149 q 615 14 690 42 q 435 -14 539 -14 q 195 57 271 -14 q 119 271 119 128 q 121 306 119 285 q 130 374 122 326 q 152 507 138 422 q 192 736 167 592 q 199 799 199 775 q 181 855 199 835 q 119 875 164 875 l 126 917 l 279 917 q 358 897 333 917 q 382 824 382 876 q 372 736 382 785 m 658 1057 l 521 946 l 438 946 l 579 1119 l 760 1119 l 840 946 l 757 946 l 658 1057 z "},"Ü":{"ha":968,"x_min":119,"x_max":967,"o":"m 372 736 q 342 556 354 631 q 321 428 329 481 q 307 344 313 376 q 299 292 301 311 q 297 261 297 272 q 296 242 296 250 q 335 94 296 146 q 461 42 374 42 q 595 63 538 42 q 694 128 653 85 q 763 240 736 172 q 806 400 789 307 l 897 917 l 967 917 l 875 400 q 826 225 858 301 q 742 95 794 149 q 615 14 690 42 q 435 -14 539 -14 q 195 57 271 -14 q 119 271 119 128 q 121 306 119 285 q 130 374 122 326 q 152 507 138 422 q 192 736 167 592 q 199 799 199 775 q 181 855 199 835 q 119 875 164 875 l 126 917 l 279 917 q 358 897 333 917 q 382 824 382 876 q 372 736 382 785 m 597 1036 q 570 972 597 1000 q 504 944 543 944 q 456 962 472 944 q 439 1006 439 979 q 465 1071 439 1042 q 532 1100 492 1100 q 581 1082 564 1100 q 597 1036 597 1064 m 847 1036 q 820 972 847 1000 q 754 944 793 944 q 706 962 722 944 q 689 1006 689 979 q 715 1071 689 1042 q 782 1100 742 1100 q 831 1082 814 1100 q 847 1036 847 1064 z "},"Ý":{"ha":888,"x_min":40,"x_max":972,"o":"m 535 479 l 882 917 l 972 917 l 567 404 l 496 0 l 315 0 l 379 367 l 199 736 q 168 789 186 763 q 129 837 150 815 q 85 872 108 858 q 40 889 63 886 l 46 917 l 197 917 q 267 903 236 917 q 323 867 299 889 q 365 817 347 844 q 396 764 383 790 l 535 479 m 608 932 l 532 932 l 625 1126 l 790 1126 l 608 932 z "},"Þ":{"ha":774,"x_min":63,"x_max":764,"o":"m 385 764 q 764 504 764 756 q 724 328 764 400 q 616 209 683 256 q 459 140 549 163 q 271 111 369 117 l 243 -42 l 63 -42 q 126 315 100 169 q 168 558 151 461 q 194 709 185 654 q 208 791 203 764 q 213 827 213 818 q 214 840 214 836 q 197 897 214 876 q 135 917 179 917 l 121 917 l 128 958 l 294 958 q 373 938 349 958 q 397 865 397 918 q 394 824 397 847 q 385 764 392 800 m 282 174 q 401 206 349 179 q 492 276 454 232 q 549 377 529 319 q 569 504 569 435 q 522 642 569 590 q 374 700 475 693 l 282 174 z "},"ß":{"ha":797,"x_min":17,"x_max":736,"o":"m 342 456 q 356 523 342 493 q 393 578 371 553 q 442 626 415 603 q 490 674 468 649 q 527 726 513 699 q 542 790 542 754 q 519 849 542 829 q 461 868 497 868 q 376 831 414 868 q 319 694 338 793 l 197 0 l 17 0 l 139 694 q 182 813 151 767 q 257 885 213 860 q 358 921 301 911 q 479 931 414 931 q 663 898 606 931 q 719 811 719 865 q 703 736 719 768 q 661 678 686 704 q 607 632 636 653 q 553 590 578 611 q 511 547 528 569 q 494 494 494 524 q 513 439 494 463 q 557 394 531 415 q 615 355 583 374 q 674 313 647 336 q 718 262 700 290 q 736 194 736 233 q 710 104 736 143 q 645 39 685 65 q 556 -1 606 13 q 458 -14 506 -14 q 397 -9 429 -14 q 338 10 365 -4 q 293 47 311 24 q 275 107 275 71 q 277 139 275 124 q 282 167 279 154 l 324 167 l 324 161 q 331 120 324 140 q 352 84 338 100 q 389 58 367 68 q 442 49 411 49 q 521 79 486 49 q 556 161 556 110 q 540 215 556 192 q 500 260 524 239 q 449 299 476 281 q 397 340 421 318 q 358 390 374 363 q 342 456 342 418 z "},"à":{"ha":764,"x_min":33,"x_max":725,"o":"m 411 604 q 347 582 375 604 q 297 525 318 560 q 260 446 275 490 q 235 356 244 401 q 221 270 225 311 q 217 200 217 229 q 239 91 217 133 q 314 49 261 49 q 371 63 346 49 q 415 93 396 76 q 454 139 438 113 l 521 514 q 497 558 513 539 q 464 590 485 575 q 411 604 443 604 m 394 667 q 464 655 436 667 q 508 628 492 643 q 540 590 528 611 l 547 590 l 607 653 l 725 653 l 635 139 l 611 0 l 493 0 l 454 63 l 447 63 q 403 24 428 40 q 349 -3 381 8 q 275 -14 317 -14 q 167 6 213 -14 q 92 58 122 25 q 48 138 63 92 q 33 236 33 183 q 58 385 33 308 q 128 524 82 461 q 241 626 174 586 q 394 667 308 667 m 303 924 l 468 924 l 492 729 l 415 729 l 303 924 z "},"á":{"ha":764,"x_min":33,"x_max":725,"o":"m 411 604 q 347 582 375 604 q 297 525 318 560 q 260 446 275 490 q 235 356 244 401 q 221 270 225 311 q 217 200 217 229 q 239 91 217 133 q 314 49 261 49 q 371 63 346 49 q 415 93 396 76 q 454 139 438 113 l 521 514 q 497 558 513 539 q 464 590 485 575 q 411 604 443 604 m 394 667 q 464 655 436 667 q 508 628 492 643 q 540 590 528 611 l 547 590 l 607 653 l 725 653 l 635 139 l 611 0 l 493 0 l 454 63 l 447 63 q 403 24 428 40 q 349 -3 381 8 q 275 -14 317 -14 q 167 6 213 -14 q 92 58 122 25 q 48 138 63 92 q 33 236 33 183 q 58 385 33 308 q 128 524 82 461 q 241 626 174 586 q 394 667 308 667 m 479 731 l 403 731 l 496 925 l 661 925 l 479 731 z "},"â":{"ha":764,"x_min":33,"x_max":725,"o":"m 411 604 q 347 582 375 604 q 297 525 318 560 q 260 446 275 490 q 235 356 244 401 q 221 270 225 311 q 217 200 217 229 q 239 91 217 133 q 314 49 261 49 q 371 63 346 49 q 415 93 396 76 q 454 139 438 113 l 521 514 q 497 558 513 539 q 464 590 485 575 q 411 604 443 604 m 394 667 q 464 655 436 667 q 508 628 492 643 q 540 590 528 611 l 547 590 l 607 653 l 725 653 l 635 139 l 611 0 l 493 0 l 454 63 l 447 63 q 403 24 428 40 q 349 -3 381 8 q 275 -14 317 -14 q 167 6 213 -14 q 92 58 122 25 q 48 138 63 92 q 33 236 33 183 q 58 385 33 308 q 128 524 82 461 q 241 626 174 586 q 394 667 308 667 m 463 849 l 325 738 l 242 738 l 383 911 l 564 911 l 644 738 l 561 738 l 463 849 z "},"ã":{"ha":764,"x_min":33,"x_max":725,"o":"m 411 604 q 347 582 375 604 q 297 525 318 560 q 260 446 275 490 q 235 356 244 401 q 221 270 225 311 q 217 200 217 229 q 239 91 217 133 q 314 49 261 49 q 371 63 346 49 q 415 93 396 76 q 454 139 438 113 l 521 514 q 497 558 513 539 q 464 590 485 575 q 411 604 443 604 m 394 667 q 464 655 436 667 q 508 628 492 643 q 540 590 528 611 l 547 590 l 607 653 l 725 653 l 635 139 l 611 0 l 493 0 l 454 63 l 447 63 q 403 24 428 40 q 349 -3 381 8 q 275 -14 317 -14 q 167 6 213 -14 q 92 58 122 25 q 48 138 63 92 q 33 236 33 183 q 58 385 33 308 q 128 524 82 461 q 241 626 174 586 q 394 667 308 667 m 303 744 q 349 856 318 828 q 422 883 381 883 q 462 874 446 883 q 490 855 478 865 q 515 836 503 844 q 540 828 526 828 q 580 845 564 828 q 599 883 596 863 l 654 883 q 608 772 639 800 q 536 744 578 744 q 497 753 513 744 q 467 772 481 761 q 442 791 454 782 q 417 800 431 800 q 378 783 393 800 q 358 744 363 765 l 303 744 z "},"ä":{"ha":764,"x_min":33,"x_max":725,"o":"m 411 604 q 347 582 375 604 q 297 525 318 560 q 260 446 275 490 q 235 356 244 401 q 221 270 225 311 q 217 200 217 229 q 239 91 217 133 q 314 49 261 49 q 371 63 346 49 q 415 93 396 76 q 454 139 438 113 l 521 514 q 497 558 513 539 q 464 590 485 575 q 411 604 443 604 m 394 667 q 464 655 436 667 q 508 628 492 643 q 540 590 528 611 l 547 590 l 607 653 l 725 653 l 635 139 l 611 0 l 493 0 l 454 63 l 447 63 q 403 24 428 40 q 349 -3 381 8 q 275 -14 317 -14 q 167 6 213 -14 q 92 58 122 25 q 48 138 63 92 q 33 236 33 183 q 58 385 33 308 q 128 524 82 461 q 241 626 174 586 q 394 667 308 667 m 411 835 q 384 771 411 799 q 318 743 357 743 q 269 760 286 743 q 253 804 253 778 q 279 869 253 840 q 346 899 306 899 q 394 881 378 899 q 411 835 411 863 m 661 835 q 634 771 661 799 q 568 743 607 743 q 519 760 536 743 q 503 804 503 778 q 529 869 503 840 q 596 899 556 899 q 644 881 628 899 q 661 835 661 863 z "},"å":{"ha":764,"x_min":33,"x_max":725,"o":"m 411 604 q 347 582 375 604 q 297 525 318 560 q 260 446 275 490 q 235 356 244 401 q 221 270 225 311 q 217 200 217 229 q 239 91 217 133 q 314 49 261 49 q 371 63 346 49 q 415 93 396 76 q 454 139 438 113 l 521 514 q 497 558 513 539 q 464 590 485 575 q 411 604 443 604 m 394 667 q 464 655 436 667 q 508 628 492 643 q 540 590 528 611 l 547 590 l 607 653 l 725 653 l 635 139 l 611 0 l 493 0 l 454 63 l 447 63 q 403 24 428 40 q 349 -3 381 8 q 275 -14 317 -14 q 167 6 213 -14 q 92 58 122 25 q 48 138 63 92 q 33 236 33 183 q 58 385 33 308 q 128 524 82 461 q 241 626 174 586 q 394 667 308 667 m 349 828 q 361 887 349 858 q 394 938 374 915 q 444 973 415 960 q 507 986 474 986 q 588 957 557 986 q 618 881 618 928 q 606 822 618 850 q 572 771 593 793 q 522 735 551 749 q 460 722 493 722 q 379 751 410 722 q 349 828 349 781 m 471 785 q 525 810 503 785 q 547 869 547 835 q 533 909 547 894 q 496 924 519 924 q 442 899 464 924 q 419 839 419 874 q 433 799 419 814 q 471 785 447 785 z "},"æ":{"ha":1100,"x_min":0,"x_max":1071,"o":"m 778 354 q 862 396 833 354 q 890 496 890 438 q 865 577 890 550 q 808 604 840 604 q 756 590 782 604 q 706 547 729 576 q 663 469 682 517 q 632 354 644 422 l 778 354 m 429 301 l 408 301 q 327 295 367 301 q 256 271 288 289 q 206 221 225 253 q 188 139 188 189 q 206 79 188 103 q 261 56 225 56 q 321 69 294 56 q 365 100 347 83 q 401 146 386 119 l 429 301 m 622 292 l 621 288 q 613 201 613 239 q 645 84 613 119 q 732 49 678 49 q 855 82 804 49 q 950 164 906 115 l 988 132 q 942 83 968 108 q 882 35 917 57 q 802 0 847 14 q 700 -14 757 -14 q 486 111 546 -14 q 444 65 469 88 q 386 25 419 43 q 312 -3 353 7 q 221 -14 271 -14 q 54 27 108 -14 q 0 135 0 68 q 41 255 0 210 q 144 324 82 300 q 281 356 207 349 q 419 364 354 364 l 440 364 q 450 464 450 417 q 423 571 450 538 q 343 604 396 604 q 297 599 319 604 q 254 581 275 594 q 215 542 233 567 q 182 479 197 518 l 106 479 q 124 553 113 515 q 165 618 135 590 q 203 641 181 632 q 251 656 225 650 q 304 664 278 661 q 354 667 331 667 q 499 633 443 667 q 575 540 554 599 q 690 635 626 604 q 819 667 753 667 q 1006 620 942 667 q 1071 494 1071 574 q 1045 393 1071 432 q 977 331 1019 354 q 881 300 935 308 q 768 292 826 292 l 622 292 z "},"ç":{"ha":692,"x_min":35,"x_max":660,"o":"m 444 604 q 339 563 382 604 q 269 463 296 522 q 230 336 242 403 q 218 218 218 269 q 354 49 218 49 q 477 82 426 49 q 572 164 528 115 l 610 132 q 567 85 592 110 q 511 40 543 61 q 438 5 479 19 q 342 -12 396 -10 l 336 -44 q 411 -67 383 -44 q 439 -131 439 -90 q 428 -181 439 -157 q 398 -222 417 -204 q 353 -251 379 -240 q 297 -261 328 -261 l 214 -261 l 225 -197 l 281 -197 q 324 -183 307 -197 q 344 -146 342 -169 q 333 -118 344 -129 q 297 -107 321 -107 l 243 -107 l 260 -10 q 90 76 144 6 q 35 250 35 147 q 63 404 35 329 q 144 538 92 479 q 271 631 197 596 q 435 667 344 667 q 503 665 464 667 q 576 652 542 663 q 635 619 611 642 q 660 556 660 597 q 655 499 660 532 q 642 424 650 467 l 600 424 q 601 440 601 432 q 601 457 601 449 q 560 567 601 531 q 444 604 519 604 z "},"è":{"ha":706,"x_min":35,"x_max":681,"o":"m 378 340 q 427 356 406 340 q 463 394 449 371 q 485 447 478 418 q 493 503 493 475 q 467 580 493 556 q 410 604 442 604 q 354 591 381 604 q 305 547 328 578 q 263 465 282 515 q 232 340 244 415 l 378 340 m 681 497 q 653 396 681 438 q 580 328 625 354 q 478 290 535 301 q 367 278 422 278 l 221 278 q 213 200 213 233 q 245 86 213 124 q 333 49 278 49 q 456 82 406 49 q 551 164 507 115 l 589 132 q 544 83 569 108 q 483 35 518 57 q 403 0 449 14 q 301 -14 358 -14 q 188 6 238 -14 q 105 60 139 25 q 53 145 71 96 q 35 253 35 194 q 62 406 35 332 q 139 538 89 481 q 260 631 189 596 q 421 667 332 667 q 613 622 544 667 q 681 497 681 576 m 269 924 l 435 924 l 458 729 l 382 729 l 269 924 z "},"é":{"ha":706,"x_min":35,"x_max":681,"o":"m 378 340 q 427 356 406 340 q 463 394 449 371 q 485 447 478 418 q 493 503 493 475 q 467 580 493 556 q 410 604 442 604 q 354 591 381 604 q 305 547 328 578 q 263 465 282 515 q 232 340 244 415 l 378 340 m 681 497 q 653 396 681 438 q 580 328 625 354 q 478 290 535 301 q 367 278 422 278 l 221 278 q 213 200 213 233 q 245 86 213 124 q 333 49 278 49 q 456 82 406 49 q 551 164 507 115 l 589 132 q 544 83 569 108 q 483 35 518 57 q 403 0 449 14 q 301 -14 358 -14 q 188 6 238 -14 q 105 60 139 25 q 53 145 71 96 q 35 253 35 194 q 62 406 35 332 q 139 538 89 481 q 260 631 189 596 q 421 667 332 667 q 613 622 544 667 q 681 497 681 576 m 457 731 l 381 731 l 474 925 l 639 925 l 457 731 z "},"ê":{"ha":706,"x_min":35,"x_max":681,"o":"m 378 340 q 427 356 406 340 q 463 394 449 371 q 485 447 478 418 q 493 503 493 475 q 467 580 493 556 q 410 604 442 604 q 354 591 381 604 q 305 547 328 578 q 263 465 282 515 q 232 340 244 415 l 378 340 m 681 497 q 653 396 681 438 q 580 328 625 354 q 478 290 535 301 q 367 278 422 278 l 221 278 q 213 200 213 233 q 245 86 213 124 q 333 49 278 49 q 456 82 406 49 q 551 164 507 115 l 589 132 q 544 83 569 108 q 483 35 518 57 q 403 0 449 14 q 301 -14 358 -14 q 188 6 238 -14 q 105 60 139 25 q 53 145 71 96 q 35 253 35 194 q 62 406 35 332 q 139 538 89 481 q 260 631 189 596 q 421 667 332 667 q 613 622 544 667 q 681 497 681 576 m 460 842 l 322 731 l 239 731 l 381 904 l 561 904 l 642 731 l 558 731 l 460 842 z "},"ë":{"ha":706,"x_min":35,"x_max":681,"o":"m 378 340 q 427 356 406 340 q 463 394 449 371 q 485 447 478 418 q 493 503 493 475 q 467 580 493 556 q 410 604 442 604 q 354 591 381 604 q 305 547 328 578 q 263 465 282 515 q 232 340 244 415 l 378 340 m 681 497 q 653 396 681 438 q 580 328 625 354 q 478 290 535 301 q 367 278 422 278 l 221 278 q 213 200 213 233 q 245 86 213 124 q 333 49 278 49 q 456 82 406 49 q 551 164 507 115 l 589 132 q 544 83 569 108 q 483 35 518 57 q 403 0 449 14 q 301 -14 358 -14 q 188 6 238 -14 q 105 60 139 25 q 53 145 71 96 q 35 253 35 194 q 62 406 35 332 q 139 538 89 481 q 260 631 189 596 q 421 667 332 667 q 613 622 544 667 q 681 497 681 576 m 396 835 q 369 771 396 799 q 303 743 342 743 q 254 760 271 743 q 238 804 238 778 q 264 869 238 840 q 331 899 290 899 q 379 881 363 899 q 396 835 396 863 m 646 835 q 619 771 646 799 q 553 743 592 743 q 504 760 521 743 q 488 804 488 778 q 514 869 488 840 q 581 899 540 899 q 629 881 613 899 q 646 835 646 863 z "},"ì":{"ha":376,"x_min":42,"x_max":318,"o":"m 46 0 q 82 210 67 124 q 107 355 97 297 q 122 447 117 413 q 131 499 128 481 q 134 524 133 517 q 135 535 135 531 q 117 591 135 571 q 56 611 100 611 l 42 611 l 49 653 l 215 653 q 294 633 269 653 q 318 560 318 613 q 317 545 318 554 q 314 517 317 536 q 305 461 311 497 q 289 365 299 425 q 264 216 279 306 q 226 0 249 126 l 46 0 m 113 924 l 278 924 l 301 729 l 225 729 l 113 924 z "},"í":{"ha":376,"x_min":42,"x_max":454,"o":"m 46 0 q 82 210 67 124 q 107 355 97 297 q 122 447 117 413 q 131 499 128 481 q 134 524 133 517 q 135 535 135 531 q 117 591 135 571 q 56 611 100 611 l 42 611 l 49 653 l 215 653 q 294 633 269 653 q 318 560 318 613 q 317 545 318 554 q 314 517 317 536 q 305 461 311 497 q 289 365 299 425 q 264 216 279 306 q 226 0 249 126 l 46 0 m 272 731 l 196 731 l 289 925 l 454 925 l 272 731 z "},"î":{"ha":376,"x_min":42,"x_max":454,"o":"m 46 0 q 82 210 67 124 q 107 355 97 297 q 122 447 117 413 q 131 499 128 481 q 134 524 133 517 q 135 535 135 531 q 117 591 135 571 q 56 611 100 611 l 42 611 l 49 653 l 215 653 q 294 633 269 653 q 318 560 318 613 q 317 545 318 554 q 314 517 317 536 q 305 461 311 497 q 289 365 299 425 q 264 216 279 306 q 226 0 249 126 l 46 0 m 272 850 l 135 739 l 51 739 l 193 913 l 374 913 l 454 739 l 371 739 l 272 850 z "},"ï":{"ha":376,"x_min":42,"x_max":504,"o":"m 247 842 q 223 773 247 804 q 156 742 199 742 q 90 766 111 742 q 68 825 68 790 q 92 894 68 863 q 160 925 117 925 q 226 901 204 925 q 247 842 247 876 m 504 842 q 480 773 504 804 q 413 742 456 742 q 347 766 368 742 q 325 825 325 790 q 349 894 325 863 q 417 925 374 925 q 483 901 461 925 q 504 842 504 876 m 46 0 q 82 210 67 124 q 107 355 97 297 q 122 447 117 413 q 131 499 128 481 q 134 524 133 517 q 135 535 135 531 q 117 591 135 571 q 56 611 100 611 l 42 611 l 49 653 l 215 653 q 294 633 269 653 q 318 560 318 613 q 317 545 318 554 q 314 517 317 536 q 305 461 311 497 q 289 365 299 425 q 264 216 279 306 q 226 0 249 126 l 46 0 z "},"ð":{"ha":775,"x_min":33,"x_max":728,"o":"m 594 556 q 579 678 592 626 q 540 771 567 731 l 464 706 l 418 761 l 494 826 q 434 861 471 854 q 358 868 397 868 q 329 866 343 868 q 304 861 315 864 q 282 856 292 858 l 271 900 q 335 923 299 915 q 397 931 371 931 q 496 917 457 931 q 565 881 535 904 l 636 944 l 683 892 l 614 833 q 697 697 665 781 q 728 506 728 614 q 704 324 728 417 q 631 157 681 232 q 502 34 581 82 q 314 -14 424 -14 q 189 6 242 -14 q 101 62 136 26 q 50 145 67 97 q 33 250 33 193 q 60 401 33 326 q 138 535 88 476 q 260 631 189 594 q 419 667 332 667 q 533 638 488 667 q 594 556 578 608 m 325 49 q 418 91 379 49 q 482 194 457 133 q 518 319 507 254 q 529 428 529 383 q 524 496 529 464 q 505 552 518 528 q 472 590 492 576 q 422 604 451 604 q 329 561 368 604 q 265 458 290 518 q 229 332 240 397 q 218 222 218 267 q 249 92 218 135 q 325 49 279 49 z "},"ñ":{"ha":801,"x_min":42,"x_max":735,"o":"m 447 597 q 368 585 403 597 q 313 554 333 572 q 310 481 317 514 l 225 0 l 44 0 l 126 472 q 133 538 133 511 q 117 592 133 572 q 56 611 100 611 l 42 611 l 49 653 l 186 653 q 258 641 233 653 q 294 601 283 629 q 373 646 322 625 q 508 667 424 667 q 678 623 621 667 q 735 483 735 579 q 733 449 735 467 q 728 411 731 431 l 656 0 l 475 0 l 547 413 q 553 476 553 444 q 524 570 553 543 q 447 597 494 597 m 313 756 q 359 867 328 839 q 432 894 390 894 q 472 885 456 894 q 500 866 488 876 q 524 847 513 856 q 550 839 536 839 q 590 856 574 839 q 608 894 606 874 l 664 894 q 618 783 649 811 q 546 756 588 756 q 506 764 522 756 q 477 783 490 772 q 452 802 464 793 q 426 811 440 811 q 388 794 403 811 q 368 756 372 776 l 313 756 z "},"ò":{"ha":768,"x_min":33,"x_max":714,"o":"m 325 49 q 421 92 382 49 q 484 195 460 135 q 519 322 508 256 q 529 435 529 389 q 503 558 529 513 q 422 604 478 604 q 326 561 365 604 q 263 458 288 518 q 228 331 239 397 q 218 218 218 264 q 244 94 218 140 q 325 49 269 49 m 33 256 q 63 408 33 333 q 147 540 93 482 q 273 632 200 597 q 433 667 346 667 q 554 647 501 667 q 642 590 607 626 q 696 505 678 554 q 714 397 714 456 q 684 245 714 319 q 601 113 654 171 q 474 21 547 56 q 314 -14 401 -14 q 193 6 246 -14 q 105 63 140 26 q 51 148 69 99 q 33 256 33 197 m 264 924 l 429 924 l 453 729 l 376 729 l 264 924 z "},"ó":{"ha":768,"x_min":33,"x_max":714,"o":"m 325 49 q 421 92 382 49 q 484 195 460 135 q 519 322 508 256 q 529 435 529 389 q 503 558 529 513 q 422 604 478 604 q 326 561 365 604 q 263 458 288 518 q 228 331 239 397 q 218 218 218 264 q 244 94 218 140 q 325 49 269 49 m 33 256 q 63 408 33 333 q 147 540 93 482 q 273 632 200 597 q 433 667 346 667 q 554 647 501 667 q 642 590 607 626 q 696 505 678 554 q 714 397 714 456 q 684 245 714 319 q 601 113 654 171 q 474 21 547 56 q 314 -14 401 -14 q 193 6 246 -14 q 105 63 140 26 q 51 148 69 99 q 33 256 33 197 m 461 731 l 385 731 l 478 925 l 643 925 l 461 731 z "},"ô":{"ha":768,"x_min":33,"x_max":714,"o":"m 325 49 q 421 92 382 49 q 484 195 460 135 q 519 322 508 256 q 529 435 529 389 q 503 558 529 513 q 422 604 478 604 q 326 561 365 604 q 263 458 288 518 q 228 331 239 397 q 218 218 218 264 q 244 94 218 140 q 325 49 269 49 m 33 256 q 63 408 33 333 q 147 540 93 482 q 273 632 200 597 q 433 667 346 667 q 554 647 501 667 q 642 590 607 626 q 696 505 678 554 q 714 397 714 456 q 684 245 714 319 q 601 113 654 171 q 474 21 547 56 q 314 -14 401 -14 q 193 6 246 -14 q 105 63 140 26 q 51 148 69 99 q 33 256 33 197 m 464 842 l 326 731 l 243 731 l 385 904 l 565 904 l 646 731 l 563 731 l 464 842 z "},"õ":{"ha":768,"x_min":33,"x_max":714,"o":"m 325 49 q 421 92 382 49 q 484 195 460 135 q 519 322 508 256 q 529 435 529 389 q 503 558 529 513 q 422 604 478 604 q 326 561 365 604 q 263 458 288 518 q 228 331 239 397 q 218 218 218 264 q 244 94 218 140 q 325 49 269 49 m 33 256 q 63 408 33 333 q 147 540 93 482 q 273 632 200 597 q 433 667 346 667 q 554 647 501 667 q 642 590 607 626 q 696 505 678 554 q 714 397 714 456 q 684 245 714 319 q 601 113 654 171 q 474 21 547 56 q 314 -14 401 -14 q 193 6 246 -14 q 105 63 140 26 q 51 148 69 99 q 33 256 33 197 m 282 744 q 328 856 297 828 q 401 883 360 883 q 441 874 425 883 q 469 855 457 865 q 494 836 482 844 q 519 828 506 828 q 559 845 543 828 q 578 883 575 863 l 633 883 q 588 772 618 800 q 515 744 557 744 q 476 753 492 744 q 447 772 460 761 q 422 791 433 782 q 396 800 410 800 q 357 783 372 800 q 338 744 342 765 l 282 744 z "},"ö":{"ha":768,"x_min":33,"x_max":714,"o":"m 325 49 q 421 92 382 49 q 484 195 460 135 q 519 322 508 256 q 529 435 529 389 q 503 558 529 513 q 422 604 478 604 q 326 561 365 604 q 263 458 288 518 q 228 331 239 397 q 218 218 218 264 q 244 94 218 140 q 325 49 269 49 m 33 256 q 63 408 33 333 q 147 540 93 482 q 273 632 200 597 q 433 667 346 667 q 554 647 501 667 q 642 590 607 626 q 696 505 678 554 q 714 397 714 456 q 684 245 714 319 q 601 113 654 171 q 474 21 547 56 q 314 -14 401 -14 q 193 6 246 -14 q 105 63 140 26 q 51 148 69 99 q 33 256 33 197 m 415 835 q 388 771 415 799 q 322 743 361 743 q 274 760 290 743 q 257 804 257 778 q 283 869 257 840 q 350 899 310 899 q 399 881 382 899 q 415 835 415 863 m 665 835 q 638 771 665 799 q 572 743 611 743 q 524 760 540 743 q 507 804 507 778 q 533 869 507 840 q 600 899 560 899 q 649 881 632 899 q 665 835 665 863 z "},"÷":{"ha":760,"x_min":65,"x_max":719,"o":"m 704 413 l 65 413 l 81 503 l 719 503 l 704 413 m 508 685 q 482 619 508 649 q 415 590 456 590 q 367 608 383 590 q 350 654 350 626 q 377 718 350 690 q 443 746 404 746 q 492 728 475 746 q 508 685 508 711 m 435 265 q 408 200 435 229 q 342 171 382 171 q 293 189 310 171 q 276 235 276 207 q 303 299 276 271 q 369 326 331 326 q 418 309 401 326 q 435 265 435 292 z "},"ø":{"ha":768,"x_min":11,"x_max":736,"o":"m 33 256 q 63 408 33 333 q 147 540 93 482 q 273 632 200 597 q 433 667 346 667 q 518 657 479 667 q 589 631 557 647 l 608 653 l 736 653 l 660 569 q 714 397 714 499 q 684 245 714 319 q 601 113 654 171 q 474 21 547 56 q 314 -14 401 -14 q 229 -4 268 -14 q 158 22 190 6 l 139 0 l 11 0 l 86 83 q 33 256 33 153 m 325 49 q 419 90 381 49 q 482 192 458 132 q 517 316 506 251 q 529 426 528 381 l 236 107 q 271 64 249 79 q 325 49 293 49 m 422 604 q 327 562 365 604 q 265 460 289 519 q 229 335 240 400 q 217 225 218 269 l 510 544 q 475 588 496 572 q 422 604 454 604 z "},"ù":{"ha":788,"x_min":26,"x_max":749,"o":"m 113 472 q 119 535 119 511 q 102 591 119 571 q 40 611 85 611 l 26 611 l 33 653 l 200 653 q 278 633 254 653 q 303 560 303 613 q 293 472 303 521 q 267 315 276 374 q 252 225 257 257 q 246 180 247 193 q 244 158 244 167 q 269 73 244 97 q 338 49 293 49 q 394 63 369 49 q 439 93 419 76 q 478 139 461 113 l 568 653 l 749 653 l 635 0 l 517 0 l 478 63 l 471 63 q 419 24 447 40 q 360 -3 394 8 q 285 -14 326 -14 q 119 28 174 -14 q 65 165 65 71 q 66 187 65 174 q 72 231 67 200 q 86 319 76 263 q 113 472 96 375 m 304 890 l 469 890 l 493 696 l 417 696 l 304 890 z "},"ú":{"ha":788,"x_min":26,"x_max":749,"o":"m 113 472 q 119 535 119 511 q 102 591 119 571 q 40 611 85 611 l 26 611 l 33 653 l 200 653 q 278 633 254 653 q 303 560 303 613 q 293 472 303 521 q 267 315 276 374 q 252 225 257 257 q 246 180 247 193 q 244 158 244 167 q 269 73 244 97 q 338 49 293 49 q 394 63 369 49 q 439 93 419 76 q 478 139 461 113 l 568 653 l 749 653 l 635 0 l 517 0 l 478 63 l 471 63 q 419 24 447 40 q 360 -3 394 8 q 285 -14 326 -14 q 119 28 174 -14 q 65 165 65 71 q 66 187 65 174 q 72 231 67 200 q 86 319 76 263 q 113 472 96 375 m 472 694 l 396 694 l 489 889 l 654 889 l 472 694 z "},"û":{"ha":788,"x_min":26,"x_max":749,"o":"m 113 472 q 119 535 119 511 q 102 591 119 571 q 40 611 85 611 l 26 611 l 33 653 l 200 653 q 278 633 254 653 q 303 560 303 613 q 293 472 303 521 q 267 315 276 374 q 252 225 257 257 q 246 180 247 193 q 244 158 244 167 q 269 73 244 97 q 338 49 293 49 q 394 63 369 49 q 439 93 419 76 q 478 139 461 113 l 568 653 l 749 653 l 635 0 l 517 0 l 478 63 l 471 63 q 419 24 447 40 q 360 -3 394 8 q 285 -14 326 -14 q 119 28 174 -14 q 65 165 65 71 q 66 187 65 174 q 72 231 67 200 q 86 319 76 263 q 113 472 96 375 m 463 842 l 325 731 l 242 731 l 383 904 l 564 904 l 644 731 l 561 731 l 463 842 z "},"ü":{"ha":788,"x_min":26,"x_max":749,"o":"m 113 472 q 119 535 119 511 q 102 591 119 571 q 40 611 85 611 l 26 611 l 33 653 l 200 653 q 278 633 254 653 q 303 560 303 613 q 293 472 303 521 q 267 315 276 374 q 252 225 257 257 q 246 180 247 193 q 244 158 244 167 q 269 73 244 97 q 338 49 293 49 q 394 63 369 49 q 439 93 419 76 q 478 139 461 113 l 568 653 l 749 653 l 635 0 l 517 0 l 478 63 l 471 63 q 419 24 447 40 q 360 -3 394 8 q 285 -14 326 -14 q 119 28 174 -14 q 65 165 65 71 q 66 187 65 174 q 72 231 67 200 q 86 319 76 263 q 113 472 96 375 m 410 808 q 383 744 410 772 q 317 717 356 717 q 268 734 285 717 q 251 778 251 751 q 278 843 251 814 q 344 872 304 872 q 393 854 376 872 q 410 808 410 836 m 660 808 q 633 744 660 772 q 567 717 606 717 q 518 734 535 717 q 501 778 501 751 q 528 843 501 814 q 594 872 554 872 q 643 854 626 872 q 660 808 660 836 z "},"ý":{"ha":707,"x_min":6,"x_max":725,"o":"m 314 -90 q 253 -183 282 -147 q 193 -240 224 -219 q 130 -269 163 -261 q 61 -278 97 -278 l 6 -278 l 14 -229 q 81 -223 50 -229 q 140 -201 113 -217 q 191 -160 167 -186 q 239 -94 215 -135 l 281 -19 l 128 528 q 85 607 113 581 q 18 639 58 633 l 22 667 l 144 667 q 249 637 207 667 q 306 556 290 607 l 404 206 l 651 653 l 725 653 l 314 -90 m 476 694 l 400 694 l 493 889 l 658 889 l 476 694 z "},"þ":{"ha":756,"x_min":-29,"x_max":701,"o":"m -29 -264 q 47 169 17 -8 q 99 463 78 346 q 131 644 119 579 q 147 742 142 710 q 153 785 153 775 q 154 799 154 794 q 137 855 154 835 q 75 875 119 875 l 61 875 l 68 917 l 235 917 q 313 897 289 917 q 338 824 338 876 q 337 803 338 815 q 333 769 336 792 q 323 711 329 747 q 307 618 317 675 q 375 652 335 638 q 474 667 415 667 q 646 601 590 667 q 701 425 701 535 q 679 271 701 349 q 613 130 657 193 q 500 26 568 67 q 340 -14 432 -14 q 261 -6 296 -14 q 200 14 226 3 l 151 -264 l -29 -264 m 414 604 q 349 592 378 604 q 297 563 321 581 l 210 69 q 258 54 233 60 q 303 49 282 49 q 373 69 342 49 q 428 122 404 89 q 468 195 451 154 q 495 279 485 236 q 510 363 506 322 q 515 436 515 404 q 489 560 515 517 q 414 604 463 604 z "},"ÿ":{"ha":707,"x_min":6,"x_max":725,"o":"m 314 -90 q 253 -183 282 -147 q 193 -240 224 -219 q 130 -269 163 -261 q 61 -278 97 -278 l 6 -278 l 14 -229 q 81 -223 50 -229 q 140 -201 113 -217 q 191 -160 167 -186 q 239 -94 215 -135 l 281 -19 l 128 528 q 85 607 113 581 q 18 639 58 633 l 22 667 l 144 667 q 249 637 207 667 q 306 556 290 607 l 404 206 l 651 653 l 725 653 l 314 -90 m 418 815 q 391 751 418 779 q 325 724 364 724 q 276 741 293 724 q 260 785 260 758 q 286 850 260 821 q 353 879 313 879 q 401 861 385 879 q 418 815 418 843 m 668 815 q 641 751 668 779 q 575 724 614 724 q 526 741 543 724 q 510 785 510 758 q 536 850 510 821 q 603 879 563 879 q 651 861 635 879 q 668 815 668 843 z "},"Ğ":{"ha":1019,"x_min":56,"x_max":1024,"o":"m 861 65 q 678 -6 772 17 q 476 -28 583 -28 q 303 3 381 -28 q 170 88 225 33 q 85 217 115 142 q 56 379 56 292 q 97 588 56 486 q 212 768 139 689 q 385 896 285 847 q 606 944 486 944 q 708 938 650 944 q 817 910 765 931 q 903 851 868 889 q 939 754 939 814 q 935 695 939 725 q 925 639 931 665 l 883 639 q 818 824 879 767 q 636 882 757 882 q 509 857 565 882 q 409 789 453 832 q 334 689 365 746 q 283 569 303 632 q 253 440 263 506 q 243 314 243 375 q 262 178 243 233 q 313 90 281 124 q 389 42 344 57 q 486 28 433 28 q 595 38 549 28 q 681 64 642 47 l 724 311 q 743 370 729 340 q 790 424 757 400 q 879 465 824 449 q 1024 481 935 481 l 1017 446 q 942 411 969 446 q 904 314 915 376 l 861 65 m 650 1104 q 751 1126 708 1104 q 819 1174 793 1147 l 853 1144 q 759 1050 817 1086 q 633 1014 701 1014 q 521 1050 565 1014 q 461 1144 476 1086 l 506 1174 q 556 1126 521 1147 q 650 1104 592 1104 z "},"ğ":{"ha":764,"x_min":4,"x_max":725,"o":"m 521 514 q 497 558 513 539 q 464 590 485 575 q 411 604 443 604 q 345 584 374 604 q 296 531 317 564 q 260 456 275 497 q 237 372 246 414 q 224 289 228 329 q 221 219 221 249 q 244 115 221 153 q 325 76 268 76 q 374 83 351 76 q 414 97 397 89 q 450 118 433 106 l 521 514 m 619 49 q 575 -85 607 -25 q 495 -187 543 -144 q 383 -254 447 -231 q 242 -278 319 -278 q 144 -264 185 -278 q 76 -228 104 -250 q 32 -181 49 -207 q 4 -132 15 -156 l 53 -100 q 83 -145 67 -124 q 119 -182 99 -167 q 165 -206 139 -197 q 225 -215 192 -215 q 357 -153 300 -215 q 439 49 414 -92 l 440 56 q 397 35 422 43 q 348 20 376 26 q 286 14 319 14 q 98 81 158 14 q 38 257 38 149 q 61 403 38 329 q 130 535 85 476 q 242 630 175 593 q 394 667 308 667 q 464 655 436 667 q 508 628 492 643 q 540 590 528 611 l 547 590 l 607 653 l 725 653 l 619 49 m 446 826 q 547 848 504 826 q 615 896 589 869 l 649 867 q 555 772 613 808 q 429 736 497 736 q 317 772 361 736 q 257 867 272 808 l 301 896 q 352 848 317 869 q 446 826 388 826 z "},"İ":{"ha":426,"x_min":67,"x_max":407,"o":"m 386 917 q 329 596 353 728 q 291 377 306 464 q 268 241 276 290 q 256 167 260 192 q 251 133 251 142 q 250 121 250 125 q 267 63 250 85 q 329 42 283 42 l 343 42 l 336 0 l 169 0 q 90 21 114 0 q 67 96 67 42 q 67 111 67 101 q 72 148 68 121 q 85 226 76 175 q 109 367 93 278 q 148 590 125 457 q 206 917 171 724 l 386 917 m 407 1092 q 383 1023 407 1054 q 315 992 358 992 q 250 1016 271 992 q 229 1075 229 1040 q 253 1144 229 1113 q 321 1175 278 1175 q 386 1151 365 1175 q 407 1092 407 1126 z "},"ı":{"ha":376,"x_min":42,"x_max":318,"o":"m 46 0 q 82 210 67 124 q 107 355 97 297 q 122 447 117 413 q 131 499 128 481 q 134 524 133 517 q 135 535 135 531 q 117 591 135 571 q 56 611 100 611 l 42 611 l 49 653 l 215 653 q 294 633 269 653 q 318 560 318 613 q 317 545 318 554 q 314 517 317 536 q 305 461 311 497 q 289 365 299 425 q 264 216 279 306 q 226 0 249 126 l 46 0 z "},"Œ":{"ha":1331,"x_min":56,"x_max":1325,"o":"m 56 356 q 96 569 56 464 q 209 758 136 675 q 384 893 282 842 q 608 944 486 944 q 701 936 667 944 q 764 917 735 928 l 1224 917 q 1304 893 1283 917 q 1325 836 1325 869 q 1324 826 1325 832 q 1322 806 1324 821 q 1315 763 1319 792 q 1301 688 1310 735 l 1260 688 q 1264 733 1264 713 q 1226 826 1264 797 q 1115 854 1188 854 l 892 854 l 831 507 l 1192 507 l 1181 444 l 819 444 l 751 63 l 989 63 q 1125 97 1065 63 q 1238 221 1185 131 l 1272 207 l 1213 97 q 1160 26 1189 53 q 1075 0 1132 0 l 603 0 q 524 -22 564 -15 q 438 -28 485 -28 q 276 1 347 -28 q 156 80 206 29 q 81 201 107 131 q 56 356 56 272 m 449 35 q 572 67 513 35 l 710 849 q 597 882 664 882 q 482 854 533 882 q 391 780 431 826 q 324 674 351 733 q 278 550 296 614 q 253 423 261 486 q 244 307 244 360 q 297 106 244 176 q 449 35 349 35 z "},"œ":{"ha":1178,"x_min":33,"x_max":1150,"o":"m 325 49 q 421 92 382 49 q 484 195 460 135 q 519 322 508 256 q 529 435 529 389 q 503 558 529 513 q 422 604 478 604 q 326 561 365 604 q 263 458 288 518 q 228 331 239 397 q 218 218 218 264 q 244 94 218 140 q 325 49 269 49 m 857 354 q 941 396 913 354 q 969 496 969 438 q 944 577 969 550 q 888 604 919 604 q 835 590 861 604 q 785 547 808 576 q 742 469 761 517 q 711 354 724 422 l 857 354 m 701 292 q 695 250 697 276 q 693 201 693 224 q 726 83 693 118 q 811 49 758 49 q 934 82 883 49 q 1029 164 985 115 l 1067 132 q 1022 83 1047 108 q 961 35 996 57 q 881 0 926 14 q 779 -14 836 -14 q 655 10 708 -14 q 567 78 601 33 q 453 10 517 35 q 314 -14 389 -14 q 193 6 246 -14 q 105 63 140 26 q 51 148 69 99 q 33 256 33 197 q 63 408 33 333 q 147 540 93 482 q 273 632 200 597 q 433 667 346 667 q 561 643 507 667 q 651 579 615 619 q 885 667 750 667 q 1083 620 1017 667 q 1150 494 1150 574 q 1124 393 1150 432 q 1056 331 1099 354 q 960 300 1014 308 q 847 292 906 292 l 701 292 z "},"Ş":{"ha":781,"x_min":22,"x_max":763,"o":"m 263 -21 q 171 -6 214 -17 q 94 24 128 6 q 42 68 61 43 q 22 125 22 93 q 23 131 22 126 q 26 154 24 136 q 35 208 29 172 q 51 306 40 243 l 90 306 l 90 296 q 146 98 90 157 q 317 39 201 39 q 388 49 351 39 q 453 78 424 58 q 501 128 482 97 q 519 200 519 158 q 488 283 519 249 q 404 353 457 317 l 251 456 q 150 549 181 501 q 119 656 119 597 q 149 777 119 724 q 229 867 179 831 q 344 923 279 904 q 476 942 408 942 q 582 931 531 942 q 674 902 633 921 q 738 855 714 883 q 763 792 763 826 q 762 785 763 789 q 758 763 761 781 q 749 710 756 746 q 732 613 743 675 l 693 613 l 693 628 q 638 822 693 764 q 481 879 583 879 q 413 869 447 879 q 352 838 379 858 q 308 788 325 818 q 292 719 292 758 q 324 642 292 672 q 408 575 356 611 l 563 474 q 670 380 635 425 q 706 275 706 335 q 676 153 706 206 q 596 63 646 100 q 483 5 546 26 q 353 -22 419 -17 l 344 -69 q 424 -93 396 -69 q 451 -157 451 -117 q 408 -251 451 -215 q 306 -286 365 -286 l 208 -286 l 219 -222 l 289 -222 q 333 -208 315 -222 q 353 -171 350 -194 q 341 -143 353 -154 q 306 -132 329 -132 l 243 -132 l 263 -21 z "},"ş":{"ha":653,"x_min":19,"x_max":600,"o":"m 197 -11 q 139 -5 169 -10 q 81 13 108 0 q 37 47 54 25 q 19 104 19 68 q 23 153 19 128 q 32 208 26 179 l 81 208 l 81 204 q 116 94 81 139 q 233 49 151 49 q 285 53 257 49 q 336 71 313 58 q 375 103 360 83 q 390 154 390 124 q 359 212 390 189 q 283 256 328 235 l 217 286 q 110 357 149 318 q 71 451 71 396 q 98 548 71 507 q 168 615 125 589 q 264 654 211 642 q 369 667 317 667 q 439 664 399 667 q 515 650 479 661 q 575 615 550 639 q 600 549 600 590 q 597 499 600 525 q 588 444 593 474 l 539 444 l 539 449 q 503 559 539 514 q 386 604 468 604 q 339 598 363 604 q 295 578 315 592 q 263 544 275 564 q 250 494 250 524 q 272 444 250 464 q 332 407 293 424 l 410 372 q 528 300 488 338 q 569 204 569 263 q 544 111 569 150 q 478 47 519 72 q 388 6 438 21 q 288 -12 338 -8 l 282 -42 q 362 -65 333 -42 q 390 -128 390 -87 q 347 -222 390 -186 q 244 -258 304 -258 l 147 -258 l 158 -194 l 228 -194 q 271 -181 250 -194 q 292 -142 292 -167 q 279 -115 292 -126 q 243 -104 267 -104 l 181 -104 l 197 -11 z "},"Š":{"ha":781,"x_min":22,"x_max":763,"o":"m 308 -24 q 203 -13 254 -24 q 111 16 151 -3 q 47 63 71 35 q 22 126 22 90 q 23 133 22 128 q 26 155 24 138 q 35 208 29 172 q 51 306 40 243 l 90 306 l 90 296 q 146 98 90 157 q 317 39 201 39 q 388 49 351 39 q 453 78 424 58 q 501 128 482 97 q 519 200 519 158 q 488 283 519 249 q 404 353 457 317 l 251 456 q 150 549 181 501 q 119 656 119 597 q 149 777 119 724 q 229 867 179 831 q 344 923 279 904 q 476 942 408 942 q 582 931 531 942 q 674 902 633 921 q 738 855 714 883 q 763 792 763 826 q 762 785 763 789 q 758 763 761 781 q 749 710 756 746 q 732 613 743 675 l 693 613 l 693 628 q 638 822 693 764 q 481 879 583 879 q 413 869 447 879 q 352 838 379 858 q 308 788 325 818 q 292 719 292 758 q 324 642 292 672 q 408 575 356 611 l 563 474 q 670 380 635 425 q 706 275 706 335 q 670 144 706 200 q 578 51 635 88 q 451 -5 522 14 q 308 -24 381 -24 m 615 1174 l 713 1174 l 571 1000 l 390 1000 l 310 1174 l 407 1174 l 492 1063 l 615 1174 z "},"š":{"ha":651,"x_min":18,"x_max":601,"o":"m 232 49 q 283 53 256 49 q 335 71 311 58 q 374 103 358 83 q 389 154 389 124 q 358 212 389 189 q 282 256 326 235 l 215 286 q 108 357 147 318 q 69 451 69 396 q 97 548 69 507 q 167 615 124 589 q 263 654 210 642 q 368 667 315 667 q 438 664 397 667 q 513 650 478 661 q 574 615 549 639 q 599 549 599 590 q 595 499 599 525 q 586 444 592 474 l 538 444 l 538 449 q 502 559 538 514 q 385 604 467 604 q 338 598 361 604 q 294 578 314 592 q 261 544 274 564 q 249 494 249 524 q 270 444 249 464 q 331 407 292 424 l 408 372 q 527 300 486 338 q 568 204 568 263 q 538 104 568 146 q 463 36 508 63 q 360 -2 417 10 q 249 -14 303 -14 q 179 -11 219 -14 q 103 3 139 -8 q 43 38 68 14 q 18 104 18 63 q 22 153 18 128 q 31 208 25 179 l 79 208 l 79 204 q 115 94 79 139 q 232 49 150 49 m 504 896 l 601 896 l 460 722 l 279 722 l 199 896 l 296 896 l 381 785 l 504 896 z "},"Ÿ":{"ha":888,"x_min":40,"x_max":972,"o":"m 535 479 l 882 917 l 972 917 l 567 404 l 496 0 l 315 0 l 379 367 l 199 736 q 168 789 186 763 q 129 837 150 815 q 85 872 108 858 q 40 889 63 886 l 46 917 l 197 917 q 267 903 236 917 q 323 867 299 889 q 365 817 347 844 q 396 764 383 790 l 535 479 m 803 1053 q 776 988 803 1017 q 710 958 750 958 q 661 976 678 958 q 644 1022 644 994 q 672 1086 644 1058 q 738 1114 699 1114 q 786 1097 769 1114 q 803 1053 803 1079 m 567 1053 q 540 988 567 1017 q 474 958 514 958 q 425 976 442 958 q 408 1022 408 994 q 435 1086 408 1058 q 501 1114 463 1114 q 550 1097 533 1114 q 567 1053 567 1079 z "},"Ž":{"ha":832,"x_min":-24,"x_max":901,"o":"m 901 917 l 206 63 l 743 63 l 733 0 l -24 0 l -17 44 l 643 856 l 342 856 q 219 819 268 856 q 153 688 169 782 l 111 688 l 132 806 q 144 847 136 826 q 168 882 153 867 q 208 907 183 897 q 269 917 233 917 l 901 917 m 679 1160 l 776 1160 l 635 986 l 454 986 l 374 1160 l 471 1160 l 556 1049 l 679 1160 z "},"ž":{"ha":688,"x_min":-11,"x_max":715,"o":"m 715 653 l 217 63 l 582 63 l 572 0 l -11 0 l -4 43 l 457 590 l 293 590 q 163 558 204 590 q 111 458 122 526 l 69 458 l 83 542 q 96 583 88 563 q 119 618 104 603 q 160 643 135 633 q 221 653 185 653 l 715 653 m 554 896 l 651 896 l 510 722 l 329 722 l 249 896 l 346 896 l 431 785 l 554 896 z "},"ƒ":{"ha":313,"x_min":0,"x_max":0,"o":""},"ˆ":{"ha":458,"x_min":119,"x_max":522,"o":"m 340 1028 l 203 917 l 119 917 l 261 1090 l 442 1090 l 522 917 l 439 917 l 340 1028 z "},"ˇ":{"ha":417,"x_min":58,"x_max":461,"o":"m 364 896 l 461 896 l 319 722 l 139 722 l 58 896 l 156 896 l 240 785 l 364 896 z "},"˘":{"ha":417,"x_min":94,"x_max":486,"o":"m 283 799 q 384 820 342 799 q 453 868 426 842 l 486 839 q 392 744 450 781 q 267 708 335 708 q 154 744 199 708 q 94 839 110 781 l 139 868 q 190 820 154 842 q 283 799 225 799 z "},"˚":{"ha":275,"x_min":82,"x_max":351,"o":"m 82 828 q 94 887 82 858 q 128 938 107 915 q 178 973 149 960 q 240 986 207 986 q 321 957 290 986 q 351 881 351 928 q 339 822 351 850 q 306 771 326 793 q 256 735 285 749 q 193 722 226 722 q 113 751 143 722 q 82 828 82 781 m 204 785 q 258 810 236 785 q 281 869 281 835 q 267 909 281 894 q 229 924 253 924 q 175 899 197 924 q 153 839 153 874 q 167 799 153 814 q 204 785 181 785 z "},"˜":{"ha":382,"x_min":124,"x_max":475,"o":"m 124 944 q 170 1056 139 1028 q 243 1083 201 1083 q 283 1074 267 1083 q 311 1055 299 1065 q 335 1036 324 1044 q 361 1028 347 1028 q 401 1045 385 1028 q 419 1083 417 1063 l 475 1083 q 429 972 460 1000 q 357 944 399 944 q 317 953 333 944 q 288 972 301 961 q 263 991 275 982 q 238 1000 251 1000 q 199 983 214 1000 q 179 944 183 965 l 124 944 z "},"Ё":{"ha":836,"x_min":67,"x_max":831,"o":"m 729 917 q 810 893 789 917 q 831 836 831 869 q 830 826 831 832 q 827 806 829 821 q 820 763 825 792 q 807 688 815 735 l 765 688 q 769 733 769 713 q 731 826 769 797 q 621 854 693 854 l 397 854 l 336 507 l 697 507 l 686 444 l 325 444 l 257 63 l 494 63 q 631 97 571 63 q 743 221 690 131 l 778 207 l 718 97 q 666 26 694 53 q 581 0 638 0 l 247 0 l 67 0 q 123 322 100 190 q 161 540 146 453 q 185 677 176 628 q 197 752 193 726 q 202 786 201 778 q 203 799 203 794 q 185 855 203 835 q 124 875 168 875 l 110 875 l 117 917 l 729 917 m 500 1106 q 473 1042 500 1069 q 407 1014 446 1014 q 358 1031 375 1014 q 342 1075 342 1049 q 368 1140 342 1111 q 435 1169 394 1169 q 483 1151 467 1169 q 500 1106 500 1133 m 750 1106 q 723 1042 750 1069 q 657 1014 696 1014 q 608 1031 625 1014 q 592 1075 592 1049 q 618 1140 592 1111 q 685 1169 644 1169 q 733 1151 717 1169 q 750 1106 750 1133 z "},"Ђ":{"ha":883,"x_min":71,"x_max":840,"o":"m 479 -21 q 538 1 511 -21 q 584 58 564 24 q 618 137 604 93 q 641 224 632 181 q 654 306 650 267 q 658 371 658 344 q 624 494 658 460 q 542 528 589 528 q 438 514 489 528 q 351 479 388 500 l 268 0 l 88 0 l 238 854 l 71 854 l 82 917 l 596 917 l 585 854 l 418 854 l 363 542 q 458 580 399 563 q 581 597 517 597 q 684 588 636 597 q 767 553 732 578 q 821 485 801 528 q 840 375 840 442 q 819 212 840 289 q 753 76 799 135 q 639 -17 708 18 q 472 -56 569 -51 l 479 -21 z "},"Ѓ":{"ha":758,"x_min":67,"x_max":814,"o":"m 713 917 q 793 892 772 917 q 814 835 814 868 q 813 825 814 831 q 810 805 813 819 q 803 763 808 790 q 790 688 799 735 l 749 688 q 753 733 753 713 q 715 826 753 799 q 604 854 676 854 l 397 854 l 247 0 l 67 0 q 123 321 100 189 q 161 540 146 453 q 185 677 176 628 q 197 752 193 726 q 202 786 201 778 q 203 799 203 794 q 185 855 203 835 q 124 875 168 875 l 110 875 l 117 917 l 713 917 m 431 976 l 354 976 l 447 1171 l 613 1171 l 431 976 z "},"Є":{"ha":946,"x_min":54,"x_max":935,"o":"m 876 621 q 815 815 874 747 q 640 882 756 882 q 523 863 579 882 q 418 799 467 844 q 331 680 369 754 q 268 493 293 606 l 697 493 l 686 431 l 256 431 q 247 325 247 376 q 260 211 247 264 q 303 119 274 158 q 378 57 332 79 q 492 35 425 35 q 678 85 588 35 q 836 233 769 136 l 878 196 q 788 96 835 138 q 688 26 742 54 q 573 -15 635 -1 q 439 -28 511 -28 q 272 -1 344 -28 q 151 76 200 26 q 78 192 103 125 q 54 340 54 260 q 100 573 54 463 q 223 765 146 683 q 400 896 300 847 q 610 944 500 944 q 760 929 699 944 q 861 888 822 914 q 917 828 900 861 q 935 757 935 794 q 930 691 935 725 q 918 621 925 657 l 876 621 z "},"Ѕ":{"ha":781,"x_min":22,"x_max":763,"o":"m 308 -24 q 203 -13 254 -24 q 111 16 151 -3 q 47 63 71 35 q 22 126 22 90 q 23 133 22 128 q 26 155 24 138 q 35 208 29 172 q 51 306 40 243 l 90 306 l 90 296 q 146 98 90 157 q 317 39 201 39 q 388 49 351 39 q 453 78 424 58 q 501 128 482 97 q 519 200 519 158 q 488 283 519 249 q 404 353 457 317 l 251 456 q 150 549 181 501 q 119 656 119 597 q 149 777 119 724 q 229 867 179 831 q 344 923 279 904 q 476 942 408 942 q 582 931 531 942 q 674 902 633 921 q 738 855 714 883 q 763 792 763 826 q 762 785 763 789 q 758 763 761 781 q 749 710 756 746 q 732 613 743 675 l 693 613 l 693 628 q 638 822 693 764 q 481 879 583 879 q 413 869 447 879 q 352 838 379 858 q 308 788 325 818 q 292 719 292 758 q 324 642 292 672 q 408 575 356 611 l 563 474 q 670 380 635 425 q 706 275 706 335 q 670 144 706 200 q 578 51 635 88 q 451 -5 522 14 q 308 -24 381 -24 z "},"І":{"ha":426,"x_min":67,"x_max":386,"o":"m 206 917 l 386 917 l 256 181 q 251 149 253 164 q 250 121 250 135 q 267 63 250 85 q 329 42 283 42 l 343 42 l 336 0 l 169 0 q 90 21 114 0 q 67 96 67 42 q 75 181 67 131 l 206 917 z "},"Ї":{"ha":426,"x_min":67,"x_max":519,"o":"m 206 917 l 386 917 l 256 181 q 251 149 253 164 q 250 121 250 135 q 267 63 250 85 q 329 42 283 42 l 343 42 l 336 0 l 169 0 q 90 21 114 0 q 67 96 67 42 q 75 181 67 131 l 206 917 m 519 1088 q 493 1022 519 1051 q 426 993 467 993 q 378 1011 394 993 q 361 1057 361 1029 q 388 1121 361 1093 q 454 1149 415 1149 q 503 1131 486 1149 q 519 1088 519 1114 m 283 1088 q 257 1022 283 1051 q 190 993 231 993 q 142 1011 158 993 q 125 1057 125 1029 q 152 1121 125 1093 q 218 1149 179 1149 q 267 1131 250 1149 q 283 1088 283 1114 z "},"Ј":{"ha":389,"x_min":-125,"x_max":379,"o":"m 238 115 q 199 -33 222 25 q 134 -127 175 -92 q 31 -176 93 -162 q -125 -190 -32 -190 l -117 -149 q -60 -131 -86 -144 q -12 -87 -33 -117 q 27 -8 10 -57 q 57 115 44 42 l 199 917 l 379 917 l 238 115 z "},"Љ":{"ha":1374,"x_min":-78,"x_max":1335,"o":"m 425 736 q 339 369 386 515 q 238 136 292 222 q 124 15 183 50 q 3 -21 65 -21 q -43 -17 -24 -21 q -78 -8 -62 -14 l -71 35 q 20 76 -25 44 q 108 183 65 107 q 193 390 151 258 q 272 736 235 522 q 277 769 275 754 q 279 800 279 785 q 263 855 279 835 q 201 875 246 875 l 188 875 l 194 917 l 924 917 l 857 542 l 982 542 q 1109 531 1046 542 q 1222 496 1172 521 q 1303 428 1272 471 q 1335 321 1335 386 q 1292 163 1335 225 q 1183 64 1249 100 q 1038 14 1117 28 q 888 0 960 0 l 761 0 l 582 0 l 732 854 l 446 854 l 425 736 m 944 486 q 906 484 924 486 q 874 479 888 482 q 844 472 858 475 l 774 69 q 800 63 785 65 q 869 56 828 56 l 876 56 q 1071 126 1000 56 q 1142 328 1142 197 q 1095 446 1142 406 q 951 486 1049 486 l 944 486 z "},"Њ":{"ha":1397,"x_min":67,"x_max":1358,"o":"m 685 507 l 757 917 l 938 917 l 867 514 l 990 514 q 1125 504 1058 514 q 1243 470 1192 494 q 1326 405 1294 446 q 1358 303 1358 364 q 1316 154 1358 213 q 1207 62 1274 96 q 1059 14 1140 28 q 900 0 978 0 l 596 0 l 674 444 l 325 444 l 247 0 l 67 0 q 123 321 100 189 q 161 540 146 453 q 185 677 176 628 q 197 752 193 726 q 202 786 201 778 q 203 799 203 794 q 185 855 203 835 q 124 875 168 875 l 110 875 l 117 917 l 283 917 q 362 897 338 917 q 386 824 386 876 q 385 801 386 815 q 378 756 383 788 q 363 665 374 724 q 336 507 353 606 l 685 507 m 953 458 q 887 453 915 458 q 853 444 858 447 l 786 69 q 813 63 797 65 q 882 56 840 56 l 889 56 q 1094 123 1025 56 q 1164 306 1164 190 q 1116 418 1164 378 q 960 458 1068 458 l 953 458 z "},"Ћ":{"ha":896,"x_min":71,"x_max":847,"o":"m 268 0 l 88 0 l 238 854 l 71 854 l 82 917 l 596 917 l 585 854 l 418 854 l 363 542 q 458 580 399 563 q 581 597 517 597 q 678 589 631 597 q 764 558 726 581 q 824 499 801 536 q 847 403 847 461 q 846 384 847 396 q 838 333 844 372 q 819 215 832 293 q 782 0 806 138 l 601 0 q 640 217 626 139 q 659 335 653 296 q 667 387 665 375 q 668 406 668 399 q 633 501 668 475 q 542 528 599 528 q 438 514 489 528 q 351 479 388 500 l 268 0 z "},"Ќ":{"ha":964,"x_min":68,"x_max":993,"o":"m 68 0 q 124 322 101 190 q 162 540 147 453 q 185 677 176 628 q 197 752 193 726 q 202 786 201 778 q 203 799 203 794 q 185 855 203 835 q 124 875 168 875 l 110 875 l 117 917 l 283 917 q 363 896 339 917 q 388 822 388 875 q 386 800 388 814 q 379 751 385 786 q 362 650 374 715 q 331 472 350 585 l 624 771 q 682 826 651 800 q 746 873 713 853 q 817 905 779 893 q 896 917 854 917 l 993 917 l 985 868 q 838 848 906 868 q 713 769 771 828 l 461 514 l 722 181 q 770 126 744 151 q 822 81 796 101 q 873 49 849 61 q 918 33 897 36 l 913 0 q 868 -10 896 -6 q 808 -14 840 -14 q 731 -8 769 -14 q 655 17 693 -1 q 578 68 617 36 q 499 153 539 100 l 317 386 l 249 0 l 68 0 m 504 939 l 428 939 l 521 1133 l 686 1133 l 504 939 z "},"Ў":{"ha":857,"x_min":40,"x_max":939,"o":"m 186 736 q 130 843 165 803 q 40 889 94 883 l 46 917 l 185 917 q 313 873 264 917 q 383 764 363 829 l 507 372 l 849 917 l 939 917 l 444 132 q 339 26 403 65 q 192 -14 275 -14 l 122 -14 l 131 36 q 192 40 161 36 q 253 53 224 43 q 308 83 282 64 q 354 132 333 101 l 368 153 l 186 736 m 567 1063 q 667 1084 625 1063 q 736 1132 710 1106 l 769 1103 q 676 1008 733 1044 q 550 972 618 972 q 438 1008 482 972 q 378 1103 393 1044 l 422 1132 q 473 1084 438 1106 q 567 1063 508 1063 z "},"Џ":{"ha":961,"x_min":67,"x_max":950,"o":"m 67 0 q 123 321 100 189 q 161 540 146 453 q 185 677 176 628 q 197 752 193 726 q 202 786 201 778 q 203 799 203 794 q 185 855 203 835 q 124 875 168 875 l 110 875 l 117 917 l 283 917 q 362 897 338 917 q 386 824 386 876 q 385 808 386 818 q 381 773 385 799 q 368 699 376 747 q 346 569 360 651 q 310 363 332 486 q 257 63 288 239 l 618 63 l 769 917 l 950 917 l 789 0 l 497 0 l 433 -243 l 336 -243 l 358 0 l 67 0 z "},"А":{"ha":899,"x_min":-51,"x_max":882,"o":"m 763 175 q 807 78 778 114 q 882 36 836 42 l 876 1 q 844 -3 865 -1 q 808 -6 824 -6 q 738 1 775 -6 q 668 26 701 7 q 608 80 635 44 q 567 175 581 115 l 549 253 l 179 253 l 21 0 l -51 0 l 519 917 l 582 917 l 763 175 m 219 315 l 533 315 l 444 678 l 219 315 z "},"Б":{"ha":885,"x_min":67,"x_max":832,"o":"m 67 0 q 123 321 100 189 q 161 540 146 453 q 185 677 176 628 q 197 752 193 726 q 202 786 201 778 q 203 799 203 794 q 185 855 203 835 q 124 875 168 875 l 110 875 l 117 917 l 726 917 q 807 892 786 917 q 828 835 828 868 q 827 825 828 831 q 824 805 826 819 q 817 763 822 790 q 804 688 813 735 l 763 688 q 767 733 767 713 q 728 826 767 799 q 618 854 690 854 l 397 854 l 340 528 l 465 528 q 599 519 533 528 q 717 488 665 511 q 801 424 769 465 q 832 317 832 383 q 789 154 832 217 q 679 58 746 92 q 531 12 613 24 q 372 0 449 0 l 244 0 l 67 0 m 426 472 q 388 470 406 472 q 356 465 369 468 q 328 458 340 461 l 258 69 q 285 63 269 65 q 354 56 313 56 l 361 56 q 567 119 494 56 q 639 324 639 182 q 589 437 639 401 q 433 472 539 472 l 426 472 z "},"В":{"ha":897,"x_min":67,"x_max":863,"o":"m 482 861 q 449 860 465 861 q 422 856 433 858 q 397 851 408 853 l 335 501 l 439 501 q 528 516 486 501 q 601 559 569 531 q 651 628 632 588 q 669 719 669 668 q 653 787 669 760 q 612 831 638 814 q 552 854 586 847 q 482 861 518 861 m 67 0 q 123 322 100 190 q 161 540 146 453 q 185 677 176 628 q 197 752 193 726 q 202 786 201 778 q 203 799 203 794 q 185 855 203 835 q 124 875 168 875 l 110 875 l 117 917 l 492 917 q 617 910 551 917 q 738 884 683 904 q 827 825 792 864 q 863 719 863 786 q 844 632 863 671 q 793 562 825 593 q 719 508 761 531 q 631 474 678 486 q 725 453 686 468 q 787 415 764 438 q 820 363 810 392 q 831 301 831 335 q 790 156 831 214 q 685 64 750 99 q 538 15 619 29 q 372 0 456 0 l 246 0 l 67 0 m 361 56 q 462 70 413 56 q 550 114 511 85 q 612 188 589 143 q 635 292 635 232 q 428 439 635 439 l 324 439 l 258 69 q 285 63 269 65 q 354 56 313 56 l 361 56 z "},"Г":{"ha":758,"x_min":67,"x_max":814,"o":"m 713 917 q 793 892 772 917 q 814 835 814 868 q 813 825 814 831 q 810 805 813 819 q 803 763 808 790 q 790 688 799 735 l 749 688 q 753 733 753 713 q 715 826 753 799 q 604 854 676 854 l 397 854 l 247 0 l 67 0 q 123 321 100 189 q 161 540 146 453 q 185 677 176 628 q 197 752 193 726 q 202 786 201 778 q 203 799 203 794 q 185 855 203 835 q 124 875 168 875 l 110 875 l 117 917 l 713 917 z "},"Д":{"ha":968,"x_min":-111,"x_max":933,"o":"m 601 63 l 742 854 l 436 854 q 385 598 411 713 q 329 388 360 483 q 263 213 299 293 q 185 63 228 133 l 601 63 m 40 63 q 190 378 135 210 q 278 736 244 547 q 283 769 281 753 q 285 799 285 785 q 267 855 285 835 q 206 875 250 875 l 192 875 l 199 917 l 933 917 l 782 63 l 831 63 q 860 51 849 63 q 872 24 872 40 q 872 17 872 22 q 866 -15 871 11 q 851 -98 861 -42 q 824 -256 842 -154 l 754 -256 q 756 -219 756 -236 q 757 -185 757 -201 q 749 -95 757 -131 q 724 -39 740 -60 q 683 -9 707 -18 q 626 0 658 0 l 176 0 q 108 -12 139 0 q 51 -53 78 -24 q 1 -131 25 -82 q -43 -256 -22 -181 l -111 -256 l -64 14 q -45 49 -61 35 q -8 63 -29 63 l 40 63 z "},"Е":{"ha":836,"x_min":67,"x_max":831,"o":"m 729 917 q 810 893 789 917 q 831 836 831 869 q 830 826 831 832 q 827 806 829 821 q 820 763 825 792 q 807 688 815 735 l 765 688 q 769 733 769 713 q 731 826 769 797 q 621 854 693 854 l 397 854 l 336 507 l 697 507 l 686 444 l 325 444 l 257 63 l 494 63 q 631 97 571 63 q 743 221 690 131 l 778 207 l 718 97 q 666 26 694 53 q 581 0 638 0 l 247 0 l 67 0 q 123 322 100 190 q 161 540 146 453 q 185 677 176 628 q 197 752 193 726 q 202 786 201 778 q 203 799 203 794 q 185 855 203 835 q 124 875 168 875 l 110 875 l 117 917 l 729 917 z "},"Ж":{"ha":1374,"x_min":-81,"x_max":1428,"o":"m 690 917 l 872 917 l 793 472 l 1072 771 q 1194 873 1128 829 q 1344 917 1261 917 l 1428 917 l 1419 868 q 1339 864 1375 868 q 1273 849 1303 860 q 1216 818 1243 838 q 1161 769 1189 799 l 924 514 l 1143 181 q 1235 79 1183 118 q 1326 33 1286 40 l 1321 0 q 1282 -10 1304 -6 q 1229 -14 1260 -14 q 1144 -7 1185 -14 q 1065 19 1103 0 q 992 74 1028 39 q 922 167 957 110 l 781 396 l 711 0 l 529 0 l 599 396 l 376 167 q 273 74 321 110 q 180 19 225 39 q 92 -7 135 0 q 6 -14 50 -14 q -45 -10 -25 -14 q -81 0 -65 -6 l -74 33 q 32 80 -32 40 q 158 181 96 119 l 497 514 l 349 769 q 312 817 332 799 q 265 848 292 836 q 205 864 239 860 q 126 868 171 868 l 135 917 l 218 917 q 293 905 260 917 q 353 873 326 893 q 400 826 379 853 q 438 771 421 800 l 611 472 l 690 917 z "},"З":{"ha":806,"x_min":-15,"x_max":786,"o":"m 232 500 l 350 500 q 432 514 389 500 q 512 557 475 528 q 572 630 549 586 q 596 732 596 674 q 582 799 596 771 q 547 847 568 828 q 498 874 525 865 q 446 882 471 882 q 276 819 351 882 q 156 653 200 757 l 113 653 q 137 765 124 715 q 182 847 150 815 q 237 888 204 869 q 308 918 269 906 q 388 938 347 931 q 464 944 428 944 q 578 938 521 944 q 682 910 636 931 q 757 851 728 889 q 786 750 786 813 q 771 670 786 711 q 724 592 756 629 q 644 525 693 554 q 528 479 594 496 q 625 453 585 472 q 690 406 665 433 q 726 347 715 379 q 738 279 738 314 q 695 131 738 190 q 590 37 653 72 q 452 -13 526 1 q 314 -28 378 -28 q 109 19 188 -28 q -15 160 31 65 l 32 194 q 73 134 50 163 q 127 83 96 106 q 198 48 158 61 q 290 35 238 35 q 384 51 339 35 q 465 97 429 67 q 522 171 500 126 q 543 274 543 215 q 489 395 543 353 q 339 438 435 438 l 221 438 l 232 500 z "},"И":{"ha":989,"x_min":67,"x_max":978,"o":"m 67 0 q 123 321 100 189 q 161 540 146 453 q 185 677 176 628 q 197 752 193 726 q 202 786 201 778 q 203 799 203 794 q 185 855 203 835 q 124 875 168 875 l 110 875 l 117 917 l 283 917 q 362 897 338 917 q 386 824 386 876 q 385 809 386 818 q 381 778 385 800 q 371 715 378 756 q 352 604 364 674 q 322 431 340 535 q 278 181 304 328 l 811 917 l 978 917 l 817 0 l 636 0 l 765 736 l 233 0 l 67 0 z "},"Й":{"ha":989,"x_min":67,"x_max":978,"o":"m 67 0 q 123 321 100 189 q 161 540 146 453 q 185 677 176 628 q 197 752 193 726 q 202 786 201 778 q 203 799 203 794 q 185 855 203 835 q 124 875 168 875 l 110 875 l 117 917 l 283 917 q 362 897 338 917 q 386 824 386 876 q 385 809 386 818 q 381 778 385 800 q 371 715 378 756 q 352 604 364 674 q 322 431 340 535 q 278 181 304 328 l 811 917 l 978 917 l 817 0 l 636 0 l 765 736 l 233 0 l 67 0 m 629 1069 q 730 1091 688 1069 q 799 1139 772 1113 l 832 1110 q 738 1015 796 1051 q 613 979 681 979 q 500 1015 544 979 q 440 1110 456 1051 l 485 1139 q 535 1091 500 1113 q 629 1069 571 1069 z "},"К":{"ha":964,"x_min":68,"x_max":993,"o":"m 68 0 q 124 322 101 190 q 162 540 147 453 q 185 677 176 628 q 197 752 193 726 q 202 786 201 778 q 203 799 203 794 q 185 855 203 835 q 124 875 168 875 l 110 875 l 117 917 l 283 917 q 363 896 339 917 q 388 822 388 875 q 386 800 388 814 q 379 751 385 786 q 362 650 374 715 q 331 472 350 585 l 624 771 q 682 826 651 800 q 746 873 713 853 q 817 905 779 893 q 896 917 854 917 l 993 917 l 985 868 q 838 848 906 868 q 713 769 771 828 l 461 514 l 722 181 q 770 126 744 151 q 822 81 796 101 q 873 49 849 61 q 918 33 897 36 l 913 0 q 868 -10 896 -6 q 808 -14 840 -14 q 731 -8 769 -14 q 655 17 693 -1 q 578 68 617 36 q 499 153 539 100 l 317 386 l 249 0 l 68 0 z "},"Л":{"ha":947,"x_min":-78,"x_max":936,"o":"m 272 736 q 277 769 275 753 q 279 799 279 785 q 262 855 279 835 q 200 875 244 875 l 186 875 l 193 917 l 936 917 l 775 0 l 594 0 l 744 854 l 444 854 l 424 736 q 338 369 385 515 q 237 136 290 222 q 124 15 183 50 q 3 -21 65 -21 q -43 -17 -24 -21 q -78 -8 -62 -14 l -71 35 q 20 76 -25 44 q 108 183 65 107 q 193 390 151 258 q 272 736 235 522 z "},"М":{"ha":1207,"x_min":36,"x_max":1169,"o":"m 1049 236 q 1038 160 1042 194 q 1033 97 1033 125 q 1104 -28 1033 -14 l 1099 -62 q 915 -14 972 -62 q 858 139 858 35 q 861 185 858 161 q 868 236 864 208 l 956 728 l 524 0 l 478 0 l 238 756 l 106 0 l 36 0 l 197 917 l 367 917 l 582 235 l 988 917 l 1169 917 l 1049 236 z "},"Н":{"ha":1004,"x_min":67,"x_max":964,"o":"m 783 917 l 964 917 l 833 181 q 829 149 831 164 q 828 121 828 135 q 844 63 828 85 q 907 42 861 42 l 921 42 l 914 0 l 747 0 q 668 21 692 0 q 644 96 644 42 q 653 181 644 131 l 700 444 l 325 444 l 247 0 l 67 0 l 196 736 q 203 799 203 775 q 185 855 203 835 q 124 875 168 875 l 110 875 l 117 917 l 283 917 q 362 897 338 917 q 386 824 386 876 q 376 736 386 785 l 336 507 l 711 507 l 783 917 z "},"О":{"ha":1021,"x_min":56,"x_max":990,"o":"m 449 35 q 565 63 514 35 q 656 136 617 90 q 724 241 696 182 q 769 364 751 300 q 794 491 786 428 q 803 608 803 554 q 750 811 803 740 q 597 882 697 882 q 482 854 533 882 q 391 780 431 826 q 324 674 351 733 q 278 550 296 614 q 253 423 261 486 q 244 307 244 360 q 297 106 244 176 q 449 35 349 35 m 56 356 q 96 569 56 464 q 209 758 136 675 q 384 893 282 842 q 608 944 486 944 q 769 916 699 944 q 890 837 840 888 q 965 715 939 786 q 990 561 990 644 q 950 347 990 453 q 837 158 910 242 q 662 24 764 75 q 438 -28 560 -28 q 276 1 347 -28 q 156 80 206 29 q 81 201 107 131 q 56 356 56 272 z "},"П":{"ha":961,"x_min":67,"x_max":950,"o":"m 67 0 q 123 321 100 189 q 161 540 146 453 q 185 677 176 628 q 197 752 193 726 q 202 786 201 778 q 203 799 203 794 q 185 855 203 835 q 124 875 168 875 l 110 875 l 117 917 l 950 917 l 789 0 l 608 0 l 758 854 l 397 854 l 247 0 l 67 0 z "},"Р":{"ha":806,"x_min":67,"x_max":831,"o":"m 489 861 q 456 860 472 861 q 426 856 439 858 q 397 851 411 853 l 322 426 l 406 426 q 506 450 463 426 q 578 513 549 474 q 622 604 607 553 q 638 710 638 656 q 625 782 638 753 q 592 829 613 811 q 544 854 571 847 q 489 861 517 861 m 499 917 q 599 910 542 917 q 708 880 657 903 q 795 813 760 857 q 831 694 831 769 q 798 556 831 617 q 711 455 765 496 q 588 392 657 414 q 444 371 518 371 l 313 371 l 247 0 l 67 0 q 123 322 100 190 q 161 540 146 453 q 185 677 176 628 q 197 752 193 726 q 202 786 201 778 q 203 799 203 794 q 185 855 203 835 q 124 875 168 875 l 110 875 l 117 917 l 499 917 z "},"С":{"ha":944,"x_min":53,"x_max":933,"o":"m 875 621 q 813 815 872 747 q 639 882 754 882 q 460 829 535 882 q 338 694 385 776 q 268 513 290 611 q 246 322 246 414 q 259 209 246 261 q 301 118 272 157 q 377 57 331 79 q 490 35 424 35 q 677 85 586 35 q 835 233 768 136 l 876 196 q 787 96 833 138 q 687 26 740 54 q 572 -15 633 -1 q 438 -28 510 -28 q 271 0 343 -28 q 150 76 199 28 q 77 193 101 125 q 53 342 53 261 q 94 556 53 449 q 209 750 135 664 q 385 890 283 836 q 608 944 488 944 q 708 938 651 944 q 814 910 764 931 q 899 853 864 890 q 933 757 933 817 q 928 691 933 725 q 917 621 924 657 l 875 621 z "},"Т":{"ha":801,"x_min":74,"x_max":885,"o":"m 885 917 l 874 854 l 583 854 l 433 0 l 253 0 l 403 854 l 304 854 q 181 817 231 854 q 115 688 132 781 l 74 688 l 94 806 q 107 847 99 826 q 131 882 115 867 q 171 907 146 897 q 232 917 196 917 l 885 917 z "},"У":{"ha":857,"x_min":40,"x_max":939,"o":"m 186 736 q 130 843 165 803 q 40 889 94 883 l 46 917 l 185 917 q 313 873 264 917 q 383 764 363 829 l 507 372 l 849 917 l 939 917 l 444 132 q 339 26 403 65 q 192 -14 275 -14 l 122 -14 l 131 36 q 192 40 161 36 q 253 53 224 43 q 308 83 282 64 q 354 132 333 101 l 368 153 l 186 736 z "},"Ф":{"ha":1144,"x_min":39,"x_max":1124,"o":"m 549 764 q 412 724 471 763 q 313 625 353 685 q 253 492 274 565 q 233 346 233 418 q 245 251 233 294 q 282 177 257 208 q 345 128 307 146 q 435 111 383 111 l 549 764 m 615 111 q 752 151 693 113 q 851 249 811 189 q 910 382 890 308 q 931 528 931 456 q 919 623 931 579 q 882 698 907 667 q 819 747 857 729 q 729 764 781 764 l 615 111 m 740 826 q 1028 744 932 826 q 1124 521 1124 663 q 1088 328 1124 415 q 983 179 1051 242 q 819 83 915 117 q 604 49 724 49 l 585 -56 l 404 -56 l 424 49 q 135 130 231 49 q 39 353 39 211 q 76 546 39 458 q 180 696 113 633 q 344 792 247 758 q 560 826 440 826 q 563 843 561 835 q 564 860 564 851 q 547 909 564 888 q 482 931 531 931 l 468 931 l 475 972 l 642 972 q 723 952 699 972 q 747 886 747 932 q 745 859 747 874 q 740 826 743 844 z "},"Х":{"ha":896,"x_min":-44,"x_max":933,"o":"m 515 578 l 843 917 l 933 917 l 544 515 l 703 181 q 733 128 715 154 q 772 80 751 101 q 816 44 793 58 q 863 28 839 31 l 858 0 l 706 0 q 635 14 667 0 q 579 50 604 28 q 536 99 554 72 q 506 153 518 126 l 403 369 l 46 0 l -44 0 l 372 432 l 229 736 q 199 789 217 763 q 160 837 181 815 q 115 872 139 858 q 69 889 92 886 l 75 917 l 228 917 q 298 903 267 917 q 353 867 329 889 q 396 817 378 844 q 426 764 414 790 l 515 578 z "},"Ц":{"ha":985,"x_min":67,"x_max":950,"o":"m 67 0 q 123 321 100 189 q 161 540 146 453 q 185 677 176 628 q 197 752 193 726 q 202 786 201 778 q 203 799 203 794 q 185 855 203 835 q 124 875 168 875 l 110 875 l 117 917 l 283 917 q 362 897 338 917 q 386 824 386 876 q 385 808 386 818 q 381 773 385 799 q 368 699 376 747 q 346 569 360 651 q 310 363 332 486 q 257 63 288 239 l 618 63 l 769 917 l 950 917 l 799 63 l 847 63 q 877 51 865 63 q 889 24 889 40 q 888 17 889 22 q 883 -15 888 11 q 868 -98 878 -42 q 840 -257 858 -154 l 771 -257 q 773 -222 772 -237 q 774 -190 774 -206 q 765 -99 774 -135 q 740 -40 757 -62 q 699 -9 724 -18 q 643 0 675 0 l 67 0 z "},"Ч":{"ha":917,"x_min":79,"x_max":906,"o":"m 142 563 q 157 679 142 621 q 172 799 172 738 q 155 855 172 835 q 93 875 138 875 l 79 875 l 86 917 l 253 917 q 331 897 307 917 q 356 824 356 876 q 350 760 356 792 q 338 695 344 728 q 326 630 332 663 q 321 563 321 597 q 365 438 321 479 q 481 396 410 396 q 564 403 524 396 q 638 424 604 411 l 725 917 l 906 917 l 744 0 l 564 0 l 626 361 q 544 340 593 347 q 443 333 494 333 q 219 389 296 333 q 142 563 142 444 z "},"Ш":{"ha":1322,"x_min":67,"x_max":1311,"o":"m 67 0 q 123 321 100 189 q 161 540 146 453 q 185 677 176 628 q 197 752 193 726 q 202 786 201 778 q 203 799 203 794 q 185 855 203 835 q 124 875 168 875 l 110 875 l 117 917 l 283 917 q 362 897 338 917 q 386 824 386 876 q 385 808 386 818 q 381 773 385 799 q 368 699 376 747 q 346 569 360 651 q 310 363 332 486 q 257 63 288 239 l 528 63 l 679 917 l 860 917 l 708 63 l 979 63 l 1131 917 l 1311 917 l 1150 0 l 67 0 z "},"Щ":{"ha":1346,"x_min":67,"x_max":1311,"o":"m 67 0 q 123 321 100 189 q 161 540 146 453 q 185 677 176 628 q 197 752 193 726 q 202 786 201 778 q 203 799 203 794 q 185 855 203 835 q 124 875 168 875 l 110 875 l 117 917 l 283 917 q 362 897 338 917 q 386 824 386 876 q 385 808 386 818 q 381 773 385 799 q 368 699 376 747 q 346 569 360 651 q 310 363 332 486 q 257 63 288 239 l 528 63 l 679 917 l 860 917 l 708 63 l 979 63 l 1131 917 l 1311 917 l 1160 63 l 1208 63 q 1238 51 1226 63 q 1250 24 1250 40 q 1249 17 1250 22 q 1244 -15 1249 11 q 1229 -98 1239 -42 q 1201 -257 1219 -154 l 1132 -257 q 1134 -222 1133 -237 q 1135 -190 1135 -206 q 1126 -99 1135 -135 q 1101 -40 1118 -62 q 1060 -9 1085 -18 q 1004 0 1036 0 l 67 0 z "},"Ъ":{"ha":1000,"x_min":76,"x_max":961,"o":"m 469 542 l 594 542 q 728 531 663 542 q 847 496 794 521 q 930 428 899 471 q 961 321 961 386 q 918 163 961 225 q 808 64 875 100 q 660 14 742 28 q 500 0 578 0 l 376 0 l 194 0 l 344 854 l 329 854 q 203 804 250 854 q 132 639 157 754 l 76 639 l 117 868 q 135 903 119 889 q 174 917 151 917 l 536 917 l 469 542 m 557 486 q 518 484 536 486 q 486 479 500 482 q 457 472 471 475 l 386 69 q 413 63 397 65 q 482 56 440 56 l 489 56 q 696 126 624 56 q 768 328 768 197 q 719 446 768 406 q 564 486 669 486 l 557 486 z "},"Ы":{"ha":1246,"x_min":67,"x_max":1206,"o":"m 422 486 q 386 484 403 486 q 357 479 369 482 l 329 472 l 258 69 q 283 63 268 65 q 347 56 308 56 q 554 126 482 56 q 626 328 626 197 q 577 446 626 406 q 422 486 528 486 m 453 542 q 587 531 521 542 q 705 496 653 521 q 788 428 757 471 q 819 321 819 386 q 776 163 819 225 q 667 64 733 100 q 518 14 600 28 q 358 0 436 0 l 243 0 l 67 0 q 123 321 100 189 q 161 540 146 453 q 185 677 176 628 q 197 752 193 726 q 202 786 201 778 q 203 799 203 794 q 185 855 203 835 q 124 875 168 875 l 110 875 l 117 917 l 283 917 q 362 897 338 917 q 386 824 386 876 q 385 802 386 815 q 379 760 383 789 q 366 679 375 731 q 342 542 357 628 l 453 542 m 1206 917 q 1149 595 1172 726 q 1110 377 1125 464 q 1086 241 1094 290 q 1074 166 1078 192 q 1069 133 1069 140 q 1068 121 1068 125 q 1085 63 1068 83 q 1149 42 1103 42 l 1163 42 l 1156 0 l 989 0 q 909 21 933 0 q 885 96 885 42 q 885 111 885 101 q 890 147 886 121 q 903 225 894 174 q 928 366 913 276 q 967 590 943 456 q 1025 917 990 724 l 1206 917 z "},"Ь":{"ha":872,"x_min":67,"x_max":833,"o":"m 429 486 q 390 484 408 486 q 358 479 372 482 q 329 472 343 475 l 258 69 q 285 63 269 65 q 354 56 313 56 l 361 56 q 568 126 496 56 q 640 328 640 197 q 591 446 640 406 q 436 486 542 486 l 429 486 m 467 542 q 601 531 535 542 q 719 496 667 521 q 802 428 771 471 q 833 321 833 386 q 790 163 833 225 q 681 64 747 100 q 532 14 614 28 q 372 0 450 0 l 242 0 l 67 0 q 123 321 100 189 q 161 540 146 453 q 185 677 176 628 q 197 752 193 726 q 202 786 201 778 q 203 799 203 794 q 185 855 203 835 q 124 875 168 875 l 110 875 l 117 917 l 283 917 q 362 897 338 917 q 386 824 386 876 q 385 802 386 815 q 379 760 383 789 q 366 679 375 731 q 342 542 357 628 l 467 542 z "},"Э":{"ha":944,"x_min":0,"x_max":911,"o":"m 110 621 q 135 738 119 679 q 183 832 151 797 q 316 910 231 876 q 532 944 401 944 q 688 915 618 944 q 808 831 758 885 q 884 705 857 778 q 911 546 911 632 q 870 324 911 428 q 756 141 829 219 q 583 17 683 63 q 361 -28 482 -28 q 131 26 215 -28 q 0 196 46 81 l 56 233 q 162 85 89 136 q 331 35 235 35 q 474 67 411 35 q 584 155 538 100 q 660 281 631 210 q 706 431 690 353 l 275 431 l 286 493 l 715 493 q 724 603 724 553 q 705 735 724 682 q 653 822 686 789 q 576 868 621 854 q 479 882 531 882 q 282 815 364 882 q 151 621 200 747 l 110 621 z "},"Ю":{"ha":1278,"x_min":67,"x_max":1246,"o":"m 735 -28 q 596 -1 658 -28 q 488 74 533 25 q 418 192 443 124 q 393 347 393 261 q 401 444 393 394 l 325 444 l 247 0 l 67 0 q 123 321 100 189 q 161 540 146 453 q 185 677 176 628 q 197 752 193 726 q 202 786 201 778 q 203 799 203 794 q 185 855 203 835 q 124 875 168 875 l 110 875 l 117 917 l 283 917 q 362 897 338 917 q 386 824 386 876 q 385 801 386 815 q 378 756 383 788 q 363 665 374 724 q 336 507 353 606 l 414 507 q 488 686 439 606 q 601 824 536 767 q 744 913 667 882 q 906 944 822 944 q 1044 917 982 944 q 1151 842 1107 890 q 1221 723 1196 793 q 1246 568 1246 653 q 1202 328 1246 438 q 1087 140 1158 219 q 923 17 1015 61 q 735 -28 831 -28 m 746 35 q 867 87 810 35 q 967 223 924 139 q 1035 411 1010 307 q 1060 619 1060 515 q 1015 817 1060 751 q 894 882 969 882 q 774 828 831 882 q 674 691 717 775 q 607 502 632 607 q 582 293 582 397 q 626 99 582 163 q 746 35 671 35 z "},"Я":{"ha":876,"x_min":-51,"x_max":949,"o":"m 556 861 q 483 845 522 861 q 411 796 444 829 q 355 713 378 763 q 332 597 332 664 q 346 524 332 556 q 381 473 360 493 q 431 443 403 453 q 488 433 458 433 l 571 433 l 644 851 q 617 856 632 853 q 588 860 604 858 q 556 861 572 861 m 339 179 q 253 84 293 122 q 178 22 214 46 q 108 -12 142 -1 q 40 -22 74 -22 q -14 -18 14 -22 q -51 -8 -42 -14 l -46 26 q 35 62 -14 31 q 153 179 83 93 l 322 389 q 256 412 289 396 q 197 454 222 428 q 154 516 171 481 q 138 596 138 551 q 159 712 138 663 q 216 797 181 761 q 297 856 251 832 q 390 892 342 879 q 483 911 438 906 q 565 917 529 917 l 949 917 l 942 875 l 928 875 q 840 837 865 875 q 806 736 815 799 l 676 0 l 494 0 l 560 378 l 499 378 l 339 179 z "},"а":{"ha":764,"x_min":33,"x_max":725,"o":"m 411 604 q 347 582 375 604 q 297 525 318 560 q 260 446 275 490 q 235 356 244 401 q 221 270 225 311 q 217 200 217 229 q 239 91 217 133 q 314 49 261 49 q 371 63 346 49 q 415 93 396 76 q 454 139 438 113 l 521 514 q 497 558 513 539 q 464 590 485 575 q 411 604 443 604 m 394 667 q 464 655 436 667 q 508 628 492 643 q 540 590 528 611 l 547 590 l 607 653 l 725 653 l 635 139 l 611 0 l 493 0 l 454 63 l 447 63 q 403 24 428 40 q 349 -3 381 8 q 275 -14 317 -14 q 167 6 213 -14 q 92 58 122 25 q 48 138 63 92 q 33 236 33 183 q 58 385 33 308 q 128 524 82 461 q 241 626 174 586 q 394 667 308 667 z "},"б":{"ha":764,"x_min":50,"x_max":781,"o":"m 415 549 q 328 510 364 549 q 271 415 293 471 q 239 301 249 360 q 229 200 229 242 q 238 126 229 156 q 261 80 247 97 q 293 56 275 63 q 328 49 311 49 q 415 88 379 49 q 472 181 450 126 q 503 295 493 236 q 513 396 513 354 q 503 469 513 439 q 481 516 494 499 q 449 541 467 533 q 415 549 432 549 m 425 713 q 340 682 381 703 q 266 627 300 661 q 206 544 232 593 q 165 431 179 496 l 172 431 q 286 563 218 514 q 454 611 354 611 q 553 597 508 611 q 630 555 597 583 q 681 483 663 526 q 699 381 699 440 q 668 203 699 278 q 585 81 638 129 q 464 10 533 33 q 317 -14 394 -14 q 120 53 190 -14 q 50 246 50 119 q 81 485 50 379 q 163 669 113 592 q 274 792 213 746 q 394 851 335 838 l 594 896 q 692 924 656 910 q 739 965 729 939 l 781 965 l 761 854 q 735 801 757 828 q 661 764 714 775 l 425 713 z "},"в":{"ha":733,"x_min":39,"x_max":675,"o":"m 386 597 q 357 595 375 597 q 322 588 339 593 l 285 375 l 333 375 q 390 384 363 375 q 439 410 418 393 q 473 453 460 428 q 486 508 486 478 q 455 576 486 554 q 386 597 424 597 m 39 0 q 75 210 60 124 q 100 354 90 296 q 115 446 110 413 q 124 498 121 479 q 127 524 126 517 q 128 535 128 531 q 110 591 128 571 q 49 611 93 611 l 42 611 l 49 653 l 421 653 q 606 617 536 653 q 675 511 675 582 q 619 394 675 436 q 471 340 563 351 q 599 297 550 331 q 649 204 649 263 q 624 113 649 151 q 553 49 599 74 q 444 12 507 24 q 307 0 382 0 l 218 0 l 39 0 m 292 56 q 357 65 326 56 q 410 94 388 75 q 447 142 433 114 q 461 210 461 171 q 424 287 461 261 q 322 313 388 313 l 274 313 l 231 65 q 263 58 246 60 q 292 56 281 56 z "},"г":{"ha":625,"x_min":-19,"x_max":590,"o":"m 275 49 q 409 95 358 49 q 483 208 460 142 l 532 208 q 505 103 521 146 q 457 35 489 61 q 372 -3 425 8 q 236 -14 319 -14 q 52 25 124 -14 q -19 140 -19 64 q -3 217 -19 183 q 42 278 13 251 q 115 328 72 306 q 213 372 158 351 l 301 407 q 388 456 357 429 q 419 529 419 482 q 395 583 419 563 q 317 604 371 604 q 182 558 233 604 q 108 444 131 511 l 60 444 q 87 549 71 507 q 135 618 103 592 q 219 656 167 644 q 356 667 272 667 q 525 628 460 667 q 590 514 590 589 q 531 379 590 433 q 375 286 472 325 l 297 256 q 192 202 232 231 q 151 124 151 174 q 178 69 151 90 q 275 49 206 49 z "},"д":{"ha":781,"x_min":35,"x_max":735,"o":"m 608 542 q 610 569 610 556 q 611 596 611 582 q 600 697 611 650 q 564 779 589 744 q 499 834 539 814 q 400 854 458 854 q 340 848 369 854 q 283 833 310 842 q 236 815 257 824 q 206 800 215 806 l 182 858 q 220 879 194 867 q 280 903 246 892 q 356 923 314 915 q 442 931 397 931 q 576 901 521 931 q 667 822 632 872 q 719 702 703 771 q 735 554 735 633 q 708 325 735 429 q 629 145 682 221 q 498 28 576 69 q 317 -14 419 -14 q 192 5 244 -14 q 104 58 139 24 q 52 140 69 93 q 35 243 35 186 q 63 401 35 326 q 141 531 90 475 q 263 620 192 588 q 419 653 333 653 q 540 624 488 653 q 608 542 592 594 m 521 318 q 529 417 529 368 q 524 483 529 451 q 505 539 518 515 q 472 576 492 563 q 422 590 451 590 q 335 552 372 590 q 272 458 297 514 q 233 335 246 401 q 219 215 219 269 q 250 88 219 128 q 328 49 281 49 q 441 113 386 49 q 521 318 496 178 z "},"е":{"ha":706,"x_min":35,"x_max":681,"o":"m 378 340 q 427 356 406 340 q 463 394 449 371 q 485 447 478 418 q 493 503 493 475 q 467 580 493 556 q 410 604 442 604 q 354 591 381 604 q 305 547 328 578 q 263 465 282 515 q 232 340 244 415 l 378 340 m 681 497 q 653 396 681 438 q 580 328 625 354 q 478 290 535 301 q 367 278 422 278 l 221 278 q 213 200 213 233 q 245 86 213 124 q 333 49 278 49 q 456 82 406 49 q 551 164 507 115 l 589 132 q 544 83 569 108 q 483 35 518 57 q 403 0 449 14 q 301 -14 358 -14 q 188 6 238 -14 q 105 60 139 25 q 53 145 71 96 q 35 253 35 194 q 62 406 35 332 q 139 538 89 481 q 260 631 189 596 q 421 667 332 667 q 613 622 544 667 q 681 497 681 576 z "},"ж":{"ha":1029,"x_min":-65,"x_max":1033,"o":"m 471 653 l 651 653 l 597 340 l 788 546 q 835 592 813 572 q 884 626 858 613 q 940 646 910 639 q 1006 653 969 653 l 1033 653 l 1028 617 q 949 601 986 617 q 876 547 911 585 l 725 383 l 854 139 q 909 65 881 90 q 965 33 938 40 l 960 0 q 918 -10 949 -6 q 861 -14 888 -14 q 758 13 803 -14 q 676 111 714 40 l 586 282 l 538 0 l 357 0 l 406 282 l 257 111 q 140 13 194 40 q 28 -14 86 -14 q -27 -10 1 -14 q -65 0 -56 -6 l -60 33 q 8 65 -29 40 q 88 139 44 90 l 303 383 l 210 547 q 156 601 188 585 q 83 617 125 617 l 89 653 l 117 653 q 229 626 190 653 q 299 546 268 599 l 417 340 l 471 653 z "},"з":{"ha":640,"x_min":-8,"x_max":590,"o":"m 164 368 l 233 368 q 362 401 321 368 q 403 513 403 435 q 371 583 403 561 q 296 604 339 604 q 183 562 233 604 q 117 451 132 519 l 75 451 q 97 551 86 510 q 139 618 108 592 q 224 656 169 644 q 342 667 279 667 q 523 631 456 667 q 590 518 590 594 q 536 393 590 442 q 394 333 482 344 q 513 287 469 324 q 556 196 556 250 q 529 101 556 140 q 458 35 503 61 q 355 -2 414 10 q 229 -14 296 -14 q 75 18 131 -14 q -8 97 19 50 l 39 132 q 60 105 47 119 q 91 78 72 90 q 136 57 110 65 q 199 49 163 49 q 264 58 233 49 q 318 86 294 67 q 356 136 342 106 q 369 211 369 167 q 338 282 369 258 q 222 306 306 306 l 153 306 l 164 368 z "},"и":{"ha":788,"x_min":26,"x_max":749,"o":"m 113 472 q 119 535 119 511 q 102 591 119 571 q 40 611 85 611 l 26 611 l 33 653 l 200 653 q 278 633 254 653 q 303 560 303 613 q 293 472 303 521 q 267 315 276 374 q 252 225 257 257 q 246 180 247 193 q 244 158 244 167 q 269 73 244 97 q 338 49 293 49 q 394 63 369 49 q 439 93 419 76 q 478 139 461 113 l 568 653 l 749 653 l 635 0 l 517 0 l 478 63 l 471 63 q 419 24 447 40 q 360 -3 394 8 q 285 -14 326 -14 q 119 28 174 -14 q 65 165 65 71 q 66 187 65 174 q 72 231 67 200 q 86 319 76 263 q 113 472 96 375 z "},"й":{"ha":788,"x_min":26,"x_max":749,"o":"m 113 472 q 119 535 119 511 q 102 591 119 571 q 40 611 85 611 l 26 611 l 33 653 l 200 653 q 278 633 254 653 q 303 560 303 613 q 293 472 303 521 q 267 315 276 374 q 252 225 257 257 q 246 180 247 193 q 244 158 244 167 q 269 73 244 97 q 338 49 293 49 q 394 63 369 49 q 439 93 419 76 q 478 139 461 113 l 568 653 l 749 653 l 635 0 l 517 0 l 478 63 l 471 63 q 419 24 447 40 q 360 -3 394 8 q 285 -14 326 -14 q 119 28 174 -14 q 65 165 65 71 q 66 187 65 174 q 72 231 67 200 q 86 319 76 263 q 113 472 96 375 m 458 799 q 559 820 517 799 q 628 868 601 842 l 661 839 q 567 744 625 781 q 442 708 510 708 q 329 744 374 708 q 269 839 285 781 l 314 868 q 365 820 329 842 q 458 799 400 799 z "},"к":{"ha":732,"x_min":42,"x_max":736,"o":"m 274 272 l 226 0 l 46 0 q 82 210 67 124 q 107 354 97 296 q 122 446 117 413 q 131 498 128 479 q 134 524 133 517 q 135 535 135 531 q 117 591 135 571 q 56 611 100 611 l 42 611 l 49 653 l 215 653 q 294 633 269 653 q 318 560 318 613 q 317 539 318 551 q 313 503 315 526 q 303 442 310 481 q 286 340 296 403 l 490 546 q 539 591 515 571 q 588 625 563 611 q 643 646 614 639 q 708 653 672 653 l 736 653 l 731 617 q 652 600 689 617 q 579 547 615 583 l 415 383 l 557 139 q 668 33 610 46 l 663 0 q 621 -10 651 -6 q 564 -14 590 -14 q 458 10 506 -14 q 376 97 411 35 l 274 272 z "},"л":{"ha":790,"x_min":-60,"x_max":751,"o":"m 346 486 q 287 249 321 346 q 211 92 253 151 q 121 6 169 32 q 21 -21 72 -21 q -25 -17 -1 -21 q -60 -8 -49 -12 l -53 32 q 20 59 -15 38 q 88 130 56 81 q 148 265 119 179 q 201 486 176 350 q 206 533 206 511 q 188 590 206 568 q 119 611 169 611 l 126 653 l 751 653 l 638 0 l 457 0 l 560 590 l 364 590 l 346 486 z "},"м":{"ha":929,"x_min":18,"x_max":872,"o":"m 872 667 q 822 384 840 488 q 796 225 804 281 q 785 149 788 169 q 783 117 783 129 q 857 0 783 14 l 850 -35 q 665 13 722 -35 q 608 158 608 61 q 609 180 608 167 q 615 226 610 193 q 630 317 619 258 q 658 478 640 376 l 375 0 l 329 0 l 174 492 l 88 1 l 18 1 l 132 653 l 301 653 l 433 235 l 690 667 l 872 667 z "},"н":{"ha":810,"x_min":42,"x_max":747,"o":"m 278 299 l 226 0 l 46 0 q 82 210 67 124 q 107 354 97 296 q 122 446 117 413 q 131 498 128 479 q 134 524 133 517 q 135 535 135 531 q 117 591 135 571 q 56 611 100 611 l 42 611 l 49 653 l 215 653 q 294 633 269 653 q 318 560 318 613 q 317 540 318 551 q 313 506 315 528 q 304 450 310 485 q 289 361 299 415 l 511 361 l 563 653 l 743 653 q 706 443 721 529 q 681 299 690 357 q 665 208 671 242 q 657 156 660 174 q 653 132 654 139 q 653 121 653 125 q 670 63 653 83 q 733 42 688 42 l 747 42 l 740 0 l 574 0 q 494 21 518 0 q 469 96 469 42 q 471 115 469 104 q 475 148 472 126 q 484 206 478 169 q 500 299 490 242 l 278 299 z "},"о":{"ha":768,"x_min":33,"x_max":714,"o":"m 325 49 q 421 92 382 49 q 484 195 460 135 q 519 322 508 256 q 529 435 529 389 q 503 558 529 513 q 422 604 478 604 q 326 561 365 604 q 263 458 288 518 q 228 331 239 397 q 218 218 218 264 q 244 94 218 140 q 325 49 269 49 m 33 256 q 63 408 33 333 q 147 540 93 482 q 273 632 200 597 q 433 667 346 667 q 554 647 501 667 q 642 590 607 626 q 696 505 678 554 q 714 397 714 456 q 684 245 714 319 q 601 113 654 171 q 474 21 547 56 q 314 -14 401 -14 q 193 6 246 -14 q 105 63 140 26 q 51 148 69 99 q 33 256 33 197 z "},"п":{"ha":801,"x_min":42,"x_max":735,"o":"m 447 597 q 368 585 403 597 q 313 554 333 572 q 310 481 317 514 l 225 0 l 44 0 l 126 472 q 133 538 133 511 q 117 592 133 572 q 56 611 100 611 l 42 611 l 49 653 l 186 653 q 258 641 233 653 q 294 601 283 629 q 373 646 322 625 q 508 667 424 667 q 678 623 621 667 q 735 483 735 579 q 733 449 735 467 q 728 411 731 431 l 656 0 l 475 0 l 547 413 q 553 476 553 444 q 524 570 553 543 q 447 597 494 597 z "},"р":{"ha":790,"x_min":-3,"x_max":735,"o":"m 494 667 q 601 648 556 667 q 676 595 646 629 q 720 515 706 561 q 735 413 735 468 q 709 254 735 331 q 635 118 683 178 q 520 22 588 58 q 368 -14 453 -14 q 308 -8 333 -14 q 265 7 283 -1 q 229 28 244 15 l 178 -264 l -3 -264 q 53 58 31 -74 q 92 277 76 190 q 115 414 107 364 q 128 490 124 464 q 133 524 132 515 q 133 536 133 532 q 117 592 133 572 q 56 611 100 611 l 42 611 l 49 653 l 186 653 q 259 640 233 653 q 293 594 285 628 q 327 618 307 606 q 372 642 347 631 q 428 660 397 653 q 494 667 458 667 m 456 604 q 367 585 403 604 q 311 547 332 565 l 311 540 q 312 533 311 538 q 313 521 313 528 q 313 513 313 518 q 310 494 313 508 q 303 453 308 481 q 291 380 299 426 q 271 263 283 333 q 240 90 258 192 q 269 69 253 78 q 305 55 285 61 q 351 49 325 49 q 421 71 390 49 q 474 128 451 93 q 510 209 496 164 q 534 299 525 254 q 547 384 543 343 q 551 453 551 425 q 530 563 551 522 q 456 604 508 604 z "},"с":{"ha":692,"x_min":35,"x_max":660,"o":"m 444 604 q 339 563 382 604 q 269 463 296 522 q 230 336 242 403 q 218 218 218 269 q 354 49 218 49 q 477 82 426 49 q 572 164 528 115 l 610 132 q 565 83 590 108 q 503 35 539 57 q 422 0 468 14 q 315 -14 375 -14 q 190 6 243 -14 q 103 62 138 26 q 51 145 68 97 q 35 250 35 193 q 63 410 35 335 q 144 543 92 486 q 269 633 196 600 q 435 667 343 667 q 503 665 464 667 q 576 652 542 663 q 635 619 611 642 q 660 556 660 597 q 655 499 660 532 q 642 424 650 467 l 600 424 q 601 440 601 432 q 601 457 601 449 q 560 567 601 531 q 444 604 519 604 z "},"т":{"ha":1149,"x_min":42,"x_max":1082,"o":"m 301 600 q 377 644 329 622 q 488 667 425 667 q 556 658 526 667 q 608 636 586 649 q 644 610 631 624 q 665 588 658 597 q 747 642 697 618 q 876 667 796 667 q 1028 623 975 667 q 1082 483 1082 579 q 1081 460 1082 475 q 1072 397 1079 444 q 1048 257 1064 350 q 1003 0 1032 164 l 822 0 q 855 187 842 110 q 877 316 868 264 q 891 399 886 368 q 898 447 896 429 q 901 471 900 464 q 901 483 901 478 q 877 572 901 546 q 815 597 853 597 q 742 582 776 597 q 688 544 708 567 q 690 532 689 539 q 693 515 692 525 q 694 492 694 506 q 694 478 694 486 q 691 453 693 471 q 683 405 689 436 q 669 321 678 374 q 647 190 660 268 q 614 0 633 111 l 433 0 q 466 187 453 110 q 488 316 479 264 q 502 399 497 368 q 509 447 507 429 q 512 471 511 464 q 513 483 513 478 q 488 572 513 546 q 426 597 464 597 q 360 578 394 597 q 310 542 326 560 l 310 535 q 310 528 310 532 q 311 517 311 524 q 310 508 311 514 q 308 485 310 503 q 301 436 306 468 q 286 348 296 404 q 262 207 276 292 q 225 0 247 122 l 44 0 q 81 210 65 124 q 106 356 96 297 q 121 447 115 414 q 129 499 126 481 q 133 525 132 518 q 133 536 133 532 q 117 592 133 572 q 56 611 100 611 l 42 611 l 49 653 l 186 653 q 257 641 228 653 q 296 600 286 629 l 301 600 z "},"у":{"ha":707,"x_min":6,"x_max":725,"o":"m 314 -90 q 253 -183 282 -147 q 193 -240 224 -219 q 130 -269 163 -261 q 61 -278 97 -278 l 6 -278 l 14 -229 q 81 -223 50 -229 q 140 -201 113 -217 q 191 -160 167 -186 q 239 -94 215 -135 l 281 -19 l 128 528 q 85 607 113 581 q 18 639 58 633 l 22 667 l 144 667 q 249 637 207 667 q 306 556 290 607 l 404 206 l 651 653 l 725 653 l 314 -90 z "},"ф":{"ha":981,"x_min":36,"x_max":924,"o":"m 513 35 q 587 67 547 40 q 660 142 626 94 q 717 258 694 190 q 739 415 739 326 q 702 558 739 508 q 615 618 665 608 l 513 35 m 449 618 q 374 585 414 611 q 301 510 335 558 q 244 394 267 463 q 222 238 222 326 q 258 95 222 144 q 346 35 294 46 l 449 618 m 450 667 q 460 724 456 701 q 466 760 464 746 q 469 783 468 775 q 469 799 469 792 q 452 855 469 835 q 390 875 435 875 l 376 875 l 383 917 l 550 917 q 628 897 604 917 q 653 824 653 876 q 652 804 653 815 q 649 776 651 793 q 642 732 646 758 q 631 667 638 706 q 849 583 775 657 q 924 394 924 508 q 894 240 924 311 q 810 113 864 168 q 680 25 756 58 q 511 -14 604 -8 l 467 -264 l 286 -264 l 331 -14 q 111 69 186 -4 q 36 258 36 143 q 66 413 36 342 q 150 540 96 485 q 281 628 204 594 q 450 667 357 661 z "},"х":{"ha":690,"x_min":-35,"x_max":703,"o":"m 250 290 l 157 514 q 107 592 136 564 q 47 625 78 619 l 51 653 l 183 653 q 286 623 251 653 q 342 542 321 593 l 389 429 l 610 653 l 703 653 l 418 364 l 513 139 q 563 61 533 89 q 622 28 592 33 l 618 0 l 486 0 q 383 30 418 0 q 328 111 349 60 l 279 224 l 58 0 l -35 0 l 250 290 z "},"ц":{"ha":796,"x_min":21,"x_max":743,"o":"m 465 63 q 392 11 439 36 q 279 -14 346 -14 q 114 28 168 -14 q 60 165 60 71 q 61 202 60 183 q 67 242 63 221 l 107 472 q 112 505 110 489 q 114 535 114 521 q 97 591 114 571 q 35 611 79 611 l 21 611 l 28 653 l 194 653 q 273 633 249 653 q 297 560 297 613 q 295 520 299 542 q 288 472 292 499 l 247 240 q 239 158 239 192 q 263 73 239 97 q 332 49 288 49 q 378 57 357 49 q 417 79 400 65 q 449 108 435 93 q 472 139 463 124 l 563 653 l 743 653 l 639 63 l 681 63 q 710 51 699 63 q 722 24 722 40 q 722 19 722 21 q 721 14 721 17 l 679 -222 l 617 -222 q 619 -188 618 -204 q 619 -158 619 -172 q 609 -78 619 -108 q 583 -33 599 -49 q 549 -9 568 -17 q 514 6 531 -1 q 485 26 497 14 q 471 63 474 38 l 465 63 z "},"ч":{"ha":768,"x_min":42,"x_max":729,"o":"m 117 386 q 126 458 117 422 q 135 535 135 494 q 117 591 135 571 q 56 611 100 611 l 42 611 l 49 653 l 215 653 q 294 633 269 653 q 318 560 318 613 q 308 473 318 515 q 297 383 297 431 q 322 308 297 331 q 392 285 347 285 q 444 290 424 285 q 488 307 465 296 l 549 653 l 729 653 l 615 0 l 435 0 l 478 247 q 419 230 454 238 q 349 222 385 222 q 258 231 300 222 q 184 260 215 240 q 135 310 153 279 q 117 386 117 342 z "},"ш":{"ha":1136,"x_min":21,"x_max":1097,"o":"m 706 49 q 768 74 732 49 q 826 139 804 100 l 917 653 l 1097 653 l 983 0 l 865 0 l 826 63 l 819 63 q 747 9 786 32 q 646 -14 708 -14 q 581 -5 610 -14 q 531 17 551 4 q 496 42 510 29 q 476 65 482 56 q 394 10 443 35 q 265 -14 346 -14 q 113 29 167 -14 q 60 168 60 72 q 61 203 60 185 q 67 242 63 221 l 107 472 q 112 505 110 489 q 114 535 114 521 q 97 591 114 571 q 35 611 79 611 l 21 611 l 28 653 l 194 653 q 273 633 249 653 q 297 560 297 613 q 294 520 297 542 q 288 472 292 499 l 247 240 q 242 203 244 221 q 240 169 240 185 q 265 81 240 107 q 326 56 289 56 q 399 71 365 56 q 454 108 433 86 q 447 160 447 126 q 456 242 447 189 l 528 653 l 708 653 l 636 240 q 628 161 628 194 q 650 74 628 99 q 706 49 672 49 z "},"щ":{"ha":1150,"x_min":21,"x_max":1097,"o":"m 819 63 q 747 9 786 32 q 646 -14 708 -14 q 581 -5 610 -14 q 531 17 551 4 q 496 42 510 29 q 476 65 482 56 q 394 10 443 35 q 265 -14 346 -14 q 113 29 167 -14 q 60 168 60 72 q 61 203 60 185 q 67 242 63 221 l 107 472 q 112 505 110 489 q 114 535 114 521 q 97 591 114 571 q 35 611 79 611 l 21 611 l 28 653 l 194 653 q 273 633 249 653 q 297 560 297 613 q 294 520 297 542 q 288 472 292 499 l 247 240 q 242 203 244 221 q 240 169 240 185 q 265 81 240 107 q 326 56 289 56 q 399 71 365 56 q 454 108 433 86 q 447 160 447 126 q 456 242 447 189 l 528 653 l 708 653 l 636 240 q 628 161 628 194 q 650 74 628 99 q 706 49 672 49 q 768 74 732 49 q 826 139 804 100 l 917 653 l 1097 653 l 993 63 l 1035 63 q 1065 51 1053 63 q 1076 24 1076 40 q 1076 19 1076 21 q 1075 14 1075 17 l 1033 -222 l 971 -222 q 973 -188 972 -204 q 974 -158 974 -172 q 963 -78 974 -108 q 938 -33 953 -49 q 903 -9 922 -17 q 868 6 885 -1 q 840 26 851 14 q 825 63 828 38 l 819 63 z "},"ъ":{"ha":829,"x_min":42,"x_max":771,"o":"m 268 590 q 156 539 194 585 q 97 403 118 493 l 42 403 l 76 604 q 96 639 79 625 q 133 653 113 653 l 460 653 l 414 389 l 518 389 q 703 348 636 389 q 771 228 771 307 q 747 131 771 174 q 680 60 722 89 q 578 15 638 31 q 450 0 519 0 l 347 0 l 165 0 l 268 590 m 357 65 q 390 58 372 60 q 418 56 407 56 q 477 64 447 56 q 531 93 507 72 q 570 148 556 114 q 585 233 585 182 q 551 312 585 290 q 467 333 517 333 q 437 331 456 333 q 403 324 418 329 l 357 65 z "},"ы":{"ha":1032,"x_min":42,"x_max":969,"o":"m 238 65 q 270 58 253 60 q 299 56 288 56 q 350 64 324 56 q 399 93 376 72 q 437 148 422 114 q 451 233 451 182 q 419 312 451 290 q 347 333 388 333 q 317 331 336 333 q 283 324 299 329 l 238 65 m 46 0 q 82 210 67 124 q 107 354 97 296 q 122 446 117 413 q 131 498 128 479 q 134 524 133 517 q 135 535 135 531 q 117 591 135 571 q 56 611 100 611 l 42 611 l 49 653 l 215 653 q 294 633 269 653 q 318 560 318 613 q 317 540 318 551 q 314 509 317 528 q 306 462 311 490 q 294 389 301 433 l 385 389 q 570 348 503 389 q 638 228 638 307 q 613 131 638 174 q 547 60 589 89 q 445 15 504 31 q 317 0 386 0 l 229 0 l 46 0 m 965 653 q 928 443 943 529 q 903 299 913 357 q 888 208 893 242 q 879 156 882 174 q 876 132 876 139 q 875 121 875 125 q 892 63 875 83 q 956 42 910 42 l 969 42 l 963 0 l 796 0 q 716 21 740 0 q 692 96 692 42 q 692 110 692 101 q 696 138 693 118 q 705 192 699 157 q 722 288 711 228 q 747 438 732 349 q 785 653 763 526 l 965 653 z "},"ь":{"ha":710,"x_min":42,"x_max":651,"o":"m 238 65 q 270 58 253 60 q 299 56 288 56 q 358 64 328 56 q 412 93 388 72 q 451 148 436 114 q 465 233 465 182 q 431 312 465 290 q 347 333 397 333 q 317 331 336 333 q 283 324 299 329 l 238 65 m 46 0 q 82 210 67 124 q 107 354 97 296 q 122 446 117 413 q 131 498 128 479 q 134 524 133 517 q 135 535 135 531 q 117 591 135 571 q 56 611 100 611 l 42 611 l 49 653 l 215 653 q 294 633 269 653 q 318 560 318 613 q 317 540 318 551 q 314 509 317 528 q 306 462 311 490 q 294 389 301 433 l 399 389 q 584 348 517 389 q 651 228 651 307 q 627 131 651 174 q 560 60 603 89 q 459 15 518 31 q 331 0 400 0 l 229 0 l 46 0 z "},"э":{"ha":700,"x_min":0,"x_max":644,"o":"m 332 604 q 191 558 249 604 q 113 424 133 513 l 71 424 q 84 493 78 463 q 98 547 90 524 q 115 588 106 571 q 140 618 125 606 q 228 656 171 644 q 364 667 285 667 q 489 647 436 667 q 576 591 542 626 q 628 507 611 556 q 644 401 644 458 q 617 244 644 319 q 537 113 589 169 q 411 21 485 56 q 244 -14 338 -14 q 143 0 185 -14 q 73 35 101 14 q 28 83 44 57 q 0 132 11 108 l 49 164 q 78 119 63 140 q 115 82 94 97 q 164 58 136 67 q 228 49 192 49 q 443 292 389 49 l 181 292 l 190 354 l 453 354 q 457 392 456 374 q 458 428 458 411 q 424 560 458 517 q 332 604 390 604 z "},"ю":{"ha":1025,"x_min":42,"x_max":969,"o":"m 592 -14 q 481 6 529 -14 q 399 63 432 26 q 348 149 365 99 q 331 257 331 199 q 331 278 331 268 q 333 299 332 288 l 278 299 l 226 0 l 46 0 q 82 210 67 124 q 107 354 97 296 q 122 446 117 413 q 131 498 128 479 q 134 524 133 517 q 135 535 135 531 q 117 591 135 571 q 56 611 100 611 l 42 611 l 49 653 l 215 653 q 294 633 269 653 q 318 560 318 613 q 317 540 318 551 q 313 506 315 528 q 304 450 310 485 q 289 361 299 415 l 346 361 q 397 482 363 426 q 478 578 431 538 q 585 643 526 619 q 711 667 644 667 q 820 647 772 667 q 901 590 868 626 q 952 505 935 554 q 969 397 969 456 q 940 239 969 314 q 858 108 910 164 q 738 19 807 51 q 592 -14 669 -14 m 603 49 q 680 90 646 49 q 738 191 714 131 q 775 321 763 251 q 788 447 788 390 q 766 561 788 518 q 700 604 744 604 q 631 572 664 604 q 572 485 597 540 q 531 358 546 431 q 515 206 515 286 q 536 91 515 133 q 603 49 557 49 z "},"я":{"ha":738,"x_min":-44,"x_max":778,"o":"m 374 326 q 417 331 399 326 q 438 336 436 336 l 482 588 q 463 592 481 586 q 421 597 446 597 q 365 589 393 597 q 315 560 338 581 q 277 508 292 540 q 263 429 263 476 q 295 351 263 375 q 374 326 328 326 m 560 0 l 379 0 l 426 269 l 365 269 l 253 104 q 163 10 210 42 q 42 -21 117 -21 q -8 -17 15 -21 q -44 -7 -31 -12 l -40 29 q 33 65 -1 35 q 96 132 68 94 l 206 276 q 108 324 143 286 q 74 418 74 363 q 101 526 74 482 q 175 599 128 571 q 285 640 222 628 q 417 653 347 653 l 778 653 l 771 611 l 764 611 q 676 573 701 611 q 642 472 651 535 l 560 0 z "},"ё":{"ha":706,"x_min":35,"x_max":681,"o":"m 378 340 q 427 356 406 340 q 463 394 449 371 q 485 447 478 418 q 493 503 493 475 q 467 580 493 556 q 410 604 442 604 q 354 591 381 604 q 305 547 328 578 q 263 465 282 515 q 232 340 244 415 l 378 340 m 681 497 q 653 396 681 438 q 580 328 625 354 q 478 290 535 301 q 367 278 422 278 l 221 278 q 213 200 213 233 q 245 86 213 124 q 333 49 278 49 q 456 82 406 49 q 551 164 507 115 l 589 132 q 544 83 569 108 q 483 35 518 57 q 403 0 449 14 q 301 -14 358 -14 q 188 6 238 -14 q 105 60 139 25 q 53 145 71 96 q 35 253 35 194 q 62 406 35 332 q 139 538 89 481 q 260 631 189 596 q 421 667 332 667 q 613 622 544 667 q 681 497 681 576 m 408 835 q 381 771 408 799 q 315 743 354 743 q 267 760 283 743 q 250 804 250 778 q 276 869 250 840 q 343 899 303 899 q 392 881 375 899 q 408 835 408 863 m 658 835 q 631 771 658 799 q 565 743 604 743 q 517 760 533 743 q 500 804 500 778 q 526 869 500 840 q 593 899 553 899 q 642 881 625 899 q 658 835 658 863 z "},"ђ":{"ha":760,"x_min":17,"x_max":682,"o":"m 626 76 q 519 -127 603 -60 q 283 -194 435 -194 l 289 -160 q 387 -94 349 -149 q 446 76 425 -39 q 476 253 465 189 q 493 352 488 318 q 500 399 499 386 q 501 418 501 411 q 477 504 501 481 q 415 528 453 528 q 347 509 383 528 q 278 461 310 490 l 197 0 l 17 0 l 138 688 l 40 688 l 51 750 l 149 750 l 163 833 l 247 917 l 358 917 l 329 750 l 468 750 l 457 688 l 318 688 l 290 528 q 374 578 326 560 q 468 597 421 597 q 550 589 511 597 q 618 560 589 581 q 665 506 647 540 q 682 417 682 471 q 681 396 682 408 q 674 349 679 383 q 657 251 668 315 q 626 76 646 188 z "},"ѓ":{"ha":625,"x_min":-19,"x_max":590,"o":"m 275 49 q 409 95 358 49 q 483 208 460 142 l 532 208 q 505 103 521 146 q 457 35 489 61 q 372 -3 425 8 q 236 -14 319 -14 q 52 25 124 -14 q -19 140 -19 64 q -3 217 -19 183 q 42 278 13 251 q 115 328 72 306 q 213 372 158 351 l 301 407 q 388 456 357 429 q 419 529 419 482 q 395 583 419 563 q 317 604 371 604 q 182 558 233 604 q 108 444 131 511 l 60 444 q 87 549 71 507 q 135 618 103 592 q 219 656 167 644 q 356 667 272 667 q 525 628 460 667 q 590 514 590 589 q 531 379 590 433 q 375 286 472 325 l 297 256 q 192 202 232 231 q 151 124 151 174 q 178 69 151 90 q 275 49 206 49 m 349 713 l 272 713 l 365 907 l 531 907 l 349 713 z "},"є":{"ha":700,"x_min":35,"x_max":660,"o":"m 444 604 q 319 542 375 604 q 235 354 263 481 l 497 354 l 488 292 l 225 292 q 221 253 222 271 q 219 217 219 235 q 354 49 219 49 q 477 82 426 49 q 572 164 528 115 l 610 132 q 565 83 590 108 q 503 35 539 57 q 422 0 468 14 q 315 -14 375 -14 q 190 6 243 -14 q 103 62 138 26 q 51 145 68 97 q 35 250 35 193 q 63 407 35 332 q 142 540 90 482 q 267 632 193 597 q 435 667 342 667 q 605 644 550 667 q 660 556 660 621 q 655 499 660 532 q 642 424 650 467 l 600 424 q 601 440 601 432 q 601 457 601 449 q 560 567 601 529 q 444 604 519 604 z "},"ѕ":{"ha":651,"x_min":18,"x_max":599,"o":"m 232 49 q 283 53 256 49 q 335 71 311 58 q 374 103 358 83 q 389 154 389 124 q 358 212 389 189 q 282 256 326 235 l 215 286 q 108 357 147 318 q 69 451 69 396 q 97 548 69 507 q 167 615 124 589 q 263 654 210 642 q 368 667 315 667 q 438 664 397 667 q 513 650 478 661 q 574 615 549 639 q 599 549 599 590 q 595 499 599 525 q 586 444 592 474 l 538 444 l 538 449 q 502 559 538 514 q 385 604 467 604 q 338 598 361 604 q 294 578 314 592 q 261 544 274 564 q 249 494 249 524 q 270 444 249 464 q 331 407 292 424 l 408 372 q 527 300 486 338 q 568 204 568 263 q 538 104 568 146 q 463 36 508 63 q 360 -2 417 10 q 249 -14 303 -14 q 179 -11 219 -14 q 103 3 139 -8 q 43 38 68 14 q 18 104 18 63 q 22 153 18 128 q 31 208 25 179 l 79 208 l 79 204 q 115 94 79 139 q 232 49 150 49 z "},"і":{"ha":376,"x_min":42,"x_max":356,"o":"m 356 828 q 334 758 356 788 q 264 728 313 728 q 198 752 219 728 q 176 811 176 776 q 201 880 176 849 q 268 911 225 911 q 334 887 313 911 q 356 828 356 863 m 128 472 q 135 535 135 511 q 117 591 135 571 q 56 611 100 611 l 42 611 l 49 653 l 215 653 q 294 633 269 653 q 318 560 318 613 q 315 520 318 542 q 308 472 313 499 l 226 0 l 46 0 l 128 472 z "},"ї":{"ha":376,"x_min":42,"x_max":504,"o":"m 247 842 q 223 773 247 804 q 156 742 199 742 q 90 766 111 742 q 68 825 68 790 q 92 894 68 863 q 160 925 117 925 q 226 901 204 925 q 247 842 247 876 m 504 842 q 480 773 504 804 q 413 742 456 742 q 347 766 368 742 q 325 825 325 790 q 349 894 325 863 q 417 925 374 925 q 483 901 461 925 q 504 842 504 876 m 46 0 q 82 210 67 124 q 107 355 97 297 q 122 447 117 413 q 131 499 128 481 q 134 524 133 517 q 135 535 135 531 q 117 591 135 571 q 56 611 100 611 l 42 611 l 49 653 l 215 653 q 294 633 269 653 q 318 560 318 613 q 317 545 318 554 q 314 517 317 536 q 305 461 311 497 q 289 365 299 425 q 264 216 279 306 q 226 0 249 126 l 46 0 z "},"ј":{"ha":375,"x_min":-122,"x_max":356,"o":"m 51 35 q 85 231 71 150 q 109 365 100 311 q 124 451 118 419 q 131 499 129 482 q 134 524 133 517 q 135 535 135 531 q 117 591 135 571 q 56 611 100 611 l 42 611 l 49 653 l 215 653 q 294 633 269 653 q 318 560 318 613 q 317 546 318 554 q 314 518 317 538 q 306 465 311 499 q 290 376 300 432 q 267 236 281 319 q 232 35 253 153 q 192 -109 217 -51 q 125 -201 167 -167 q 23 -249 83 -235 q -122 -264 -37 -264 l -117 -229 q -59 -208 -85 -224 q -13 -162 -33 -193 q 23 -84 7 -132 q 51 35 39 -36 m 356 828 q 331 759 356 790 q 264 728 307 728 q 198 752 219 728 q 176 811 176 776 q 201 880 176 849 q 268 911 225 911 q 334 887 313 911 q 356 828 356 863 z "},"љ":{"ha":1104,"x_min":-60,"x_max":1046,"o":"m 632 65 q 665 58 647 60 q 693 56 682 56 q 752 64 722 56 q 806 93 782 72 q 845 148 831 114 q 860 233 860 182 q 826 312 860 290 q 742 333 792 333 q 712 331 731 333 q 678 324 693 329 l 632 65 m 201 486 q 206 533 206 511 q 188 590 206 568 q 119 611 169 611 l 126 653 l 735 653 l 689 389 l 793 389 q 978 348 911 389 q 1046 228 1046 307 q 1022 131 1046 174 q 955 60 997 89 q 853 15 913 31 q 725 0 794 0 l 618 0 l 440 0 l 543 590 l 364 590 l 346 486 q 287 249 321 346 q 211 92 253 151 q 121 6 169 32 q 21 -21 72 -21 q -25 -17 -1 -21 q -60 -8 -49 -12 l -53 32 q 20 59 -15 38 q 88 130 56 81 q 148 265 119 179 q 201 486 176 350 z "},"њ":{"ha":1096,"x_min":42,"x_max":1039,"o":"m 489 313 l 281 313 l 226 0 l 46 0 q 82 210 67 124 q 107 354 97 296 q 122 446 117 413 q 131 498 128 479 q 134 524 133 517 q 135 535 135 531 q 117 591 135 571 q 56 611 100 611 l 42 611 l 49 653 l 215 653 q 294 633 269 653 q 318 560 318 613 q 317 540 318 551 q 313 508 317 528 q 305 456 310 488 q 292 375 300 425 l 500 375 l 549 653 l 729 653 l 681 375 l 785 375 q 972 334 904 375 q 1039 218 1039 293 q 1015 126 1039 167 q 949 58 992 86 q 847 15 906 29 q 719 0 789 0 l 435 0 l 489 313 m 626 65 q 659 58 642 60 q 688 56 676 56 q 747 64 718 56 q 799 92 776 72 q 837 143 822 111 q 851 222 851 175 q 817 298 851 276 q 733 319 783 319 q 704 317 722 319 q 669 310 686 315 l 626 65 z "},"ћ":{"ha":761,"x_min":17,"x_max":682,"o":"m 318 688 l 290 528 q 374 578 326 560 q 468 597 421 597 q 550 589 511 597 q 618 560 589 581 q 665 506 647 540 q 682 417 682 471 q 681 395 682 408 q 672 340 679 382 q 652 219 665 299 q 614 0 639 139 l 433 0 q 472 221 458 140 q 492 342 485 301 q 500 397 499 383 q 501 418 501 411 q 477 504 501 481 q 415 528 453 528 q 347 509 383 528 q 278 461 310 490 l 197 0 l 17 0 l 138 688 l 40 688 l 51 750 l 149 750 l 163 833 l 247 917 l 358 917 l 329 750 l 468 750 l 457 688 l 318 688 z "},"ќ":{"ha":732,"x_min":42,"x_max":736,"o":"m 274 272 l 226 0 l 46 0 q 82 210 67 124 q 107 354 97 296 q 122 446 117 413 q 131 498 128 479 q 134 524 133 517 q 135 535 135 531 q 117 591 135 571 q 56 611 100 611 l 42 611 l 49 653 l 215 653 q 294 633 269 653 q 318 560 318 613 q 317 539 318 551 q 313 503 315 526 q 303 442 310 481 q 286 340 296 403 l 490 546 q 539 591 515 571 q 588 625 563 611 q 643 646 614 639 q 708 653 672 653 l 736 653 l 731 617 q 652 600 689 617 q 579 547 615 583 l 415 383 l 557 139 q 668 33 610 46 l 663 0 q 621 -10 651 -6 q 564 -14 590 -14 q 458 10 506 -14 q 376 97 411 35 l 274 272 m 442 671 l 365 671 l 458 865 l 624 865 l 442 671 z "},"ў":{"ha":707,"x_min":6,"x_max":725,"o":"m 314 -90 q 253 -183 282 -147 q 193 -240 224 -219 q 130 -269 163 -261 q 61 -278 97 -278 l 6 -278 l 14 -229 q 81 -223 50 -229 q 140 -201 113 -217 q 191 -160 167 -186 q 239 -94 215 -135 l 281 -19 l 128 528 q 85 607 113 581 q 18 639 58 633 l 22 667 l 144 667 q 249 637 207 667 q 306 556 290 607 l 404 206 l 651 653 l 725 653 l 314 -90 m 467 799 q 567 820 525 799 q 636 868 610 842 l 669 839 q 576 744 633 781 q 450 708 518 708 q 338 744 382 708 q 278 839 293 781 l 322 868 q 373 820 338 842 q 467 799 408 799 z "},"џ":{"ha":782,"x_min":42,"x_max":743,"o":"m 46 0 q 82 210 67 124 q 107 354 97 296 q 122 446 117 413 q 131 498 128 479 q 134 524 133 517 q 135 535 135 531 q 117 591 135 571 q 56 611 100 611 l 42 611 l 49 653 l 215 653 q 294 633 269 653 q 318 560 318 613 q 316 535 318 551 q 306 469 314 518 q 282 324 299 419 q 236 63 265 229 l 458 63 l 563 653 l 743 653 l 629 0 l 400 0 l 342 -208 l 258 -208 l 275 0 l 46 0 z "},"Ґ":{"ha":751,"x_min":67,"x_max":860,"o":"m 397 854 l 247 0 l 67 0 q 123 321 100 189 q 161 540 146 453 q 185 677 176 628 q 197 752 193 726 q 202 786 201 778 q 203 799 203 794 q 185 855 203 835 q 124 875 168 875 l 110 875 l 117 917 l 615 917 q 751 955 699 917 q 818 1083 803 993 l 860 1083 l 839 965 q 826 924 835 944 q 803 889 818 904 q 763 864 788 874 q 701 854 738 854 l 397 854 z "},"ґ":{"ha":607,"x_min":39,"x_max":658,"o":"m 322 590 l 219 0 l 39 0 q 75 210 60 124 q 100 354 90 296 q 115 446 110 413 q 124 498 121 479 q 127 524 126 517 q 128 535 128 531 q 110 591 128 571 q 49 611 93 611 l 42 611 l 49 653 l 458 653 q 562 686 521 653 q 617 799 603 719 l 658 799 l 642 701 q 606 625 635 660 q 517 590 578 590 l 322 590 z "},"–":{"ha":867,"x_min":76,"x_max":778,"o":"m 763 315 l 76 315 l 92 406 l 778 406 l 763 315 z "},"—":{"ha":1242,"x_min":76,"x_max":1153,"o":"m 1138 315 l 76 315 l 92 406 l 1153 406 l 1138 315 z "},"‘":{"ha":303,"x_min":111,"x_max":340,"o":"m 217 753 q 269 735 251 753 q 288 689 288 718 q 261 616 288 649 q 188 583 235 583 q 130 608 149 583 q 111 667 111 632 q 129 756 111 714 q 176 833 147 797 q 243 900 206 869 q 321 956 281 931 l 340 922 q 298 894 321 911 q 254 856 275 878 q 217 806 233 833 q 196 749 201 779 l 217 753 z "},"’":{"ha":306,"x_min":104,"x_max":333,"o":"m 228 775 q 175 792 193 775 q 157 839 157 810 q 183 912 157 879 q 257 944 210 944 q 315 920 296 944 q 333 861 333 896 q 315 772 333 814 q 268 694 297 731 q 201 628 239 658 q 124 572 164 597 l 104 606 q 147 633 124 617 q 190 672 169 650 q 227 722 211 694 q 249 779 243 749 l 228 775 z "},"‚":{"ha":319,"x_min":-36,"x_max":192,"o":"m 86 -19 q 33 -2 51 -19 q 15 44 15 15 q 42 118 15 86 q 117 150 69 150 q 174 126 156 150 q 192 67 192 101 q 174 -22 192 19 q 128 -100 157 -64 q 60 -167 99 -136 q -18 -222 22 -197 l -36 -189 q 5 -161 -18 -178 q 49 -122 28 -144 q 86 -73 69 -100 q 108 -15 103 -46 l 86 -19 z "},"“":{"ha":556,"x_min":111,"x_max":593,"o":"m 217 753 q 269 735 251 753 q 288 689 288 718 q 261 616 288 649 q 188 583 235 583 q 130 608 149 583 q 111 667 111 632 q 129 756 111 714 q 176 833 147 797 q 243 900 206 869 q 321 956 281 931 l 340 922 q 298 894 321 911 q 254 856 275 878 q 217 806 233 833 q 196 749 201 779 l 217 753 m 469 753 q 522 735 504 753 q 540 689 540 718 q 514 616 540 649 q 440 583 488 583 q 383 608 401 583 q 364 667 364 632 q 382 756 364 714 q 429 833 400 797 q 496 900 458 869 q 574 956 533 931 l 593 922 q 551 894 574 911 q 507 856 528 878 q 470 806 486 833 q 449 749 454 779 l 469 753 z "},"”":{"ha":558,"x_min":104,"x_max":586,"o":"m 481 775 q 428 792 446 775 q 410 839 410 810 q 436 912 410 879 q 510 944 463 944 q 567 920 549 944 q 586 861 586 896 q 568 772 586 814 q 521 694 550 731 q 454 628 492 658 q 376 572 417 597 l 357 606 q 399 633 376 617 q 443 672 422 650 q 480 722 464 694 q 501 779 496 749 l 481 775 m 228 775 q 175 792 193 775 q 157 839 157 810 q 183 912 157 879 q 257 944 210 944 q 315 920 296 944 q 333 861 333 896 q 315 772 333 814 q 268 694 297 731 q 201 628 239 658 q 124 572 164 597 l 104 606 q 147 633 124 617 q 190 672 169 650 q 227 722 211 694 q 249 779 243 749 l 228 775 z "},"„":{"ha":572,"x_min":-36,"x_max":444,"o":"m 86 -19 q 33 -2 51 -19 q 15 44 15 15 q 42 118 15 86 q 117 150 69 150 q 174 126 156 150 q 192 67 192 101 q 174 -22 192 19 q 128 -100 157 -64 q 60 -167 99 -136 q -18 -222 22 -197 l -36 -189 q 5 -161 -18 -178 q 49 -122 28 -144 q 86 -73 69 -100 q 108 -15 103 -46 l 86 -19 m 339 -19 q 286 -2 304 -19 q 268 44 268 15 q 295 118 268 86 q 369 150 322 150 q 426 126 408 150 q 444 67 444 101 q 427 -22 444 19 q 381 -100 410 -64 q 313 -167 351 -136 q 235 -222 275 -197 l 217 -189 q 258 -161 235 -178 q 301 -122 281 -144 q 339 -73 322 -100 q 361 -15 356 -46 l 339 -19 z "},"†":{"ha":753,"x_min":68,"x_max":764,"o":"m 85 660 l 333 660 l 383 944 l 564 944 l 514 660 l 764 660 l 747 563 l 497 563 l 351 -264 l 171 -264 l 317 563 l 68 563 l 85 660 z "},"‡":{"ha":778,"x_min":-15,"x_max":776,"o":"m 97 660 l 346 660 l 396 944 l 576 944 l 526 660 l 776 660 l 760 563 l 510 563 l 431 118 l 681 118 l 664 21 l 414 21 l 364 -264 l 183 -264 l 233 21 l -15 21 l 1 118 l 250 118 l 329 563 l 81 563 l 97 660 z "},"•":{"ha":489,"x_min":67,"x_max":447,"o":"m 286 629 q 404 590 361 629 q 447 489 447 551 q 429 410 447 447 q 381 347 411 374 q 310 303 350 319 q 226 288 269 288 q 110 326 153 288 q 67 426 67 364 q 84 506 67 468 q 131 570 101 543 q 201 613 161 597 q 286 629 242 629 z "},"…":{"ha":897,"x_min":15,"x_max":771,"o":"m 188 85 q 160 13 188 44 q 86 -19 132 -19 q 33 -2 51 -19 q 15 44 15 15 q 42 118 15 86 q 117 150 69 150 q 170 133 153 150 q 188 85 188 115 m 479 85 q 451 13 479 44 q 378 -19 424 -19 q 325 -2 343 -19 q 307 44 307 15 q 334 118 307 86 q 408 150 361 150 q 462 133 444 150 q 479 85 479 115 m 771 85 q 743 13 771 44 q 669 -19 715 -19 q 617 -2 635 -19 q 599 44 599 15 q 626 118 599 86 q 700 150 653 150 q 753 133 736 150 q 771 85 771 115 z "},"‰":{"ha":1489,"x_min":54,"x_max":1419,"o":"m 54 0 l 888 917 l 1035 917 l 201 0 l 54 0 m 765 376 q 906 337 856 376 q 956 224 956 297 q 935 130 956 172 q 881 57 915 88 q 799 10 846 26 q 699 -7 751 -7 q 556 33 607 -7 q 506 146 506 72 q 526 240 506 197 q 583 313 547 282 q 665 360 618 343 q 765 376 713 376 m 753 321 q 694 305 719 321 q 651 264 668 289 q 625 207 633 239 q 617 143 617 175 q 707 49 617 49 q 766 64 740 49 q 809 104 792 79 q 835 161 826 129 q 844 225 844 193 q 821 296 844 271 q 753 321 797 321 m 365 924 q 504 885 454 924 q 554 774 554 846 q 534 679 554 722 q 479 606 514 636 q 398 558 444 575 q 297 540 351 540 q 155 580 206 540 q 104 693 104 619 q 125 787 104 744 q 181 860 146 829 q 265 907 217 890 q 365 924 313 924 m 353 868 q 294 852 319 868 q 251 811 268 836 q 224 754 233 786 q 215 690 215 722 q 306 596 215 596 q 366 612 340 596 q 409 653 392 628 q 435 710 426 678 q 443 775 443 742 q 353 868 443 868 m 1229 376 q 1369 337 1319 376 q 1419 224 1419 297 q 1399 130 1419 172 q 1344 57 1379 88 q 1263 10 1310 26 q 1163 -7 1215 -7 q 1020 33 1071 -7 q 969 146 969 72 q 990 240 969 197 q 1047 313 1011 282 q 1129 360 1082 343 q 1229 376 1176 376 m 1217 321 q 1158 305 1183 321 q 1115 264 1132 289 q 1089 207 1097 239 q 1081 143 1081 175 q 1171 49 1081 49 q 1230 64 1204 49 q 1273 104 1256 79 q 1299 161 1290 129 q 1308 225 1308 193 q 1285 296 1308 271 q 1217 321 1261 321 z "},"‹":{"ha":413,"x_min":32,"x_max":389,"o":"m 293 42 l 204 42 l 32 313 l 300 583 l 389 583 l 206 314 l 293 42 z "},"›":{"ha":410,"x_min":-3,"x_max":353,"o":"m 179 314 l 93 583 l 182 583 l 353 313 l 86 42 l -3 42 l 179 314 z "},"€":{"ha":1029,"x_min":31,"x_max":1001,"o":"m 943 621 q 881 815 940 747 q 707 882 822 882 q 597 866 650 882 q 499 812 544 850 q 415 711 453 774 q 350 556 376 649 l 621 556 l 593 493 l 333 493 l 319 410 l 575 410 l 547 347 l 314 347 l 314 324 q 327 210 314 263 q 369 119 340 158 q 445 57 399 79 q 558 35 492 35 q 745 85 654 35 q 903 233 836 136 l 944 196 q 855 96 901 138 q 755 26 808 54 q 640 -15 701 -1 q 506 -28 578 -28 q 339 -1 411 -28 q 218 76 267 26 q 145 192 169 125 q 121 340 121 260 l 121 347 l 31 347 l 58 410 l 125 410 q 135 465 132 449 q 140 493 138 481 l 76 493 l 104 556 l 160 556 q 244 711 192 640 q 365 834 297 782 q 512 915 432 886 q 676 944 592 944 q 881 910 807 944 q 986 832 956 876 q 998 798 994 817 q 1001 757 1001 779 q 997 691 1001 725 q 985 621 992 657 l 943 621 z "},"№":{"ha":1440,"x_min":74,"x_max":1454,"o":"m 775 278 l 888 917 l 957 917 l 794 -4 l 731 -4 l 264 688 l 143 0 l 74 0 q 130 322 107 190 q 168 540 153 454 q 191 674 183 626 q 203 746 199 722 q 208 776 207 769 q 208 786 208 783 q 185 850 208 825 q 103 875 163 875 l 96 875 l 103 917 l 200 917 q 324 896 279 917 q 394 833 369 875 l 775 278 m 1242 875 q 1185 862 1214 875 q 1135 824 1157 849 q 1099 765 1113 800 q 1085 683 1085 729 q 1114 599 1085 628 q 1188 569 1143 569 q 1244 583 1217 569 q 1294 620 1272 596 q 1329 681 1315 644 q 1343 763 1343 717 q 1315 846 1343 817 q 1242 875 1286 875 m 1253 944 q 1403 894 1353 944 q 1454 768 1454 844 q 1434 665 1454 714 q 1378 579 1414 615 q 1290 522 1342 543 q 1175 500 1238 500 q 1024 549 1075 500 q 974 676 974 599 q 994 780 974 731 q 1050 865 1014 829 q 1138 923 1086 901 q 1253 944 1190 944 m 1369 343 l 925 343 l 942 433 l 1386 433 l 1369 343 z "},"™":{"ha":1308,"x_min":136,"x_max":1274,"o":"m 658 917 l 650 872 l 482 872 l 401 413 l 268 413 l 349 872 l 285 872 q 203 843 238 872 q 158 754 169 814 l 136 754 l 149 825 q 159 858 151 842 q 180 888 167 875 q 214 909 193 901 q 265 917 235 917 l 658 917 m 1274 917 q 1237 708 1250 785 q 1217 589 1224 631 q 1210 531 1211 547 q 1208 506 1208 515 q 1219 446 1208 465 q 1253 419 1231 426 l 1250 403 q 1123 433 1167 403 q 1079 540 1079 463 q 1080 558 1079 547 q 1085 592 1081 568 q 1096 659 1089 617 q 1115 772 1103 701 l 890 413 l 856 413 l 721 794 l 654 413 l 601 413 l 690 917 l 813 917 l 931 579 l 1142 917 l 1274 917 z "},"":{"ha":417,"x_min":94,"x_max":486,"o":"m 283 799 q 384 820 342 799 q 453 868 426 842 l 486 839 q 392 744 450 781 q 267 708 335 708 q 154 744 199 708 q 94 839 110 781 l 139 868 q 190 820 154 842 q 283 799 225 799 z "}}}
